<svg version="1.1" viewBox="0.0 0.0 533.0 329.0" fill="none" stroke="none" stroke-linecap="square" stroke-miterlimit="10" width="533" height="329" xmlns:xlink="http://www.w3.org/1999/xlink" xmlns="http://www.w3.org/2000/svg"><path fill="#ffffff" d="M0 0L533.0 0L533.0 329.0L0 329.0L0 0Z" fill-rule="nonzero"/><path stroke="#cccccc" stroke-width="1.0" stroke-linecap="butt" d="M139.5 58.5L139.5 260.5" fill-rule="nonzero"/><path stroke="#cccccc" stroke-width="1.0" stroke-linecap="butt" d="M207.5 58.5L207.5 260.5" fill-rule="nonzero"/><path stroke="#cccccc" stroke-width="1.0" stroke-linecap="butt" d="M275.5 58.5L275.5 260.5" fill-rule="nonzero"/><path stroke="#cccccc" stroke-width="1.0" stroke-linecap="butt" d="M343.5 58.5L343.5 260.5" fill-rule="nonzero"/><path stroke="#cccccc" stroke-width="1.0" stroke-linecap="butt" d="M411.5 58.5L411.5 260.5" fill-rule="nonzero"/><path stroke="#cccccc" stroke-width="1.0" stroke-linecap="butt" d="M479.5 58.5L479.5 260.5" fill-rule="nonzero"/><path stroke="#333333" stroke-width="1.0" stroke-linecap="butt" d="M75.5 260.5L516.5 260.5" fill-rule="nonzero"/><path stroke="#cccccc" stroke-width="1.0" stroke-linecap="butt" d="M75.5 210.5L516.5 210.5" fill-rule="nonzero"/><path stroke="#cccccc" stroke-width="1.0" stroke-linecap="butt" d="M75.5 159.5L516.5 159.5" fill-rule="nonzero"/><path stroke="#cccccc" stroke-width="1.0" stroke-linecap="butt" d="M75.5 108.5L516.5 108.5" fill-rule="nonzero"/><path stroke="#cccccc" stroke-width="1.0" stroke-linecap="butt" d="M75.5 58.5L516.5 58.5" fill-rule="nonzero"/><clipPath id="id_0"><path d="M75.45 58.416668L516.55 58.416668L516.55 260.55L75.45 260.55L75.45 58.416668Z" clip-rule="nonzero"/></clipPath><path stroke="#4285f4" stroke-width="2.0" stroke-linecap="butt" clip-path="url(#id_0)" d="M85.01626 92.95342L98.62811 172.13486L125.85182 216.29037L153.07553 229.91063L180.29924 237.88974L234.74666 245.3621L289.19406 249.1457L343.64148 250.7217L452.53632 252.74722L506.98373 252.85066" fill-rule="nonzero"/><path fill="#4285f4" clip-path="url(#id_0)" d="M91.01626 92.95342C91.01626 96.26713 88.32996 98.95342 85.01626 98.95342C81.702545 98.95342 79.01626 96.26713 79.01626 92.95342C79.01626 89.63971 81.702545 86.95342 85.01626 86.95342C88.32996 86.95342 91.01626 89.63971 91.01626 92.95342Z" fill-rule="nonzero"/><path fill="#4285f4" clip-path="url(#id_0)" d="M104.62811 172.13486C104.62811 175.44856 101.94182 178.13486 98.62811 178.13486C95.3144 178.13486 92.62811 175.44856 92.62811 172.13486C92.62811 168.82115 95.3144 166.13486 98.62811 166.13486C101.94182 166.13486 104.62811 168.82115 104.62811 172.13486Z" fill-rule="nonzero"/><path fill="#4285f4" clip-path="url(#id_0)" d="M131.85182 216.29037C131.85182 219.6041 129.16553 222.29037 125.85182 222.29037C122.53811 222.29037 119.85182 219.6041 119.85182 216.29037C119.85182 212.97667 122.53811 210.29037 125.85182 210.29037C129.16553 210.29037 131.85182 212.97667 131.85182 216.29037Z" fill-rule="nonzero"/><path fill="#4285f4" clip-path="url(#id_0)" d="M159.07553 229.91063C159.07553 233.22433 156.38924 235.91063 153.07553 235.91063C149.76183 235.91063 147.07553 233.22433 147.07553 229.91063C147.07553 226.59692 149.76183 223.91063 153.07553 223.91063C156.38924 223.91063 159.07553 226.59692 159.07553 229.91063Z" fill-rule="nonzero"/><path fill="#4285f4" clip-path="url(#id_0)" d="M186.29924 237.88974C186.29924 241.20345 183.61295 243.88974 180.29924 243.88974C176.98553 243.88974 174.29924 241.20345 174.29924 237.88974C174.29924 234.57603 176.98553 231.88974 180.29924 231.88974C183.61295 231.88974 186.29924 234.57603 186.29924 237.88974Z" fill-rule="nonzero"/><path fill="#4285f4" clip-path="url(#id_0)" d="M240.74666 245.3621C240.74666 248.67581 238.06036 251.3621 234.74666 251.3621C231.43295 251.3621 228.74666 248.67581 228.74666 245.3621C228.74666 242.0484 231.43295 239.3621 234.74666 239.3621C238.06036 239.3621 240.74666 242.0484 240.74666 245.3621Z" fill-rule="nonzero"/><path fill="#4285f4" clip-path="url(#id_0)" d="M295.19406 249.1457C295.19406 252.45943 292.50778 255.1457 289.19406 255.1457C285.88037 255.1457 283.19406 252.45943 283.19406 249.1457C283.19406 245.832 285.88037 243.1457 289.19406 243.1457C292.50778 243.1457 295.19406 245.832 295.19406 249.1457Z" fill-rule="nonzero"/><path fill="#4285f4" clip-path="url(#id_0)" d="M349.64148 250.7217C349.64148 254.0354 346.9552 256.7217 343.64148 256.7217C340.3278 256.7217 337.64148 254.0354 337.64148 250.7217C337.64148 247.40799 340.3278 244.7217 343.64148 244.7217C346.9552 244.7217 349.64148 247.40799 349.64148 250.7217Z" fill-rule="nonzero"/><path fill="#4285f4" clip-path="url(#id_0)" d="M458.53632 252.74722C458.53632 256.06094 455.85004 258.74722 452.53632 258.74722C449.22263 258.74722 446.53632 256.06094 446.53632 252.74722C446.53632 249.43352 449.22263 246.74722 452.53632 246.74722C455.85004 246.74722 458.53632 249.43352 458.53632 252.74722Z" fill-rule="nonzero"/><path fill="#4285f4" clip-path="url(#id_0)" d="M512.98376 252.85066C512.98376 256.16437 510.29745 258.85068 506.98373 258.85068C503.67004 258.85068 500.98373 256.16437 500.98373 252.85066C500.98373 249.53696 503.67004 246.85066 506.98373 246.85066C510.29745 246.85066 512.98376 249.53696 512.98376 252.85066Z" fill-rule="nonzero"/><path fill="#000000" d="M264.10938 309.6906L264.60938 307.20624L263.625 307.20624L263.625 306.33124L264.79688 306.33124L265.21875 304.20624L263.625 304.20624L263.625 303.33124L265.40625 303.33124L265.90625 300.8156L266.78125 300.8156L266.28125 303.33124L268.125 303.33124L268.64062 300.8156L269.51562 300.8156L269.01562 303.33124L270.01562 303.33124L270.01562 304.20624L268.82812 304.20624L268.39062 306.33124L270.01562 306.33124L270.01562 307.20624L268.21875 307.20624L267.70312 309.6906L266.82812 309.6906L267.32812 307.20624L265.5 307.20624L264.98438 309.6906L264.10938 309.6906ZM265.67188 306.33124L267.51562 306.33124L267.95312 304.20624L266.10938 304.20624L265.67188 306.33124ZM273.90625 306.4406Q273.90625 304.70624 274.85938 303.8781Q275.65625 303.1906 276.8125 303.1906Q278.09375 303.1906 278.90625 304.03436Q279.73438 304.8625 279.73438 306.34686Q279.73438 307.55 279.375 308.2375Q279.01562 308.925 278.3125 309.3156Q277.625 309.6906 276.8125 309.6906Q275.51562 309.6906 274.70312 308.8625Q273.90625 308.01874 273.90625 306.4406ZM274.98438 306.4406Q274.98438 307.6281 275.5 308.22186Q276.03125 308.8156 276.8125 308.8156Q277.60938 308.8156 278.125 308.22186Q278.64062 307.6281 278.64062 306.40936Q278.64062 305.2531 278.10938 304.65936Q277.59375 304.0656 276.8125 304.0656Q276.03125 304.0656 275.5 304.65936Q274.98438 305.2375 274.98438 306.4406ZM281.54688 309.55L281.54688 304.14374L280.60938 304.14374L280.60938 303.33124L281.54688 303.33124L281.54688 302.65936Q281.54688 302.03436 281.65625 301.7375Q281.8125 301.3156 282.1875 301.0656Q282.57812 300.8156 283.26562 300.8156Q283.71875 300.8156 284.25 300.925L284.09375 301.83124Q283.76562 301.78436 283.46875 301.78436Q282.98438 301.78436 282.78125 301.9875Q282.59375 302.1906 282.59375 302.7531L282.59375 303.33124L283.8125 303.33124L283.8125 304.14374L282.59375 304.14374L282.59375 309.55L281.54688 309.55ZM289.59375 308.6125L289.75 309.53436Q289.29688 309.6281 288.95312 309.6281Q288.375 309.6281 288.0625 309.45624Q287.75 309.26874 287.60938 308.97186Q287.48438 308.675 287.48438 307.72186L287.48438 304.14374L286.71875 304.14374L286.71875 303.33124L287.48438 303.33124L287.48438 301.78436L288.53125 301.15936L288.53125 303.33124L289.59375 303.33124L289.59375 304.14374L288.53125 304.14374L288.53125 307.78436Q288.53125 308.2375 288.57812 308.3625Q288.64062 308.4875 288.76562 308.5656Q288.89062 308.64374 289.125 308.64374Q289.3125 308.64374 289.59375 308.6125ZM290.29688 309.55L290.29688 300.95624L291.34375 300.95624L291.34375 304.03436Q292.07812 303.1906 293.20312 303.1906Q293.90625 303.1906 294.40625 303.47186Q294.92188 303.7375 295.14062 304.22186Q295.35938 304.6906 295.35938 305.6125L295.35938 309.55L294.3125 309.55L294.3125 305.6125Q294.3125 304.8156 293.96875 304.45624Q293.625 304.09686 293.0 304.09686Q292.53125 304.09686 292.10938 304.34686Q291.70312 304.58124 291.51562 305.0031Q291.34375 305.40936 291.34375 306.14374L291.34375 309.55L290.29688 309.55ZM297.28125 309.55L297.28125 303.33124L298.23438 303.33124L298.23438 304.26874Q298.59375 303.6125 298.89062 303.40936Q299.20312 303.1906 299.57812 303.1906Q300.10938 303.1906 300.65625 303.51874L300.29688 304.5031Q299.90625 304.26874 299.53125 304.26874Q299.17188 304.26874 298.89062 304.4875Q298.625 304.6906 298.51562 305.0656Q298.32812 305.6281 298.32812 306.28436L298.32812 309.55L297.28125 309.55ZM305.54688 307.55L306.64062 307.675Q306.39062 308.6281 305.6875 309.15936Q304.98438 309.6906 303.90625 309.6906Q302.54688 309.6906 301.73438 308.84686Q300.9375 308.0031 300.9375 306.4875Q300.9375 304.925 301.75 304.0656Q302.5625 303.1906 303.84375 303.1906Q305.09375 303.1906 305.875 304.03436Q306.67188 304.8781 306.67188 306.425Q306.67188 306.51874 306.67188 306.70624L302.03125 306.70624Q302.09375 307.7375 302.60938 308.28436Q303.125 308.8156 303.90625 308.8156Q304.48438 308.8156 304.89062 308.51874Q305.3125 308.20624 305.54688 307.55ZM302.09375 305.84686L305.5625 305.84686Q305.5 305.05 305.17188 304.65936Q304.65625 304.05 303.85938 304.05Q303.125 304.05 302.625 304.53436Q302.14062 305.01874 302.09375 305.84686ZM312.35938 308.78436Q311.76562 309.28436 311.21875 309.4875Q310.6875 309.6906 310.0625 309.6906Q309.03125 309.6906 308.48438 309.1906Q307.9375 308.6906 307.9375 307.90936Q307.9375 307.45624 308.14062 307.08124Q308.34375 306.6906 308.6875 306.47186Q309.03125 306.2375 309.45312 306.1281Q309.75 306.03436 310.39062 305.95624Q311.65625 305.8156 312.26562 305.59686Q312.26562 305.3781 312.26562 305.33124Q312.26562 304.675 311.96875 304.40936Q311.5625 304.0656 310.76562 304.0656Q310.03125 304.0656 309.67188 304.33124Q309.3125 304.58124 309.14062 305.2375L308.10938 305.09686Q308.25 304.4406 308.57812 304.03436Q308.90625 303.6281 309.51562 303.40936Q310.125 303.1906 310.92188 303.1906Q311.71875 303.1906 312.21875 303.3781Q312.71875 303.5656 312.95312 303.84686Q313.1875 304.1281 313.28125 304.5656Q313.32812 304.83124 313.32812 305.53436L313.32812 306.9406Q313.32812 308.40936 313.39062 308.8Q313.46875 309.1906 313.67188 309.55L312.5625 309.55Q312.40625 309.22186 312.35938 308.78436ZM312.26562 306.425Q311.6875 306.65936 310.54688 306.83124Q309.89062 306.925 309.625 307.05Q309.35938 307.15936 309.20312 307.3781Q309.0625 307.59686 309.0625 307.8781Q309.0625 308.3 309.375 308.58124Q309.70312 308.8625 310.3125 308.8625Q310.92188 308.8625 311.39062 308.59686Q311.875 308.33124 312.09375 307.8625Q312.26562 307.5031 312.26562 306.8156L312.26562 306.425ZM319.32812 309.55L319.32812 308.76874Q318.73438 309.6906 317.59375 309.6906Q316.84375 309.6906 316.21875 309.28436Q315.59375 308.8625 315.25 308.1281Q314.90625 307.39374 314.90625 306.4406Q314.90625 305.51874 315.21875 304.7531Q315.53125 303.9875 316.15625 303.59686Q316.78125 303.1906 317.54688 303.1906Q318.10938 303.1906 318.54688 303.425Q318.98438 303.65936 319.26562 304.03436L319.26562 300.95624L320.3125 300.95624L320.3125 309.55L319.32812 309.55ZM316.0 306.4406Q316.0 307.64374 316.5 308.2375Q317.0 308.8156 317.6875 308.8156Q318.375 308.8156 318.85938 308.2531Q319.34375 307.6906 319.34375 306.53436Q319.34375 305.2531 318.84375 304.65936Q318.35938 304.0656 317.64062 304.0656Q316.9375 304.0656 316.46875 304.64374Q316.0 305.20624 316.0 306.4406ZM321.875 307.6906L322.90625 307.53436Q323.0 308.15936 323.39062 308.4875Q323.79688 308.8156 324.53125 308.8156Q325.25 308.8156 325.59375 308.53436Q325.95312 308.2375 325.95312 307.83124Q325.95312 307.47186 325.64062 307.26874Q325.42188 307.1281 324.5625 306.90936Q323.40625 306.6125 322.95312 306.40936Q322.51562 306.1906 322.28125 305.8156Q322.04688 305.4406 322.04688 304.97186Q322.04688 304.5656 322.23438 304.20624Q322.42188 303.84686 322.75 303.6125Q323.0 303.4406 323.42188 303.3156Q323.84375 303.1906 324.34375 303.1906Q325.0625 303.1906 325.60938 303.40936Q326.17188 303.6125 326.4375 303.97186Q326.70312 304.33124 326.79688 304.925L325.76562 305.0656Q325.70312 304.59686 325.35938 304.33124Q325.03125 304.05 324.40625 304.05Q323.6875 304.05 323.375 304.3Q323.0625 304.53436 323.0625 304.8625Q323.0625 305.0656 323.1875 305.22186Q323.32812 305.39374 323.59375 305.5031Q323.75 305.5656 324.53125 305.76874Q325.65625 306.08124 326.09375 306.26874Q326.53125 306.45624 326.78125 306.8156Q327.03125 307.175 327.03125 307.72186Q327.03125 308.2531 326.71875 308.72186Q326.42188 309.175 325.84375 309.4406Q325.26562 309.6906 324.53125 309.6906Q323.3125 309.6906 322.67188 309.1906Q322.04688 308.675 321.875 307.6906Z" fill-rule="nonzero"/><path fill="#000000" d="M27.449987 185.87396L19.871862 185.87396L19.871862 188.70209L18.856237 188.70209L18.856237 181.88959L19.871862 181.88959L19.871862 184.73334L27.449987 184.73334L27.449987 185.87396ZM20.074987 181.18646L18.856237 181.18646L18.856237 180.12396L20.074987 180.12396L20.074987 181.18646ZM27.449987 181.18646L21.231237 181.18646L21.231237 180.12396L27.449987 180.12396L27.449987 181.18646ZM27.449987 178.18646L21.231237 178.18646L21.231237 177.24896L22.106237 177.24896Q21.637487 176.95209 21.371862 176.46771Q21.090612 175.98334 21.090612 175.35834Q21.090612 174.67084 21.371862 174.23334Q21.653112 173.78021 22.168737 173.60834Q21.090612 172.85834 21.090612 171.68646Q21.090612 170.74896 21.606237 170.26459Q22.106237 169.76459 23.184362 169.76459L27.449987 169.76459L27.449987 170.81146L23.528112 170.81146Q22.903112 170.81146 22.621862 170.92084Q22.340612 171.01459 22.168737 171.28021Q21.996862 171.54584 21.996862 171.92084Q21.996862 172.57709 22.434362 173.01459Q22.871862 173.43646 23.840612 173.43646L27.449987 173.43646L27.449987 174.49896L23.403112 174.49896Q22.699987 174.49896 22.356237 174.76459Q21.996862 175.01459 21.996862 175.59271Q21.996862 176.04584 22.231237 176.42084Q22.465612 176.79584 22.918737 176.96771Q23.371862 177.13959 24.215612 177.13959L27.449987 177.13959L27.449987 178.18646ZM25.449987 162.93646L25.574987 161.84271Q26.528112 162.09271 27.059362 162.79584Q27.590612 163.49896 27.590612 164.57709Q27.590612 165.93646 26.746862 166.74896Q25.903112 167.54584 24.387487 167.54584Q22.824987 167.54584 21.965612 166.73334Q21.090612 165.92084 21.090612 164.63959Q21.090612 163.38959 21.934362 162.60834Q22.778112 161.81146 24.324987 161.81146Q24.418737 161.81146 24.606237 161.81146L24.606237 166.45209Q25.637487 166.38959 26.184362 165.87396Q26.715612 165.35834 26.715612 164.57709Q26.715612 163.99896 26.418737 163.59271Q26.106237 163.17084 25.449987 162.93646ZM23.746862 166.38959L23.746862 162.92084Q22.949987 162.98334 22.559362 163.31146Q21.949987 163.82709 21.949987 164.62396Q21.949987 165.35834 22.434362 165.85834Q22.918737 166.34271 23.746862 166.38959ZM29.981237 155.17084Q28.871862 156.04584 27.403112 156.65521Q25.918737 157.24896 24.340612 157.24896Q22.949987 157.24896 21.668737 156.81146Q20.184362 156.28021 18.715612 155.17084L18.715612 154.42084Q19.934362 155.12396 20.449987 155.35834Q21.262487 155.71771 22.137487 155.92084Q23.231237 156.17084 24.340612 156.17084Q27.168737 156.17084 29.981237 154.42084L29.981237 155.17084ZM25.590612 153.60834L25.434362 152.57709Q26.059362 152.48334 26.387487 152.09271Q26.715612 151.68646 26.715612 150.95209Q26.715612 150.23334 26.434362 149.88959Q26.137487 149.53021 25.731237 149.53021Q25.371862 149.53021 25.168737 149.84271Q25.028112 150.06146 24.809362 150.92084Q24.512487 152.07709 24.309362 152.53021Q24.090612 152.96771 23.715612 153.20209Q23.340612 153.43646 22.871862 153.43646Q22.465612 153.43646 22.106237 153.24896Q21.746862 153.06146 21.512487 152.73334Q21.340612 152.48334 21.215612 152.06146Q21.090612 151.63959 21.090612 151.13959Q21.090612 150.42084 21.309362 149.87396Q21.512487 149.31146 21.871862 149.04584Q22.231237 148.78021 22.824987 148.68646L22.965612 149.71771Q22.496862 149.78021 22.231237 150.12396Q21.949987 150.45209 21.949987 151.07709Q21.949987 151.79584 22.199987 152.10834Q22.434362 152.42084 22.762487 152.42084Q22.965612 152.42084 23.121862 152.29584Q23.293737 152.15521 23.403112 151.88959Q23.465612 151.73334 23.668737 150.95209Q23.981237 149.82709 24.168737 149.38959Q24.356237 148.95209 24.715612 148.70209Q25.074987 148.45209 25.621862 148.45209Q26.153112 148.45209 26.621862 148.76459Q27.074987 149.06146 27.340612 149.63959Q27.590612 150.21771 27.590612 150.95209Q27.590612 152.17084 27.090612 152.81146Q26.574987 153.43646 25.590612 153.60834ZM29.981237 145.49896L29.981237 146.24896Q27.168737 144.49896 24.340612 144.49896Q23.246862 144.49896 22.153112 144.74896Q21.278112 144.95209 20.465612 145.31146Q19.949987 145.54584 18.715612 146.24896L18.715612 145.49896Q20.184362 144.40521 21.668737 143.87396Q22.949987 143.42084 24.340612 143.42084Q25.918737 143.42084 27.403112 144.03021Q28.871862 144.63959 29.981237 145.49896Z" fill-rule="nonzero"/><path fill="#000000" d="M62.95 260.3156Q62.95 258.78436 63.2625 257.8625Q63.575 256.925 64.18437 256.425Q64.80937 255.92499 65.74687 255.92499Q66.43437 255.92499 66.95 256.20624Q67.48125 256.4875 67.825 257.01874Q68.16875 257.53436 68.35625 258.28436Q68.54375 259.03436 68.54375 260.3156Q68.54375 261.83124 68.23125 262.7531Q67.93437 263.675 67.30937 264.1906Q66.7 264.6906 65.74687 264.6906Q64.5125 264.6906 63.79375 263.8Q62.95 262.7375 62.95 260.3156ZM64.02812 260.3156Q64.02812 262.425 64.52812 263.1281Q65.02812 263.83124 65.74687 263.83124Q66.48125 263.83124 66.96562 263.1281Q67.46562 262.425 67.46562 260.3156Q67.46562 258.1906 66.96562 257.5031Q66.48125 256.8 65.73125 256.8Q65.0125 256.8 64.575 257.40936Q64.02812 258.1906 64.02812 260.3156Z" fill-rule="nonzero"/><path fill="#000000" d="M68.49687 213.00104L68.49687 214.01666L62.809376 214.01666Q62.809376 213.64166 62.934376 213.28229Q63.153126 212.70416 63.621876 212.14166Q64.10625 211.57916 65.0125 210.84479Q66.41875 209.68854 66.90312 209.01666Q67.40312 208.34479 67.40312 207.75104Q67.40312 207.12604 66.95 206.70416Q66.49687 206.26666 65.77812 206.26666Q65.0125 206.26666 64.55937 206.71979Q64.10625 207.17291 64.09062 207.98541L63.0125 207.87604Q63.121876 206.65729 63.840626 206.03229Q64.575 205.39166 65.80937 205.39166Q67.04375 205.39166 67.7625 206.07916Q68.48125 206.76666 68.48125 207.78229Q68.48125 208.29791 68.2625 208.79791Q68.05937 209.28229 67.55937 209.84479Q67.075 210.39166 65.95 211.34479Q64.99687 212.14166 64.71562 212.43854Q64.45 212.71979 64.27812 213.00104L68.49687 213.00104Z" fill-rule="nonzero"/><path fill="#000000" d="M66.325 163.48334L66.325 161.42084L62.60625 161.42084L62.60625 160.45209L66.52812 154.88959L67.3875 154.88959L67.3875 160.45209L68.54375 160.45209L68.54375 161.42084L67.3875 161.42084L67.3875 163.48334L66.325 163.48334ZM66.325 160.45209L66.325 156.59271L63.6375 160.45209L66.325 160.45209Z" fill-rule="nonzero"/><path fill="#000000" d="M68.41875 106.46562L67.37187 106.54375Q67.23125 105.91875 66.98125 105.6375Q66.54375 105.18437 65.91875 105.18437Q65.41875 105.18437 65.02812 105.46562Q64.54375 105.84062 64.24687 106.54375Q63.965626 107.23125 63.95 108.5125Q64.325 107.93437 64.87187 107.65312Q65.43437 107.37187 66.04375 107.37187Q67.09062 107.37187 67.825 108.15312Q68.575 108.93437 68.575 110.15312Q68.575 110.96562 68.21562 111.66875Q67.87187 112.35625 67.2625 112.73125Q66.65312 113.09062 65.8875 113.09062Q64.55937 113.09062 63.73125 112.12187Q62.903126 111.15312 62.903126 108.93437Q62.903126 106.43437 63.825 105.30937Q64.62187 104.325 65.98125 104.325Q66.99687 104.325 67.6375 104.90312Q68.29375 105.46562 68.41875 106.46562ZM64.12187 110.16875Q64.12187 110.71562 64.34062 111.21562Q64.575 111.7 64.98125 111.96562Q65.40312 112.23125 65.87187 112.23125Q66.52812 112.23125 67.0125 111.7Q67.49687 111.15312 67.49687 110.23125Q67.49687 109.34062 67.0125 108.825Q66.54375 108.30937 65.825 108.30937Q65.10625 108.30937 64.60625 108.825Q64.12187 109.34062 64.12187 110.16875Z" fill-rule="nonzero"/><path fill="#000000" d="M64.575 57.760418Q63.91875 57.510418 63.590626 57.072918Q63.278126 56.619793 63.278126 56.010418Q63.278126 55.072918 63.95 54.432293Q64.6375 53.791668 65.74687 53.791668Q66.87187 53.791668 67.55937 54.447918Q68.24687 55.104168 68.24687 56.041668Q68.24687 56.635418 67.93437 57.072918Q67.62187 57.510418 66.98125 57.760418Q67.77812 58.010418 68.18437 58.588543Q68.59062 59.166668 68.59062 59.963543Q68.59062 61.057293 67.80937 61.807293Q67.04375 62.557293 65.7625 62.557293Q64.49687 62.557293 63.715626 61.807293Q62.934376 61.057293 62.934376 59.932293Q62.934376 59.088543 63.35625 58.526043Q63.79375 57.963543 64.575 57.760418ZM64.35625 55.963543Q64.35625 56.572918 64.74687 56.963543Q65.15312 57.354168 65.77812 57.354168Q66.3875 57.354168 66.77812 56.979168Q67.16875 56.588543 67.16875 56.026043Q67.16875 55.447918 66.7625 55.057293Q66.35625 54.651043 65.7625 54.651043Q65.15312 54.651043 64.74687 55.041668Q64.35625 55.432293 64.35625 55.963543ZM64.02812 59.932293Q64.02812 60.385418 64.23125 60.807293Q64.45 61.229168 64.87187 61.463543Q65.29375 61.697918 65.77812 61.697918Q66.52812 61.697918 67.0125 61.213543Q67.5125 60.729168 67.5125 59.979168Q67.5125 59.213543 67.0125 58.713543Q66.5125 58.213543 65.74687 58.213543Q64.99687 58.213543 64.5125 58.713543Q64.02812 59.197918 64.02812 59.932293Z" fill-rule="nonzero"/><path fill="#000000" d="M136.46367 275.3L137.57304 275.20624Q137.69804 276.01874 138.13554 276.425Q138.58867 276.83124 139.2293 276.83124Q139.9793 276.83124 140.51054 276.2531Q141.0418 275.675 141.0418 274.7375Q141.0418 273.83124 140.52617 273.3156Q140.02617 272.78436 139.19804 272.78436Q138.69804 272.78436 138.27617 273.01874Q137.86992 273.2531 137.63554 273.6125L136.65117 273.4875L137.4793 269.08124L141.76054 269.08124L141.76054 270.08124L138.32304 270.08124L137.86992 272.39374Q138.63554 271.84686 139.4793 271.84686Q140.6043 271.84686 141.36992 272.6281Q142.15117 273.40936 142.15117 274.64374Q142.15117 275.8 141.4793 276.65936Q140.65117 277.6906 139.2293 277.6906Q138.05742 277.6906 137.30742 277.03436Q136.57304 276.3781 136.46367 275.3Z" fill-rule="nonzero"/><path fill="#000000" d="M204.9917 277.55L203.94482 277.55L203.94482 270.83124Q203.5542 271.1906 202.9292 271.5656Q202.31982 271.925 201.83545 272.09686L201.83545 271.08124Q202.71045 270.65936 203.3667 270.08124Q204.03857 269.4875 204.31982 268.925L204.9917 268.925L204.9917 277.55ZM208.02295 273.3156Q208.02295 271.78436 208.33545 270.8625Q208.64795 269.925 209.25732 269.425Q209.88232 268.925 210.81982 268.925Q211.50732 268.925 212.02295 269.20624Q212.5542 269.4875 212.89795 270.01874Q213.2417 270.53436 213.4292 271.28436Q213.6167 272.03436 213.6167 273.3156Q213.6167 274.83124 213.3042 275.7531Q213.00732 276.675 212.38232 277.1906Q211.77295 277.6906 210.81982 277.6906Q209.58545 277.6906 208.8667 276.8Q208.02295 275.7375 208.02295 273.3156ZM209.10107 273.3156Q209.10107 275.425 209.60107 276.1281Q210.10107 276.83124 210.81982 276.83124Q211.5542 276.83124 212.03857 276.1281Q212.53857 275.425 212.53857 273.3156Q212.53857 271.1906 212.03857 270.5031Q211.5542 269.8 210.8042 269.8Q210.08545 269.8 209.64795 270.40936Q209.10107 271.1906 209.10107 273.3156Z" fill-rule="nonzero"/><path fill="#000000" d="M273.05096 277.55L272.0041 277.55L272.0041 270.83124Q271.61346 271.1906 270.98846 271.5656Q270.3791 271.925 269.8947 272.09686L269.8947 271.08124Q270.7697 270.65936 271.42596 270.08124Q272.09784 269.4875 272.3791 268.925L273.05096 268.925L273.05096 277.55ZM276.0822 275.3L277.1916 275.20624Q277.3166 276.01874 277.7541 276.425Q278.2072 276.83124 278.84784 276.83124Q279.59784 276.83124 280.1291 276.2531Q280.66034 275.675 280.66034 274.7375Q280.66034 273.83124 280.1447 273.3156Q279.6447 272.78436 278.8166 272.78436Q278.3166 272.78436 277.8947 273.01874Q277.48846 273.2531 277.2541 273.6125L276.2697 273.4875L277.09784 269.08124L281.3791 269.08124L281.3791 270.08124L277.9416 270.08124L277.48846 272.39374Q278.2541 271.84686 279.09784 271.84686Q280.22284 271.84686 280.98846 272.6281Q281.7697 273.40936 281.7697 274.64374Q281.7697 275.8 281.09784 276.65936Q280.2697 277.6906 278.84784 277.6906Q277.67596 277.6906 276.92596 277.03436Q276.1916 276.3781 276.0822 275.3Z" fill-rule="nonzero"/><path fill="#000000" d="M342.68835 276.53436L342.68835 277.55L337.00085 277.55Q337.00085 277.175 337.12585 276.8156Q337.3446 276.2375 337.81335 275.675Q338.29773 275.1125 339.20398 274.3781Q340.61023 273.22186 341.0946 272.55Q341.5946 271.8781 341.5946 271.28436Q341.5946 270.65936 341.14148 270.2375Q340.68835 269.8 339.9696 269.8Q339.20398 269.8 338.75085 270.2531Q338.29773 270.70624 338.2821 271.51874L337.20398 271.40936Q337.31335 270.1906 338.0321 269.5656Q338.76648 268.925 340.00085 268.925Q341.23523 268.925 341.95398 269.6125Q342.67273 270.3 342.67273 271.3156Q342.67273 271.83124 342.45398 272.33124Q342.25085 272.8156 341.75085 273.3781Q341.26648 273.925 340.14148 274.8781Q339.18835 275.675 338.9071 275.97186Q338.64148 276.2531 338.4696 276.53436L342.68835 276.53436ZM344.14148 273.3156Q344.14148 271.78436 344.45398 270.8625Q344.76648 269.925 345.37585 269.425Q346.00085 268.925 346.93835 268.925Q347.62585 268.925 348.14148 269.20624Q348.67273 269.4875 349.01648 270.01874Q349.36023 270.53436 349.54773 271.28436Q349.73523 272.03436 349.73523 273.3156Q349.73523 274.83124 349.42273 275.7531Q349.12585 276.675 348.50085 277.1906Q347.89148 277.6906 346.93835 277.6906Q345.70398 277.6906 344.98523 276.8Q344.14148 275.7375 344.14148 273.3156ZM345.2196 273.3156Q345.2196 275.425 345.7196 276.1281Q346.2196 276.83124 346.93835 276.83124Q347.67273 276.83124 348.1571 276.1281Q348.6571 275.425 348.6571 273.3156Q348.6571 271.1906 348.1571 270.5031Q347.67273 269.8 346.92273 269.8Q346.20398 269.8 345.76648 270.40936Q345.2196 271.1906 345.2196 273.3156Z" fill-rule="nonzero"/><path fill="#000000" d="M410.74765 276.53436L410.74765 277.55L405.06015 277.55Q405.06015 277.175 405.18515 276.8156Q405.4039 276.2375 405.87265 275.675Q406.35703 275.1125 407.26328 274.3781Q408.66953 273.22186 409.1539 272.55Q409.6539 271.8781 409.6539 271.28436Q409.6539 270.65936 409.20078 270.2375Q408.74765 269.8 408.0289 269.8Q407.26328 269.8 406.81015 270.2531Q406.35703 270.70624 406.3414 271.51874L405.26328 271.40936Q405.37265 270.1906 406.0914 269.5656Q406.82578 268.925 408.06015 268.925Q409.29453 268.925 410.01328 269.6125Q410.73203 270.3 410.73203 271.3156Q410.73203 271.83124 410.51328 272.33124Q410.31015 272.8156 409.81015 273.3781Q409.32578 273.925 408.20078 274.8781Q407.24765 275.675 406.9664 275.97186Q406.70078 276.2531 406.5289 276.53436L410.74765 276.53436ZM412.20078 275.3L413.31015 275.20624Q413.43515 276.01874 413.87265 276.425Q414.32578 276.83124 414.9664 276.83124Q415.7164 276.83124 416.24765 276.2531Q416.7789 275.675 416.7789 274.7375Q416.7789 273.83124 416.26328 273.3156Q415.76328 272.78436 414.93515 272.78436Q414.43515 272.78436 414.01328 273.01874Q413.60703 273.2531 413.37265 273.6125L412.38828 273.4875L413.2164 269.08124L417.49765 269.08124L417.49765 270.08124L414.06015 270.08124L413.60703 272.39374Q414.37265 271.84686 415.2164 271.84686Q416.3414 271.84686 417.10703 272.6281Q417.88828 273.40936 417.88828 274.64374Q417.88828 275.8 417.2164 276.65936Q416.38828 277.6906 414.9664 277.6906Q413.79453 277.6906 413.04453 277.03436Q412.31015 276.3781 412.20078 275.3Z" fill-rule="nonzero"/><path fill="#000000" d="M473.26004 275.28436L474.32254 275.14374Q474.49442 276.03436 474.93192 276.4406Q475.36942 276.83124 475.99442 276.83124Q476.74442 276.83124 477.26004 276.3156Q477.77567 275.8 477.77567 275.03436Q477.77567 274.3156 477.2913 273.84686Q476.82254 273.3625 476.08817 273.3625Q475.7913 273.3625 475.33817 273.4875L475.46317 272.55Q475.57254 272.5656 475.63504 272.5656Q476.30692 272.5656 476.83817 272.22186Q477.38504 271.8625 477.38504 271.1281Q477.38504 270.55 476.99442 270.175Q476.6038 269.78436 475.9788 269.78436Q475.36942 269.78436 474.94754 270.175Q474.5413 270.5656 474.43192 271.33124L473.36942 271.14374Q473.55692 270.09686 474.24442 269.51874Q474.93192 268.925 475.94754 268.925Q476.65067 268.925 477.24442 269.2375Q477.83817 269.53436 478.15067 270.05Q478.46317 270.5656 478.46317 271.15936Q478.46317 271.70624 478.1663 272.175Q477.86942 272.6281 477.2913 272.89374Q478.0413 273.0656 478.46317 273.6281Q478.88504 274.175 478.88504 275.01874Q478.88504 276.14374 478.05692 276.925Q477.24442 277.70624 475.99442 277.70624Q474.86942 277.70624 474.11942 277.03436Q473.36942 276.34686 473.26004 275.28436ZM480.26004 273.3156Q480.26004 271.78436 480.57254 270.8625Q480.88504 269.925 481.49442 269.425Q482.11942 268.925 483.05692 268.925Q483.74442 268.925 484.26004 269.20624Q484.7913 269.4875 485.13504 270.01874Q485.4788 270.53436 485.6663 271.28436Q485.8538 272.03436 485.8538 273.3156Q485.8538 274.83124 485.5413 275.7531Q485.24442 276.675 484.61942 277.1906Q484.01004 277.6906 483.05692 277.6906Q481.82254 277.6906 481.1038 276.8Q480.26004 275.7375 480.26004 273.3156ZM481.33817 273.3156Q481.33817 275.425 481.83817 276.1281Q482.33817 276.83124 483.05692 276.83124Q483.7913 276.83124 484.27567 276.1281Q484.77567 275.425 484.77567 273.3156Q484.77567 271.1906 484.27567 270.5031Q483.7913 269.8 483.0413 269.8Q482.32254 269.8 481.88504 270.40936Q481.33817 271.1906 481.33817 273.3156Z" fill-rule="nonzero"/><path fill="#757575" d="M17.41875 28.48125Q17.41875 24.91875 19.325 22.903126Q21.246876 20.871876 24.278126 20.871876Q26.2625 20.871876 27.840626 21.825Q29.434376 22.778126 30.2625 24.48125Q31.10625 26.16875 31.10625 28.309376Q31.10625 30.48125 30.23125 32.2Q29.35625 33.91875 27.73125 34.809376Q26.121876 35.7 24.2625 35.7Q22.246876 35.7 20.653126 34.73125Q19.059376 33.746876 18.23125 32.059376Q17.41875 30.35625 17.41875 28.48125ZM19.371876 28.5125Q19.371876 31.090626 20.7625 32.590626Q22.153126 34.075 24.246876 34.075Q26.3875 34.075 27.7625 32.575Q29.153126 31.059376 29.153126 28.29375Q29.153126 26.559376 28.559376 25.2625Q27.98125 23.95 26.840626 23.23125Q25.7 22.5125 24.278126 22.5125Q22.278126 22.5125 20.825 23.903126Q19.371876 25.278126 19.371876 28.5125ZM33.7625 39.41875L33.7625 25.075L35.371876 25.075L35.371876 26.41875Q35.934376 25.6375 36.6375 25.246876Q37.35625 24.840626 38.371876 24.840626Q39.7 24.840626 40.715626 25.528126Q41.73125 26.215626 42.246876 27.465626Q42.778126 28.7 42.778126 30.184376Q42.778126 31.778126 42.2 33.059376Q41.6375 34.325 40.54375 35.0125Q39.45 35.684376 38.246876 35.684376Q37.371876 35.684376 36.66875 35.309376Q35.98125 34.934376 35.528126 34.371876L35.528126 39.41875L33.7625 39.41875ZM35.35625 30.325Q35.35625 32.325 36.16875 33.278126Q36.98125 34.23125 38.1375 34.23125Q39.309376 34.23125 40.1375 33.246876Q40.98125 32.2625 40.98125 30.16875Q40.98125 28.2 40.153126 27.215626Q39.340626 26.215626 38.215626 26.215626Q37.090626 26.215626 36.215626 27.278126Q35.35625 28.325 35.35625 30.325ZM51.871876 32.10625L53.684376 32.340626Q53.2625 33.91875 52.090626 34.809376Q50.934376 35.684376 49.121876 35.684376Q46.85625 35.684376 45.5125 34.29375Q44.184376 32.8875 44.184376 30.35625Q44.184376 27.73125 45.528126 26.29375Q46.871876 24.840626 49.028126 24.840626Q51.10625 24.840626 52.41875 26.2625Q53.746876 27.66875 53.746876 30.246876Q53.746876 30.403126 53.73125 30.715626L45.996876 30.715626Q46.090626 32.41875 46.965626 33.325Q47.840626 34.23125 49.1375 34.23125Q50.10625 34.23125 50.778126 33.73125Q51.465626 33.215626 51.871876 32.10625ZM46.090626 29.2625L51.8875 29.2625Q51.778126 27.965626 51.23125 27.309376Q50.3875 26.29375 49.04375 26.29375Q47.840626 26.29375 47.0125 27.10625Q46.184376 27.903126 46.090626 29.2625ZM55.7625 35.45L55.7625 25.075L57.35625 25.075L57.35625 26.559376Q58.496876 24.840626 60.653126 24.840626Q61.590626 24.840626 62.371876 25.184376Q63.16875 25.5125 63.559376 26.059376Q63.95 26.60625 64.10625 27.35625Q64.2 27.85625 64.2 29.075L64.2 35.45L62.434376 35.45L62.434376 29.1375Q62.434376 28.059376 62.23125 27.528126Q62.028126 26.996876 61.496876 26.684376Q60.98125 26.371876 60.278126 26.371876Q59.153126 26.371876 58.340626 27.090626Q57.528126 27.79375 57.528126 29.778126L57.528126 35.45L55.7625 35.45ZM65.93437 35.45L65.93437 21.1375L68.79375 21.1375L72.16875 31.2625Q72.6375 32.684376 72.85625 33.3875Q73.10625 32.60625 73.62187 31.090626L77.04375 21.1375L79.59062 21.1375L79.59062 35.45L77.77812 35.45L77.77812 23.465626L73.60625 35.45L71.90312 35.45L67.7625 23.2625L67.7625 35.45L65.93437 35.45ZM82.99687 35.45L82.99687 21.1375L88.3875 21.1375Q89.825 21.1375 90.575 21.2625Q91.62187 21.45 92.34062 21.95Q93.05937 22.434376 93.48125 23.325Q93.91875 24.215626 93.91875 25.278126Q93.91875 27.10625 92.74687 28.371876Q91.59062 29.621876 88.55937 29.621876L84.8875 29.621876L84.8875 35.45L82.99687 35.45ZM84.8875 27.934376L88.59062 27.934376Q90.41875 27.934376 91.18437 27.2625Q91.96562 26.575 91.96562 25.325Q91.96562 24.434376 91.5125 23.79375Q91.05937 23.153126 90.325 22.95Q89.84062 22.825 88.54375 22.825L84.8875 22.825L84.8875 27.934376ZM102.30937 35.45L102.30937 21.1375L104.21562 21.1375L104.21562 35.45L102.30937 35.45ZM107.7625 35.45L107.7625 25.075L109.35625 25.075L109.35625 26.559376Q110.49687 24.840626 112.65312 24.840626Q113.59062 24.840626 114.37187 25.184376Q115.16875 25.5125 115.55937 26.059376Q115.95 26.60625 116.10625 27.35625Q116.2 27.85625 116.2 29.075L116.2 35.45L114.43437 35.45L114.43437 29.1375Q114.43437 28.059376 114.23125 27.528126Q114.02812 26.996876 113.49687 26.684376Q112.98125 26.371876 112.27812 26.371876Q111.15312 26.371876 110.34062 27.090626Q109.52812 27.79375 109.52812 29.778126L109.52812 35.45L107.7625 35.45ZM118.18437 35.45L118.18437 26.45L116.6375 26.45L116.6375 25.075L118.18437 25.075L118.18437 23.98125Q118.18437 22.934376 118.37187 22.41875Q118.62187 21.73125 119.2625 21.309376Q119.90312 20.8875 121.05937 20.8875Q121.80937 20.8875 122.7 21.059376L122.43437 22.590626Q121.8875 22.496876 121.40312 22.496876Q120.60625 22.496876 120.2625 22.840626Q119.93437 23.184376 119.93437 24.121876L119.93437 25.075L121.96562 25.075L121.96562 26.45L119.93437 26.45L119.93437 35.45L118.18437 35.45ZM130.87187 32.10625L132.68437 32.340626Q132.2625 33.91875 131.09062 34.809376Q129.93437 35.684376 128.12187 35.684376Q125.85625 35.684376 124.5125 34.29375Q123.18437 32.8875 123.18437 30.35625Q123.18437 27.73125 124.52812 26.29375Q125.87187 24.840626 128.02812 24.840626Q130.10625 24.840626 131.41875 26.2625Q132.74687 27.66875 132.74687 30.246876Q132.74687 30.403126 132.73125 30.715626L124.99687 30.715626Q125.09062 32.41875 125.96562 33.325Q126.84062 34.23125 128.1375 34.23125Q129.10625 34.23125 129.77812 33.73125Q130.46562 33.215626 130.87187 32.10625ZM125.09062 29.2625L130.8875 29.2625Q130.77812 27.965626 130.23125 27.309376Q129.3875 26.29375 128.04375 26.29375Q126.84062 26.29375 126.0125 27.10625Q125.18437 27.903126 125.09062 29.2625ZM134.74687 35.45L134.74687 25.075L136.325 25.075L136.325 26.653126Q136.93437 25.54375 137.45 25.2Q137.96562 24.840626 138.575 24.840626Q139.46562 24.840626 140.3875 25.403126L139.77812 27.04375Q139.1375 26.653126 138.49687 26.653126Q137.91875 26.653126 137.45 27.0125Q136.99687 27.35625 136.79375 27.965626Q136.5125 28.903126 136.5125 30.0125L136.5125 35.45L134.74687 35.45ZM148.87187 32.10625L150.68437 32.340626Q150.2625 33.91875 149.09062 34.809376Q147.93437 35.684376 146.12187 35.684376Q143.85625 35.684376 142.5125 34.29375Q141.18437 32.8875 141.18437 30.35625Q141.18437 27.73125 142.52812 26.29375Q143.87187 24.840626 146.02812 24.840626Q148.10625 24.840626 149.41875 26.2625Q150.74687 27.66875 150.74687 30.246876Q150.74687 30.403126 150.73125 30.715626L142.99687 30.715626Q143.09062 32.41875 143.96562 33.325Q144.84062 34.23125 146.1375 34.23125Q147.10625 34.23125 147.77812 33.73125Q148.46562 33.215626 148.87187 32.10625ZM143.09062 29.2625L148.8875 29.2625Q148.77812 27.965626 148.23125 27.309376Q147.3875 26.29375 146.04375 26.29375Q144.84062 26.29375 144.0125 27.10625Q143.18437 27.903126 143.09062 29.2625ZM152.7625 35.45L152.7625 25.075L154.35625 25.075L154.35625 26.559376Q155.49687 24.840626 157.65312 24.840626Q158.59062 24.840626 159.37187 25.184376Q160.16875 25.5125 160.55937 26.059376Q160.95 26.60625 161.10625 27.35625Q161.2 27.85625 161.2 29.075L161.2 35.45L159.43437 35.45L159.43437 29.1375Q159.43437 28.059376 159.23125 27.528126Q159.02812 26.996876 158.49687 26.684376Q157.98125 26.371876 157.27812 26.371876Q156.15312 26.371876 155.34062 27.090626Q154.52812 27.79375 154.52812 29.778126L154.52812 35.45L152.7625 35.45ZM169.54375 31.653126L171.2625 31.871876Q170.98125 33.66875 169.80937 34.684376Q168.65312 35.684376 166.95 35.684376Q164.825 35.684376 163.52812 34.29375Q162.23125 32.903126 162.23125 30.309376Q162.23125 28.621876 162.77812 27.371876Q163.34062 26.10625 164.48125 25.48125Q165.62187 24.840626 166.96562 24.840626Q168.65312 24.840626 169.71562 25.7Q170.79375 26.559376 171.10625 28.121876L169.3875 28.3875Q169.15312 27.340626 168.52812 26.825Q167.90312 26.29375 167.02812 26.29375Q165.7 26.29375 164.87187 27.246876Q164.04375 28.2 164.04375 30.246876Q164.04375 32.340626 164.84062 33.29375Q165.6375 34.23125 166.93437 34.23125Q167.96562 34.23125 168.65312 33.60625Q169.35625 32.965626 169.54375 31.653126ZM179.87187 32.10625L181.68437 32.340626Q181.2625 33.91875 180.09062 34.809376Q178.93437 35.684376 177.12187 35.684376Q174.85625 35.684376 173.5125 34.29375Q172.18437 32.8875 172.18437 30.35625Q172.18437 27.73125 173.52812 26.29375Q174.87187 24.840626 177.02812 24.840626Q179.10625 24.840626 180.41875 26.2625Q181.74687 27.66875 181.74687 30.246876Q181.74687 30.403126 181.73125 30.715626L173.99687 30.715626Q174.09062 32.41875 174.96562 33.325Q175.84062 34.23125 177.1375 34.23125Q178.10625 34.23125 178.77812 33.73125Q179.46562 33.215626 179.87187 32.10625ZM174.09062 29.2625L179.8875 29.2625Q179.77812 27.965626 179.23125 27.309376Q178.3875 26.29375 177.04375 26.29375Q175.84062 26.29375 175.0125 27.10625Q174.18437 27.903126 174.09062 29.2625ZM193.6375 35.45L193.6375 22.825L188.91875 22.825L188.91875 21.1375L200.2625 21.1375L200.2625 22.825L195.52812 22.825L195.52812 35.45L193.6375 35.45ZM201.77812 23.153126L201.77812 21.1375L203.54375 21.1375L203.54375 23.153126L201.77812 23.153126ZM201.77812 35.45L201.77812 25.075L203.54375 25.075L203.54375 35.45L201.77812 35.45ZM205.7625 35.45L205.7625 25.075L207.34062 25.075L207.34062 26.528126Q207.825 25.778126 208.6375 25.309376Q209.45 24.840626 210.48125 24.840626Q211.6375 24.840626 212.37187 25.325Q213.10625 25.79375 213.41875 26.653126Q214.65312 24.840626 216.62187 24.840626Q218.16875 24.840626 218.99687 25.7Q219.825 26.559376 219.825 28.325L219.825 35.45L218.075 35.45L218.075 28.91875Q218.075 27.85625 217.90312 27.403126Q217.73125 26.934376 217.27812 26.653126Q216.84062 26.371876 216.23125 26.371876Q215.1375 26.371876 214.40312 27.10625Q213.68437 27.825 213.68437 29.41875L213.68437 35.45L211.93437 35.45L211.93437 28.715626Q211.93437 27.54375 211.49687 26.965626Q211.075 26.371876 210.09062 26.371876Q209.35625 26.371876 208.71562 26.7625Q208.09062 27.153126 207.80937 27.903126Q207.52812 28.653126 207.52812 30.075L207.52812 35.45L205.7625 35.45ZM228.87187 32.10625L230.68437 32.340626Q230.2625 33.91875 229.09062 34.809376Q227.93437 35.684376 226.12187 35.684376Q223.85625 35.684376 222.5125 34.29375Q221.18437 32.8875 221.18437 30.35625Q221.18437 27.73125 222.52812 26.29375Q223.87187 24.840626 226.02812 24.840626Q228.10625 24.840626 229.41875 26.2625Q230.74687 27.66875 230.74687 30.246876Q230.74687 30.403126 230.73125 30.715626L222.99687 30.715626Q223.09062 32.41875 223.96562 33.325Q224.84062 34.23125 226.1375 34.23125Q227.10625 34.23125 227.77812 33.73125Q228.46562 33.215626 228.87187 32.10625ZM223.09062 29.2625L228.8875 29.2625Q228.77812 27.965626 228.23125 27.309376Q227.3875 26.29375 226.04375 26.29375Q224.84062 26.29375 224.0125 27.10625Q223.18437 27.903126 223.09062 29.2625Z" fill-rule="nonzero"/></svg>