<svg version="1.1" viewBox="0.0 0.0 589.0 368.0" fill="none" stroke="none" stroke-linecap="square" stroke-miterlimit="10" width="589" height="368" xmlns:xlink="http://www.w3.org/1999/xlink" xmlns="http://www.w3.org/2000/svg"><path fill="#ffffff" d="M0 0L589.0 0L589.0 368.0L0 368.0L0 0Z" fill-rule="nonzero"/><path stroke="#cccccc" stroke-width="1.0" stroke-linecap="butt" d="M141.5 87.5L141.5 297.5" fill-rule="nonzero"/><path stroke="#cccccc" stroke-width="1.0" stroke-linecap="butt" d="M220.5 87.5L220.5 297.5" fill-rule="nonzero"/><path stroke="#cccccc" stroke-width="1.0" stroke-linecap="butt" d="M300.5 87.5L300.5 297.5" fill-rule="nonzero"/><path stroke="#cccccc" stroke-width="1.0" stroke-linecap="butt" d="M379.5 87.5L379.5 297.5" fill-rule="nonzero"/><path stroke="#cccccc" stroke-width="1.0" stroke-linecap="butt" d="M459.5 87.5L459.5 297.5" fill-rule="nonzero"/><path stroke="#cccccc" stroke-width="1.0" stroke-linecap="butt" d="M538.5 87.5L538.5 297.5" fill-rule="nonzero"/><path stroke="#333333" stroke-width="1.0" stroke-linecap="butt" d="M77.5 297.5L570.5 297.5" fill-rule="nonzero"/><path stroke="#cccccc" stroke-width="1.0" stroke-linecap="butt" d="M77.5 255.5L570.5 255.5" fill-rule="nonzero"/><path stroke="#cccccc" stroke-width="1.0" stroke-linecap="butt" d="M77.5 213.5L570.5 213.5" fill-rule="nonzero"/><path stroke="#cccccc" stroke-width="1.0" stroke-linecap="butt" d="M77.5 171.5L570.5 171.5" fill-rule="nonzero"/><path stroke="#cccccc" stroke-width="1.0" stroke-linecap="butt" d="M77.5 129.5L570.5 129.5" fill-rule="nonzero"/><path stroke="#cccccc" stroke-width="1.0" stroke-linecap="butt" d="M77.5 87.5L570.5 87.5" fill-rule="nonzero"/><clipPath id="id_0"><path d="M77.4 87.933334L570.6 87.933334L570.6 297.6L77.4 297.6L77.4 87.933334Z" clip-rule="nonzero"/></clipPath><path stroke="#4285f4" stroke-width="2.0" stroke-linecap="butt" clip-path="url(#id_0)" d="M77.4 276.63333L93.30968 259.96683L125.129036 232.9722L156.94838 217.43877L188.76775 202.8994L252.40645 202.98888L316.04517 204.38435L379.68387 210.78792L506.9613 212.32768L570.6 216.56584" fill-rule="nonzero"/><path stroke="#ea4335" stroke-width="2.0" stroke-linecap="butt" clip-path="url(#id_0)" d="M77.4 276.63333L93.30968 258.15146L125.129036 225.53983L156.94838 198.54372L188.76775 181.72052L252.40645 152.18077L316.04517 135.82422L379.68387 142.82323L506.9613 136.9577L570.6 143.91405" fill-rule="nonzero"/><path stroke="#fbbc04" stroke-width="2.0" stroke-linecap="butt" clip-path="url(#id_0)" d="M77.4 276.63333L93.30968 259.35815L125.129036 224.69814L156.94838 198.00804L188.76775 181.37866L252.40645 135.90987L316.04517 119.9198L379.68387 132.05096L506.9613 120.83728L570.6 122.87501" fill-rule="nonzero"/><path stroke="#34a853" stroke-width="2.0" stroke-linecap="butt" clip-path="url(#id_0)" d="M77.4 276.63333L93.30968 259.56848L125.129036 230.65685L156.94838 203.9746L188.76775 178.66405L252.40645 139.21635L316.04517 113.23459L379.68387 127.205605L506.9613 116.687256L570.6 116.687256" fill-rule="nonzero"/><path fill="#000000" fill-opacity="0.0" clip-path="url(#id_0)" d="M80.4 276.63333C80.4 278.2902 79.056854 279.63333 77.4 279.63333C75.74315 279.63333 74.4 278.2902 74.4 276.63333C74.4 274.97647 75.74315 273.63333 77.4 273.63333C79.056854 273.63333 80.4 274.97647 80.4 276.63333Z" fill-rule="nonzero"/><path fill="#000000" fill-opacity="0.0" clip-path="url(#id_0)" d="M96.30968 259.96683C96.30968 261.6237 94.96653 262.96683 93.30968 262.96683C91.652824 262.96683 90.30968 261.6237 90.30968 259.96683C90.30968 258.31 91.652824 256.96683 93.30968 256.96683C94.96653 256.96683 96.30968 258.31 96.30968 259.96683Z" fill-rule="nonzero"/><path fill="#000000" fill-opacity="0.0" clip-path="url(#id_0)" d="M128.12903 232.9722C128.12903 234.62906 126.78589 235.9722 125.129036 235.9722C123.472176 235.9722 122.129036 234.62906 122.129036 232.9722C122.129036 231.31534 123.472176 229.9722 125.129036 229.9722C126.78589 229.9722 128.12903 231.31534 128.12903 232.9722Z" fill-rule="nonzero"/><path fill="#000000" fill-opacity="0.0" clip-path="url(#id_0)" d="M159.94838 217.43877C159.94838 219.09563 158.60524 220.43877 156.94838 220.43877C155.29153 220.43877 153.94838 219.09563 153.94838 217.43877C153.94838 215.78192 155.29153 214.43877 156.94838 214.43877C158.60524 214.43877 159.94838 215.78192 159.94838 217.43877Z" fill-rule="nonzero"/><path fill="#000000" fill-opacity="0.0" clip-path="url(#id_0)" d="M191.76775 202.8994C191.76775 204.55624 190.42459 205.8994 188.76775 205.8994C187.11089 205.8994 185.76775 204.55624 185.76775 202.8994C185.76775 201.24254 187.11089 199.8994 188.76775 199.8994C190.42459 199.8994 191.76775 201.24254 191.76775 202.8994Z" fill-rule="nonzero"/><path fill="#000000" fill-opacity="0.0" clip-path="url(#id_0)" d="M255.40645 202.98888C255.40645 204.64574 254.06331 205.98888 252.40645 205.98888C250.7496 205.98888 249.40645 204.64574 249.40645 202.98888C249.40645 201.33203 250.7496 199.98888 252.40645 199.98888C254.06331 199.98888 255.40645 201.33203 255.40645 202.98888Z" fill-rule="nonzero"/><path fill="#000000" fill-opacity="0.0" clip-path="url(#id_0)" d="M319.04517 204.38435C319.04517 206.04121 317.70203 207.38435 316.04517 207.38435C314.3883 207.38435 313.04517 206.04121 313.04517 204.38435C313.04517 202.7275 314.3883 201.38435 316.04517 201.38435C317.70203 201.38435 319.04517 202.7275 319.04517 204.38435Z" fill-rule="nonzero"/><path fill="#000000" fill-opacity="0.0" clip-path="url(#id_0)" d="M382.68387 210.78792C382.68387 212.44478 381.34073 213.78792 379.68387 213.78792C378.027 213.78792 376.68387 212.44478 376.68387 210.78792C376.68387 209.13107 378.027 207.78792 379.68387 207.78792C381.34073 207.78792 382.68387 209.13107 382.68387 210.78792Z" fill-rule="nonzero"/><path fill="#000000" fill-opacity="0.0" clip-path="url(#id_0)" d="M509.9613 212.32768C509.9613 213.98453 508.61813 215.32768 506.9613 215.32768C505.30444 215.32768 503.9613 213.98453 503.9613 212.32768C503.9613 210.67082 505.30444 209.32768 506.9613 209.32768C508.61813 209.32768 509.9613 210.67082 509.9613 212.32768Z" fill-rule="nonzero"/><path fill="#000000" fill-opacity="0.0" clip-path="url(#id_0)" d="M573.6 216.56584C573.6 218.22269 572.25684 219.56584 570.6 219.56584C568.9431 219.56584 567.6 218.22269 567.6 216.56584C567.6 214.90898 568.9431 213.56584 570.6 213.56584C572.25684 213.56584 573.6 214.90898 573.6 216.56584Z" fill-rule="nonzero"/><path fill="#000000" fill-opacity="0.0" clip-path="url(#id_0)" d="M80.4 276.63333C80.4 278.2902 79.056854 279.63333 77.4 279.63333C75.74315 279.63333 74.4 278.2902 74.4 276.63333C74.4 274.97647 75.74315 273.63333 77.4 273.63333C79.056854 273.63333 80.4 274.97647 80.4 276.63333Z" fill-rule="nonzero"/><path fill="#000000" fill-opacity="0.0" clip-path="url(#id_0)" d="M96.30968 258.15146C96.30968 259.80832 94.96653 261.15146 93.30968 261.15146C91.652824 261.15146 90.30968 259.80832 90.30968 258.15146C90.30968 256.49463 91.652824 255.15147 93.30968 255.15147C94.96653 255.15147 96.30968 256.49463 96.30968 258.15146Z" fill-rule="nonzero"/><path fill="#000000" fill-opacity="0.0" clip-path="url(#id_0)" d="M128.12903 225.53983C128.12903 227.19669 126.78589 228.53983 125.129036 228.53983C123.472176 228.53983 122.129036 227.19669 122.129036 225.53983C122.129036 223.88297 123.472176 222.53983 125.129036 222.53983C126.78589 222.53983 128.12903 223.88297 128.12903 225.53983Z" fill-rule="nonzero"/><path fill="#000000" fill-opacity="0.0" clip-path="url(#id_0)" d="M159.94838 198.54372C159.94838 200.20058 158.60524 201.54372 156.94838 201.54372C155.29153 201.54372 153.94838 200.20058 153.94838 198.54372C153.94838 196.88687 155.29153 195.54372 156.94838 195.54372C158.60524 195.54372 159.94838 196.88687 159.94838 198.54372Z" fill-rule="nonzero"/><path fill="#000000" fill-opacity="0.0" clip-path="url(#id_0)" d="M191.76775 181.72052C191.76775 183.37738 190.42459 184.72052 188.76775 184.72052C187.11089 184.72052 185.76775 183.37738 185.76775 181.72052C185.76775 180.06367 187.11089 178.72052 188.76775 178.72052C190.42459 178.72052 191.76775 180.06367 191.76775 181.72052Z" fill-rule="nonzero"/><path fill="#000000" fill-opacity="0.0" clip-path="url(#id_0)" d="M255.40645 152.18077C255.40645 153.83762 254.06331 155.18077 252.40645 155.18077C250.7496 155.18077 249.40645 153.83762 249.40645 152.18077C249.40645 150.52391 250.7496 149.18077 252.40645 149.18077C254.06331 149.18077 255.40645 150.52391 255.40645 152.18077Z" fill-rule="nonzero"/><path fill="#000000" fill-opacity="0.0" clip-path="url(#id_0)" d="M319.04517 135.82422C319.04517 137.48108 317.70203 138.82422 316.04517 138.82422C314.3883 138.82422 313.04517 137.48108 313.04517 135.82422C313.04517 134.16736 314.3883 132.82422 316.04517 132.82422C317.70203 132.82422 319.04517 134.16736 319.04517 135.82422Z" fill-rule="nonzero"/><path fill="#000000" fill-opacity="0.0" clip-path="url(#id_0)" d="M382.68387 142.82323C382.68387 144.48007 381.34073 145.82323 379.68387 145.82323C378.027 145.82323 376.68387 144.48007 376.68387 142.82323C376.68387 141.16637 378.027 139.82323 379.68387 139.82323C381.34073 139.82323 382.68387 141.16637 382.68387 142.82323Z" fill-rule="nonzero"/><path fill="#000000" fill-opacity="0.0" clip-path="url(#id_0)" d="M509.9613 136.9577C509.9613 138.61456 508.61813 139.9577 506.9613 139.9577C505.30444 139.9577 503.9613 138.61456 503.9613 136.9577C503.9613 135.30086 505.30444 133.9577 506.9613 133.9577C508.61813 133.9577 509.9613 135.30086 509.9613 136.9577Z" fill-rule="nonzero"/><path fill="#000000" fill-opacity="0.0" clip-path="url(#id_0)" d="M573.6 143.91405C573.6 145.5709 572.25684 146.91405 570.6 146.91405C568.9431 146.91405 567.6 145.5709 567.6 143.91405C567.6 142.2572 568.9431 140.91405 570.6 140.91405C572.25684 140.91405 573.6 142.2572 573.6 143.91405Z" fill-rule="nonzero"/><path fill="#000000" fill-opacity="0.0" clip-path="url(#id_0)" d="M80.4 276.63333C80.4 278.2902 79.056854 279.63333 77.4 279.63333C75.74315 279.63333 74.4 278.2902 74.4 276.63333C74.4 274.97647 75.74315 273.63333 77.4 273.63333C79.056854 273.63333 80.4 274.97647 80.4 276.63333Z" fill-rule="nonzero"/><path fill="#000000" fill-opacity="0.0" clip-path="url(#id_0)" d="M96.30968 259.35815C96.30968 261.015 94.96653 262.35815 93.30968 262.35815C91.652824 262.35815 90.30968 261.015 90.30968 259.35815C90.30968 257.7013 91.652824 256.35815 93.30968 256.35815C94.96653 256.35815 96.30968 257.7013 96.30968 259.35815Z" fill-rule="nonzero"/><path fill="#000000" fill-opacity="0.0" clip-path="url(#id_0)" d="M128.12903 224.69814C128.12903 226.35498 126.78589 227.69814 125.129036 227.69814C123.472176 227.69814 122.129036 226.35498 122.129036 224.69814C122.129036 223.04128 123.472176 221.69814 125.129036 221.69814C126.78589 221.69814 128.12903 223.04128 128.12903 224.69814Z" fill-rule="nonzero"/><path fill="#000000" fill-opacity="0.0" clip-path="url(#id_0)" d="M159.94838 198.00804C159.94838 199.66489 158.60524 201.00804 156.94838 201.00804C155.29153 201.00804 153.94838 199.66489 153.94838 198.00804C153.94838 196.35118 155.29153 195.00804 156.94838 195.00804C158.60524 195.00804 159.94838 196.35118 159.94838 198.00804Z" fill-rule="nonzero"/><path fill="#000000" fill-opacity="0.0" clip-path="url(#id_0)" d="M191.76775 181.37866C191.76775 183.0355 190.42459 184.37866 188.76775 184.37866C187.11089 184.37866 185.76775 183.0355 185.76775 181.37866C185.76775 179.7218 187.11089 178.37866 188.76775 178.37866C190.42459 178.37866 191.76775 179.7218 191.76775 181.37866Z" fill-rule="nonzero"/><path fill="#000000" fill-opacity="0.0" clip-path="url(#id_0)" d="M255.40645 135.90987C255.40645 137.56671 254.06331 138.90987 252.40645 138.90987C250.7496 138.90987 249.40645 137.56671 249.40645 135.90987C249.40645 134.253 250.7496 132.90987 252.40645 132.90987C254.06331 132.90987 255.40645 134.253 255.40645 135.90987Z" fill-rule="nonzero"/><path fill="#000000" fill-opacity="0.0" clip-path="url(#id_0)" d="M319.04517 119.9198C319.04517 121.57665 317.70203 122.9198 316.04517 122.9198C314.3883 122.9198 313.04517 121.57665 313.04517 119.9198C313.04517 118.26295 314.3883 116.9198 316.04517 116.9198C317.70203 116.9198 319.04517 118.26295 319.04517 119.9198Z" fill-rule="nonzero"/><path fill="#000000" fill-opacity="0.0" clip-path="url(#id_0)" d="M382.68387 132.05096C382.68387 133.70781 381.34073 135.05096 379.68387 135.05096C378.027 135.05096 376.68387 133.70781 376.68387 132.05096C376.68387 130.3941 378.027 129.05096 379.68387 129.05096C381.34073 129.05096 382.68387 130.3941 382.68387 132.05096Z" fill-rule="nonzero"/><path fill="#000000" fill-opacity="0.0" clip-path="url(#id_0)" d="M509.9613 120.83728C509.9613 122.49413 508.61813 123.83728 506.9613 123.83728C505.30444 123.83728 503.9613 122.49413 503.9613 120.83728C503.9613 119.18042 505.30444 117.83728 506.9613 117.83728C508.61813 117.83728 509.9613 119.18042 509.9613 120.83728Z" fill-rule="nonzero"/><path fill="#000000" fill-opacity="0.0" clip-path="url(#id_0)" d="M573.6 122.87501C573.6 124.53186 572.25684 125.87501 570.6 125.87501C568.9431 125.87501 567.6 124.53186 567.6 122.87501C567.6 121.218155 568.9431 119.87501 570.6 119.87501C572.25684 119.87501 573.6 121.218155 573.6 122.87501Z" fill-rule="nonzero"/><path fill="#000000" fill-opacity="0.0" clip-path="url(#id_0)" d="M80.4 276.63333C80.4 278.2902 79.056854 279.63333 77.4 279.63333C75.74315 279.63333 74.4 278.2902 74.4 276.63333C74.4 274.97647 75.74315 273.63333 77.4 273.63333C79.056854 273.63333 80.4 274.97647 80.4 276.63333Z" fill-rule="nonzero"/><path fill="#000000" fill-opacity="0.0" clip-path="url(#id_0)" d="M96.30968 259.56848C96.30968 261.22534 94.96653 262.56848 93.30968 262.56848C91.652824 262.56848 90.30968 261.22534 90.30968 259.56848C90.30968 257.91165 91.652824 256.56848 93.30968 256.56848C94.96653 256.56848 96.30968 257.91165 96.30968 259.56848Z" fill-rule="nonzero"/><path fill="#000000" fill-opacity="0.0" clip-path="url(#id_0)" d="M128.12903 230.65685C128.12903 232.31369 126.78589 233.65685 125.129036 233.65685C123.472176 233.65685 122.129036 232.31369 122.129036 230.65685C122.129036 228.99998 123.472176 227.65685 125.129036 227.65685C126.78589 227.65685 128.12903 228.99998 128.12903 230.65685Z" fill-rule="nonzero"/><path fill="#000000" fill-opacity="0.0" clip-path="url(#id_0)" d="M159.94838 203.9746C159.94838 205.63145 158.60524 206.9746 156.94838 206.9746C155.29153 206.9746 153.94838 205.63145 153.94838 203.9746C153.94838 202.31775 155.29153 200.9746 156.94838 200.9746C158.60524 200.9746 159.94838 202.31775 159.94838 203.9746Z" fill-rule="nonzero"/><path fill="#000000" fill-opacity="0.0" clip-path="url(#id_0)" d="M191.76775 178.66405C191.76775 180.3209 190.42459 181.66405 188.76775 181.66405C187.11089 181.66405 185.76775 180.3209 185.76775 178.66405C185.76775 177.00719 187.11089 175.66405 188.76775 175.66405C190.42459 175.66405 191.76775 177.00719 191.76775 178.66405Z" fill-rule="nonzero"/><path fill="#000000" fill-opacity="0.0" clip-path="url(#id_0)" d="M255.40645 139.21635C255.40645 140.8732 254.06331 142.21635 252.40645 142.21635C250.7496 142.21635 249.40645 140.8732 249.40645 139.21635C249.40645 137.5595 250.7496 136.21635 252.40645 136.21635C254.06331 136.21635 255.40645 137.5595 255.40645 139.21635Z" fill-rule="nonzero"/><path fill="#000000" fill-opacity="0.0" clip-path="url(#id_0)" d="M319.04517 113.23459C319.04517 114.89144 317.70203 116.23459 316.04517 116.23459C314.3883 116.23459 313.04517 114.89144 313.04517 113.23459C313.04517 111.57773 314.3883 110.23459 316.04517 110.23459C317.70203 110.23459 319.04517 111.57773 319.04517 113.23459Z" fill-rule="nonzero"/><path fill="#000000" fill-opacity="0.0" clip-path="url(#id_0)" d="M382.68387 127.205605C382.68387 128.86246 381.34073 130.2056 379.68387 130.2056C378.027 130.2056 376.68387 128.86246 376.68387 127.205605C376.68387 125.548744 378.027 124.205605 379.68387 124.205605C381.34073 124.205605 382.68387 125.548744 382.68387 127.205605Z" fill-rule="nonzero"/><path fill="#000000" fill-opacity="0.0" clip-path="url(#id_0)" d="M509.9613 116.687256C509.9613 118.34411 508.61813 119.687256 506.9613 119.687256C505.30444 119.687256 503.9613 118.34411 503.9613 116.687256C503.9613 115.0304 505.30444 113.687256 506.9613 113.687256C508.61813 113.687256 509.9613 115.0304 509.9613 116.687256Z" fill-rule="nonzero"/><path fill="#000000" fill-opacity="0.0" clip-path="url(#id_0)" d="M573.6 116.687256C573.6 118.34411 572.25684 119.687256 570.6 119.687256C568.9431 119.687256 567.6 118.34411 567.6 116.687256C567.6 115.0304 568.9431 113.687256 570.6 113.687256C572.25684 113.687256 573.6 115.0304 573.6 116.687256Z" fill-rule="nonzero"/><path fill="#000000" d="M292.10938 346.74063L292.60938 344.25626L291.625 344.25626L291.625 343.38126L292.79688 343.38126L293.21875 341.25626L291.625 341.25626L291.625 340.38126L293.40625 340.38126L293.90625 337.86563L294.78125 337.86563L294.28125 340.38126L296.125 340.38126L296.64062 337.86563L297.51562 337.86563L297.01562 340.38126L298.01562 340.38126L298.01562 341.25626L296.82812 341.25626L296.39062 343.38126L298.01562 343.38126L298.01562 344.25626L296.21875 344.25626L295.70312 346.74063L294.82812 346.74063L295.32812 344.25626L293.5 344.25626L292.98438 346.74063L292.10938 346.74063ZM293.67188 343.38126L295.51562 343.38126L295.95312 341.25626L294.10938 341.25626L293.67188 343.38126ZM301.90625 343.49063Q301.90625 341.75626 302.85938 340.92813Q303.65625 340.24063 304.8125 340.24063Q306.09375 340.24063 306.90625 341.08438Q307.73438 341.9125 307.73438 343.39688Q307.73438 344.6 307.375 345.2875Q307.01562 345.975 306.3125 346.36563Q305.625 346.74063 304.8125 346.74063Q303.51562 346.74063 302.70312 345.9125Q301.90625 345.06876 301.90625 343.49063ZM302.98438 343.49063Q302.98438 344.67813 303.5 345.27188Q304.03125 345.86563 304.8125 345.86563Q305.60938 345.86563 306.125 345.27188Q306.64062 344.67813 306.64062 343.45938Q306.64062 342.30313 306.10938 341.70938Q305.59375 341.11563 304.8125 341.11563Q304.03125 341.11563 303.5 341.70938Q302.98438 342.2875 302.98438 343.49063ZM309.54688 346.6L309.54688 341.19376L308.60938 341.19376L308.60938 340.38126L309.54688 340.38126L309.54688 339.70938Q309.54688 339.08438 309.65625 338.7875Q309.8125 338.36563 310.1875 338.11563Q310.57812 337.86563 311.26562 337.86563Q311.71875 337.86563 312.25 337.975L312.09375 338.88126Q311.76562 338.83438 311.46875 338.83438Q310.98438 338.83438 310.78125 339.0375Q310.59375 339.24063 310.59375 339.80313L310.59375 340.38126L311.8125 340.38126L311.8125 341.19376L310.59375 341.19376L310.59375 346.6L309.54688 346.6ZM317.59375 345.6625L317.75 346.58438Q317.29688 346.67813 316.95312 346.67813Q316.375 346.67813 316.0625 346.50626Q315.75 346.31876 315.60938 346.02188Q315.48438 345.725 315.48438 344.77188L315.48438 341.19376L314.71875 341.19376L314.71875 340.38126L315.48438 340.38126L315.48438 338.83438L316.53125 338.20938L316.53125 340.38126L317.59375 340.38126L317.59375 341.19376L316.53125 341.19376L316.53125 344.83438Q316.53125 345.2875 316.57812 345.4125Q316.64062 345.5375 316.76562 345.61563Q316.89062 345.69376 317.125 345.69376Q317.3125 345.69376 317.59375 345.6625ZM318.29688 346.6L318.29688 338.00626L319.34375 338.00626L319.34375 341.08438Q320.07812 340.24063 321.20312 340.24063Q321.90625 340.24063 322.40625 340.52188Q322.92188 340.7875 323.14062 341.27188Q323.35938 341.74063 323.35938 342.6625L323.35938 346.6L322.3125 346.6L322.3125 342.6625Q322.3125 341.86563 321.96875 341.50626Q321.625 341.14688 321.0 341.14688Q320.53125 341.14688 320.10938 341.39688Q319.70312 341.63126 319.51562 342.05313Q319.34375 342.45938 319.34375 343.19376L319.34375 346.6L318.29688 346.6ZM325.28125 346.6L325.28125 340.38126L326.23438 340.38126L326.23438 341.31876Q326.59375 340.6625 326.89062 340.45938Q327.20312 340.24063 327.57812 340.24063Q328.10938 340.24063 328.65625 340.56876L328.29688 341.55313Q327.90625 341.31876 327.53125 341.31876Q327.17188 341.31876 326.89062 341.5375Q326.625 341.74063 326.51562 342.11563Q326.32812 342.67813 326.32812 343.33438L326.32812 346.6L325.28125 346.6ZM333.54688 344.6L334.64062 344.725Q334.39062 345.67813 333.6875 346.20938Q332.98438 346.74063 331.90625 346.74063Q330.54688 346.74063 329.73438 345.89688Q328.9375 345.05313 328.9375 343.5375Q328.9375 341.975 329.75 341.11563Q330.5625 340.24063 331.84375 340.24063Q333.09375 340.24063 333.875 341.08438Q334.67188 341.92813 334.67188 343.475Q334.67188 343.56876 334.67188 343.75626L330.03125 343.75626Q330.09375 344.7875 330.60938 345.33438Q331.125 345.86563 331.90625 345.86563Q332.48438 345.86563 332.89062 345.56876Q333.3125 345.25626 333.54688 344.6ZM330.09375 342.89688L333.5625 342.89688Q333.5 342.1 333.17188 341.70938Q332.65625 341.1 331.85938 341.1Q331.125 341.1 330.625 341.58438Q330.14062 342.06876 330.09375 342.89688ZM340.35938 345.83438Q339.76562 346.33438 339.21875 346.5375Q338.6875 346.74063 338.0625 346.74063Q337.03125 346.74063 336.48438 346.24063Q335.9375 345.74063 335.9375 344.95938Q335.9375 344.50626 336.14062 344.13126Q336.34375 343.74063 336.6875 343.52188Q337.03125 343.2875 337.45312 343.17813Q337.75 343.08438 338.39062 343.00626Q339.65625 342.86563 340.26562 342.64688Q340.26562 342.42813 340.26562 342.38126Q340.26562 341.725 339.96875 341.45938Q339.5625 341.11563 338.76562 341.11563Q338.03125 341.11563 337.67188 341.38126Q337.3125 341.63126 337.14062 342.2875L336.10938 342.14688Q336.25 341.49063 336.57812 341.08438Q336.90625 340.67813 337.51562 340.45938Q338.125 340.24063 338.92188 340.24063Q339.71875 340.24063 340.21875 340.42813Q340.71875 340.61563 340.95312 340.89688Q341.1875 341.17813 341.28125 341.61563Q341.32812 341.88126 341.32812 342.58438L341.32812 343.99063Q341.32812 345.45938 341.39062 345.85Q341.46875 346.24063 341.67188 346.6L340.5625 346.6Q340.40625 346.27188 340.35938 345.83438ZM340.26562 343.475Q339.6875 343.70938 338.54688 343.88126Q337.89062 343.975 337.625 344.1Q337.35938 344.20938 337.20312 344.42813Q337.0625 344.64688 337.0625 344.92813Q337.0625 345.35 337.375 345.63126Q337.70312 345.9125 338.3125 345.9125Q338.92188 345.9125 339.39062 345.64688Q339.875 345.38126 340.09375 344.9125Q340.26562 344.55313 340.26562 343.86563L340.26562 343.475ZM347.32812 346.6L347.32812 345.81876Q346.73438 346.74063 345.59375 346.74063Q344.84375 346.74063 344.21875 346.33438Q343.59375 345.9125 343.25 345.17813Q342.90625 344.44376 342.90625 343.49063Q342.90625 342.56876 343.21875 341.80313Q343.53125 341.0375 344.15625 340.64688Q344.78125 340.24063 345.54688 340.24063Q346.10938 340.24063 346.54688 340.475Q346.98438 340.70938 347.26562 341.08438L347.26562 338.00626L348.3125 338.00626L348.3125 346.6L347.32812 346.6ZM344.0 343.49063Q344.0 344.69376 344.5 345.2875Q345.0 345.86563 345.6875 345.86563Q346.375 345.86563 346.85938 345.30313Q347.34375 344.74063 347.34375 343.58438Q347.34375 342.30313 346.84375 341.70938Q346.35938 341.11563 345.64062 341.11563Q344.9375 341.11563 344.46875 341.69376Q344.0 342.25626 344.0 343.49063ZM349.875 344.74063L350.90625 344.58438Q351.0 345.20938 351.39062 345.5375Q351.79688 345.86563 352.53125 345.86563Q353.25 345.86563 353.59375 345.58438Q353.95312 345.2875 353.95312 344.88126Q353.95312 344.52188 353.64062 344.31876Q353.42188 344.17813 352.5625 343.95938Q351.40625 343.6625 350.95312 343.45938Q350.51562 343.24063 350.28125 342.86563Q350.04688 342.49063 350.04688 342.02188Q350.04688 341.61563 350.23438 341.25626Q350.42188 340.89688 350.75 340.6625Q351.0 340.49063 351.42188 340.36563Q351.84375 340.24063 352.34375 340.24063Q353.0625 340.24063 353.60938 340.45938Q354.17188 340.6625 354.4375 341.02188Q354.70312 341.38126 354.79688 341.975L353.76562 342.11563Q353.70312 341.64688 353.35938 341.38126Q353.03125 341.1 352.40625 341.1Q351.6875 341.1 351.375 341.35Q351.0625 341.58438 351.0625 341.9125Q351.0625 342.11563 351.1875 342.27188Q351.32812 342.44376 351.59375 342.55313Q351.75 342.61563 352.53125 342.81876Q353.65625 343.13126 354.09375 343.31876Q354.53125 343.50626 354.78125 343.86563Q355.03125 344.225 355.03125 344.77188Q355.03125 345.30313 354.71875 345.77188Q354.42188 346.225 353.84375 346.49063Q353.26562 346.74063 352.53125 346.74063Q351.3125 346.74063 350.67188 346.24063Q350.04688 345.725 349.875 344.74063Z" fill-rule="nonzero"/><path fill="#000000" d="M26.63438 223.71979L26.54063 222.65729Q27.19688 222.57916 27.60313 222.29791Q28.00938 222.01666 28.275005 221.43854Q28.525005 220.84479 28.525005 220.11041Q28.525005 219.46979 28.337505 218.96979Q28.13438 218.46979 27.806255 218.23541Q27.462505 217.98541 27.07188 217.98541Q26.66563 217.98541 26.368755 218.21979Q26.056255 218.45416 25.85313 218.98541Q25.712505 219.34479 25.431255 220.53229Q25.150005 221.70416 24.900005 222.17291Q24.57188 222.79791 24.10313 223.09479Q23.618755 223.39166 23.025005 223.39166Q22.38438 223.39166 21.82188 223.03229Q21.243755 222.65729 20.962505 221.95416Q20.66563 221.23541 20.66563 220.37604Q20.66563 219.42291 20.97813 218.68854Q21.275005 217.95416 21.88438 217.56354Q22.47813 217.17291 23.22813 217.14166L23.306255 218.23541Q22.493755 218.32916 22.087505 218.84479Q21.66563 219.34479 21.66563 220.32916Q21.66563 221.36041 22.04063 221.82916Q22.41563 222.29791 22.94688 222.29791Q23.41563 222.29791 23.712505 221.96979Q24.00938 221.64166 24.32188 220.26666Q24.63438 218.87604 24.868755 218.36041Q25.22813 217.61041 25.75938 217.25104Q26.275005 216.89166 26.97813 216.89166Q27.66563 216.89166 28.275005 217.28229Q28.868755 217.67291 29.212505 218.40729Q29.54063 219.14166 29.54063 220.06354Q29.54063 221.23541 29.212505 222.03229Q28.868755 222.81354 28.181255 223.26666Q27.493755 223.70416 26.63438 223.71979ZM31.79063 215.46979L23.181255 215.46979L23.181255 214.51666L23.97813 214.51666Q23.50938 214.17291 23.275005 213.75104Q23.04063 213.31354 23.04063 212.70416Q23.04063 211.90729 23.44688 211.29791Q23.85313 210.68854 24.60313 210.39166Q25.35313 210.07916 26.243755 210.07916Q27.19688 210.07916 27.962505 210.42291Q28.72813 210.75104 29.13438 211.40729Q29.54063 212.06354 29.54063 212.78229Q29.54063 213.31354 29.32188 213.73541Q29.087505 214.15729 28.75938 214.42291L31.79063 214.42291L31.79063 215.46979ZM26.32188 214.51666Q27.525005 214.51666 28.10313 214.03229Q28.66563 213.54791 28.66563 212.86041Q28.66563 212.15729 28.07188 211.65729Q27.47813 211.15729 26.22813 211.15729Q25.04063 211.15729 24.462505 211.64166Q23.868755 212.12604 23.868755 212.81354Q23.868755 213.48541 24.493755 214.00104Q25.118755 214.51666 26.32188 214.51666ZM27.400005 204.21979L27.525005 203.12604Q28.47813 203.37604 29.00938 204.07916Q29.54063 204.78229 29.54063 205.86041Q29.54063 207.21979 28.69688 208.03229Q27.85313 208.82916 26.337505 208.82916Q24.775005 208.82916 23.91563 208.01666Q23.04063 207.20416 23.04063 205.92291Q23.04063 204.67291 23.88438 203.89166Q24.72813 203.09479 26.275005 203.09479Q26.368755 203.09479 26.556255 203.09479L26.556255 207.73541Q27.587505 207.67291 28.13438 207.15729Q28.66563 206.64166 28.66563 205.86041Q28.66563 205.28229 28.368755 204.87604Q28.056255 204.45416 27.400005 204.21979ZM25.69688 207.67291L25.69688 204.20416Q24.900005 204.26666 24.50938 204.59479Q23.900005 205.11041 23.900005 205.90729Q23.900005 206.64166 24.38438 207.14166Q24.868755 207.62604 25.69688 207.67291ZM27.400005 197.21979L27.525005 196.12604Q28.47813 196.37604 29.00938 197.07916Q29.54063 197.78229 29.54063 198.86041Q29.54063 200.21979 28.69688 201.03229Q27.85313 201.82916 26.337505 201.82916Q24.775005 201.82916 23.91563 201.01666Q23.04063 200.20416 23.04063 198.92291Q23.04063 197.67291 23.88438 196.89166Q24.72813 196.09479 26.275005 196.09479Q26.368755 196.09479 26.556255 196.09479L26.556255 200.73541Q27.587505 200.67291 28.13438 200.15729Q28.66563 199.64166 28.66563 198.86041Q28.66563 198.28229 28.368755 197.87604Q28.056255 197.45416 27.400005 197.21979ZM25.69688 200.67291L25.69688 197.20416Q24.900005 197.26666 24.50938 197.59479Q23.900005 198.11041 23.900005 198.90729Q23.900005 199.64166 24.38438 200.14166Q24.868755 200.62604 25.69688 200.67291ZM29.400005 190.43854L28.618755 190.43854Q29.54063 191.03229 29.54063 192.17291Q29.54063 192.92291 29.13438 193.54791Q28.712505 194.17291 27.97813 194.51666Q27.243755 194.86041 26.29063 194.86041Q25.368755 194.86041 24.60313 194.54791Q23.837505 194.23541 23.44688 193.61041Q23.04063 192.98541 23.04063 192.21979Q23.04063 191.65729 23.275005 191.21979Q23.50938 190.78229 23.88438 190.50104L20.806255 190.50104L20.806255 189.45416L29.400005 189.45416L29.400005 190.43854ZM26.29063 193.76666Q27.493755 193.76666 28.087505 193.26666Q28.66563 192.76666 28.66563 192.07916Q28.66563 191.39166 28.10313 190.90729Q27.54063 190.42291 26.38438 190.42291Q25.10313 190.42291 24.50938 190.92291Q23.91563 191.40729 23.91563 192.12604Q23.91563 192.82916 24.493755 193.29791Q25.056255 193.76666 26.29063 193.76666ZM29.400005 183.39166L28.47813 183.39166Q29.54063 184.12604 29.54063 185.37604Q29.54063 185.92291 29.337505 186.40729Q29.118755 186.87604 28.806255 187.11041Q28.47813 187.34479 28.00938 187.43854Q27.712505 187.50104 27.025005 187.50104L23.181255 187.50104L23.181255 186.43854L26.63438 186.43854Q27.44688 186.43854 27.743755 186.37604Q28.150005 186.28229 28.400005 185.96979Q28.63438 185.64166 28.63438 185.15729Q28.63438 184.68854 28.400005 184.28229Q28.150005 183.86041 27.72813 183.68854Q27.306255 183.50104 26.50938 183.50104L23.181255 183.50104L23.181255 182.45416L29.400005 182.45416L29.400005 183.39166ZM31.79063 180.46979L23.181255 180.46979L23.181255 179.51666L23.97813 179.51666Q23.50938 179.17291 23.275005 178.75104Q23.04063 178.31354 23.04063 177.70416Q23.04063 176.90729 23.44688 176.29791Q23.85313 175.68854 24.60313 175.39166Q25.35313 175.07916 26.243755 175.07916Q27.19688 175.07916 27.962505 175.42291Q28.72813 175.75104 29.13438 176.40729Q29.54063 177.06354 29.54063 177.78229Q29.54063 178.31354 29.32188 178.73541Q29.087505 179.15729 28.75938 179.42291L31.79063 179.42291L31.79063 180.46979ZM26.32188 179.51666Q27.525005 179.51666 28.10313 179.03229Q28.66563 178.54791 28.66563 177.86041Q28.66563 177.15729 28.07188 176.65729Q27.47813 176.15729 26.22813 176.15729Q25.04063 176.15729 24.462505 176.64166Q23.868755 177.12604 23.868755 177.81354Q23.868755 178.48541 24.493755 179.00104Q25.118755 179.51666 26.32188 179.51666Z" fill-rule="nonzero"/><path fill="#000000" d="M64.9 297.36563Q64.9 295.83438 65.2125 294.9125Q65.525 293.975 66.13438 293.475Q66.75938 292.975 67.69688 292.975Q68.38438 292.975 68.9 293.25626Q69.43125 293.5375 69.775 294.06876Q70.11875 294.58438 70.30625 295.33438Q70.49375 296.08438 70.49375 297.36563Q70.49375 298.88126 70.18125 299.80313Q69.88438 300.725 69.25938 301.24063Q68.65 301.74063 67.69688 301.74063Q66.4625 301.74063 65.74375 300.85Q64.9 299.7875 64.9 297.36563ZM65.97813 297.36563Q65.97813 299.475 66.47813 300.17813Q66.97813 300.88126 67.69688 300.88126Q68.43125 300.88126 68.91563 300.17813Q69.41563 299.475 69.41563 297.36563Q69.41563 295.24063 68.91563 294.55313Q68.43125 293.85 67.68125 293.85Q66.9625 293.85 66.525 294.45938Q65.97813 295.24063 65.97813 297.36563Z" fill-rule="nonzero"/><path fill="#000000" d="M70.44688 258.65103L70.44688 259.66666L64.75938 259.66666Q64.75938 259.29166 64.88438 258.93228Q65.10313 258.35416 65.57188 257.79166Q66.05625 257.22916 66.9625 256.49478Q68.36875 255.33853 68.85313 254.66666Q69.35313 253.99478 69.35313 253.40103Q69.35313 252.77603 68.9 252.35416Q68.44688 251.91666 67.72813 251.91666Q66.9625 251.91666 66.50938 252.36978Q66.05625 252.8229 66.04063 253.6354L64.9625 253.52603Q65.07188 252.30728 65.79063 251.68228Q66.525 251.04166 67.75938 251.04166Q68.99375 251.04166 69.7125 251.72916Q70.43125 252.41666 70.43125 253.43228Q70.43125 253.9479 70.2125 254.4479Q70.00938 254.93228 69.50938 255.49478Q69.025 256.04166 67.9 256.99478Q66.94688 257.79166 66.66563 258.08853Q66.4 258.36978 66.22813 258.65103L70.44688 258.65103Z" fill-rule="nonzero"/><path fill="#000000" d="M68.275 217.73334L68.275 215.67084L64.55625 215.67084L64.55625 214.70209L68.47813 209.13959L69.3375 209.13959L69.3375 214.70209L70.49375 214.70209L70.49375 215.67084L69.3375 215.67084L69.3375 217.73334L68.275 217.73334ZM68.275 214.70209L68.275 210.84271L65.5875 214.70209L68.275 214.70209Z" fill-rule="nonzero"/><path fill="#000000" d="M70.36875 169.31563L69.32188 169.39375Q69.18125 168.76875 68.93125 168.4875Q68.49375 168.03438 67.86875 168.03438Q67.36875 168.03438 66.97813 168.31563Q66.49375 168.69063 66.19688 169.39375Q65.91563 170.08125 65.9 171.3625Q66.275 170.78438 66.82188 170.50313Q67.38438 170.22188 67.99375 170.22188Q69.04063 170.22188 69.775 171.00313Q70.525 171.78438 70.525 173.00313Q70.525 173.81563 70.16563 174.51875Q69.82188 175.20625 69.2125 175.58125Q68.60313 175.94063 67.8375 175.94063Q66.50938 175.94063 65.68125 174.97188Q64.85313 174.00313 64.85313 171.78438Q64.85313 169.28438 65.775 168.15938Q66.57188 167.175 67.93125 167.175Q68.94688 167.175 69.5875 167.75313Q70.24375 168.31563 70.36875 169.31563ZM66.07188 173.01875Q66.07188 173.56563 66.29063 174.06563Q66.525 174.55 66.93125 174.81563Q67.35313 175.08125 67.82188 175.08125Q68.47813 175.08125 68.9625 174.55Q69.44688 174.00313 69.44688 173.08125Q69.44688 172.19063 68.9625 171.675Q68.49375 171.15938 67.775 171.15938Q67.05625 171.15938 66.55625 171.675Q66.07188 172.19063 66.07188 173.01875Z" fill-rule="nonzero"/><path fill="#000000" d="M66.525 129.21042Q65.86875 128.96042 65.54063 128.52292Q65.22813 128.0698 65.22813 127.46042Q65.22813 126.52292 65.9 125.88229Q66.5875 125.24167 67.69688 125.24167Q68.82188 125.24167 69.50938 125.89792Q70.19688 126.55417 70.19688 127.49167Q70.19688 128.08542 69.88438 128.52292Q69.57188 128.96042 68.93125 129.21042Q69.72813 129.46042 70.13438 130.03854Q70.54063 130.61667 70.54063 131.41354Q70.54063 132.5073 69.75938 133.2573Q68.99375 134.0073 67.7125 134.0073Q66.44688 134.0073 65.66563 133.2573Q64.88438 132.5073 64.88438 131.3823Q64.88438 130.53854 65.30625 129.97604Q65.74375 129.41354 66.525 129.21042ZM66.30625 127.41354Q66.30625 128.02292 66.69688 128.41354Q67.10313 128.80417 67.72813 128.80417Q68.3375 128.80417 68.72813 128.42917Q69.11875 128.03854 69.11875 127.47604Q69.11875 126.89792 68.7125 126.50729Q68.30625 126.10104 67.7125 126.10104Q67.10313 126.10104 66.69688 126.49167Q66.30625 126.88229 66.30625 127.41354ZM65.97813 131.3823Q65.97813 131.83542 66.18125 132.2573Q66.4 132.67917 66.82188 132.91354Q67.24375 133.14792 67.72813 133.14792Q68.47813 133.14792 68.9625 132.66354Q69.4625 132.17917 69.4625 131.42917Q69.4625 130.66354 68.9625 130.16354Q68.4625 129.66354 67.69688 129.66354Q66.94688 129.66354 66.4625 130.16354Q65.97813 130.64792 65.97813 131.3823Z" fill-rule="nonzero"/><path fill="#000000" d="M61.86875 91.933334L60.821877 91.933334L60.821877 85.214584Q60.43125 85.57396 59.80625 85.94896Q59.196877 86.308334 58.7125 86.48021L58.7125 85.464584Q59.5875 85.04271 60.24375 84.464584Q60.915627 83.870834 61.196877 83.308334L61.86875 83.308334L61.86875 91.933334ZM64.9 87.69896Q64.9 86.16771 65.2125 85.245834Q65.525 84.308334 66.13438 83.808334Q66.75938 83.308334 67.69688 83.308334Q68.38438 83.308334 68.9 83.589584Q69.43125 83.870834 69.775 84.402084Q70.11875 84.91771 70.30625 85.66771Q70.49375 86.41771 70.49375 87.69896Q70.49375 89.214584 70.18125 90.13646Q69.88438 91.058334 69.25938 91.57396Q68.65 92.07396 67.69688 92.07396Q66.4625 92.07396 65.74375 91.183334Q64.9 90.120834 64.9 87.69896ZM65.97813 87.69896Q65.97813 89.808334 66.47813 90.51146Q66.97813 91.214584 67.69688 91.214584Q68.43125 91.214584 68.91563 90.51146Q69.41563 89.808334 69.41563 87.69896Q69.41563 85.57396 68.91563 84.88646Q68.43125 84.183334 67.68125 84.183334Q66.9625 84.183334 66.525 84.79271Q65.97813 85.57396 65.97813 87.69896Z" fill-rule="nonzero"/><path fill="#000000" d="M138.03871 312.35L139.14809 312.25626Q139.27309 313.06876 139.71059 313.475Q140.16371 313.88126 140.80434 313.88126Q141.55434 313.88126 142.08559 313.30313Q142.61684 312.725 142.61684 311.7875Q142.61684 310.88126 142.10121 310.36563Q141.60121 309.83438 140.77309 309.83438Q140.27309 309.83438 139.85121 310.06876Q139.44496 310.30313 139.21059 310.6625L138.22621 310.5375L139.05434 306.13126L143.33559 306.13126L143.33559 307.13126L139.89809 307.13126L139.44496 309.44376Q140.21059 308.89688 141.05434 308.89688Q142.17934 308.89688 142.94496 309.67813Q143.72621 310.45938 143.72621 311.69376Q143.72621 312.85 143.05434 313.70938Q142.22621 314.74063 140.80434 314.74063Q139.63246 314.74063 138.88246 314.08438Q138.14809 313.42813 138.03871 312.35Z" fill-rule="nonzero"/><path fill="#000000" d="M218.05585 314.6L217.00897 314.6L217.00897 307.88126Q216.61835 308.24063 215.99335 308.61563Q215.38397 308.975 214.8996 309.14688L214.8996 308.13126Q215.7746 307.70938 216.43085 307.13126Q217.10272 306.5375 217.38397 305.975L218.05585 305.975L218.05585 314.6ZM221.0871 310.36563Q221.0871 308.83438 221.3996 307.9125Q221.7121 306.975 222.32147 306.475Q222.94647 305.975 223.88397 305.975Q224.57147 305.975 225.0871 306.25626Q225.61835 306.5375 225.9621 307.06876Q226.30585 307.58438 226.49335 308.33438Q226.68085 309.08438 226.68085 310.36563Q226.68085 311.88126 226.36835 312.80313Q226.07147 313.725 225.44647 314.24063Q224.8371 314.74063 223.88397 314.74063Q222.6496 314.74063 221.93085 313.85Q221.0871 312.7875 221.0871 310.36563ZM222.16522 310.36563Q222.16522 312.475 222.66522 313.17813Q223.16522 313.88126 223.88397 313.88126Q224.61835 313.88126 225.10272 313.17813Q225.60272 312.475 225.60272 310.36563Q225.60272 308.24063 225.10272 307.55313Q224.61835 306.85 223.86835 306.85Q223.1496 306.85 222.7121 307.45938Q222.16522 308.24063 222.16522 310.36563Z" fill-rule="nonzero"/><path fill="#000000" d="M297.60425 314.6L296.55737 314.6L296.55737 307.88126Q296.16675 308.24063 295.54175 308.61563Q294.93237 308.975 294.448 309.14688L294.448 308.13126Q295.323 307.70938 295.97925 307.13126Q296.65112 306.5375 296.93237 305.975L297.60425 305.975L297.60425 314.6ZM300.6355 312.35L301.74487 312.25626Q301.86987 313.06876 302.30737 313.475Q302.7605 313.88126 303.40112 313.88126Q304.15112 313.88126 304.68237 313.30313Q305.21362 312.725 305.21362 311.7875Q305.21362 310.88126 304.698 310.36563Q304.198 309.83438 303.36987 309.83438Q302.86987 309.83438 302.448 310.06876Q302.04175 310.30313 301.80737 310.6625L300.823 310.5375L301.65112 306.13126L305.93237 306.13126L305.93237 307.13126L302.49487 307.13126L302.04175 309.44376Q302.80737 308.89688 303.65112 308.89688Q304.77612 308.89688 305.54175 309.67813Q306.323 310.45938 306.323 311.69376Q306.323 312.85 305.65112 313.70938Q304.823 314.74063 303.40112 314.74063Q302.22925 314.74063 301.47925 314.08438Q300.74487 313.42813 300.6355 312.35Z" fill-rule="nonzero"/><path fill="#000000" d="M378.73074 313.58438L378.73074 314.6L373.04324 314.6Q373.04324 314.225 373.16824 313.86563Q373.387 313.2875 373.85574 312.725Q374.34012 312.1625 375.24637 311.42813Q376.65262 310.27188 377.137 309.6Q377.637 308.92813 377.637 308.33438Q377.637 307.70938 377.18387 307.2875Q376.73074 306.85 376.012 306.85Q375.24637 306.85 374.79324 307.30313Q374.34012 307.75626 374.3245 308.56876L373.24637 308.45938Q373.35574 307.24063 374.0745 306.61563Q374.80887 305.975 376.04324 305.975Q377.27762 305.975 377.99637 306.6625Q378.71512 307.35 378.71512 308.36563Q378.71512 308.88126 378.49637 309.38126Q378.29324 309.86563 377.79324 310.42813Q377.30887 310.975 376.18387 311.92813Q375.23074 312.725 374.9495 313.02188Q374.68387 313.30313 374.512 313.58438L378.73074 313.58438ZM380.18387 310.36563Q380.18387 308.83438 380.49637 307.9125Q380.80887 306.975 381.41824 306.475Q382.04324 305.975 382.98074 305.975Q383.66824 305.975 384.18387 306.25626Q384.71512 306.5375 385.05887 307.06876Q385.40262 307.58438 385.59012 308.33438Q385.77762 309.08438 385.77762 310.36563Q385.77762 311.88126 385.46512 312.80313Q385.16824 313.725 384.54324 314.24063Q383.93387 314.74063 382.98074 314.74063Q381.74637 314.74063 381.02762 313.85Q380.18387 312.7875 380.18387 310.36563ZM381.262 310.36563Q381.262 312.475 381.762 313.17813Q382.262 313.88126 382.98074 313.88126Q383.71512 313.88126 384.1995 313.17813Q384.6995 312.475 384.6995 310.36563Q384.6995 308.24063 384.1995 307.55313Q383.71512 306.85 382.96512 306.85Q382.24637 306.85 381.80887 307.45938Q381.262 308.24063 381.262 310.36563Z" fill-rule="nonzero"/><path fill="#000000" d="M458.27914 313.58438L458.27914 314.6L452.59164 314.6Q452.59164 314.225 452.71664 313.86563Q452.9354 313.2875 453.40414 312.725Q453.88852 312.1625 454.79477 311.42813Q456.20102 310.27188 456.6854 309.6Q457.1854 308.92813 457.1854 308.33438Q457.1854 307.70938 456.73227 307.2875Q456.27914 306.85 455.5604 306.85Q454.79477 306.85 454.34164 307.30313Q453.88852 307.75626 453.8729 308.56876L452.79477 308.45938Q452.90414 307.24063 453.6229 306.61563Q454.35727 305.975 455.59164 305.975Q456.82602 305.975 457.54477 306.6625Q458.26352 307.35 458.26352 308.36563Q458.26352 308.88126 458.04477 309.38126Q457.84164 309.86563 457.34164 310.42813Q456.85727 310.975 455.73227 311.92813Q454.77914 312.725 454.4979 313.02188Q454.23227 313.30313 454.0604 313.58438L458.27914 313.58438ZM459.73227 312.35L460.84164 312.25626Q460.96664 313.06876 461.40414 313.475Q461.85727 313.88126 462.4979 313.88126Q463.2479 313.88126 463.77914 313.30313Q464.3104 312.725 464.3104 311.7875Q464.3104 310.88126 463.79477 310.36563Q463.29477 309.83438 462.46664 309.83438Q461.96664 309.83438 461.54477 310.06876Q461.13852 310.30313 460.90414 310.6625L459.91977 310.5375L460.7479 306.13126L465.02914 306.13126L465.02914 307.13126L461.59164 307.13126L461.13852 309.44376Q461.90414 308.89688 462.7479 308.89688Q463.8729 308.89688 464.63852 309.67813Q465.41977 310.45938 465.41977 311.69376Q465.41977 312.85 464.7479 313.70938Q463.91977 314.74063 462.4979 314.74063Q461.32602 314.74063 460.57602 314.08438Q459.84164 313.42813 459.73227 312.35Z" fill-rule="nonzero"/><path fill="#000000" d="M532.28064 312.33438L533.34314 312.19376Q533.515 313.08438 533.9525 313.49063Q534.39 313.88126 535.015 313.88126Q535.765 313.88126 536.28064 313.36563Q536.79626 312.85 536.79626 312.08438Q536.79626 311.36563 536.3119 310.89688Q535.84314 310.4125 535.10876 310.4125Q534.8119 310.4125 534.35876 310.5375L534.48376 309.6Q534.59314 309.61563 534.65564 309.61563Q535.3275 309.61563 535.85876 309.27188Q536.40564 308.9125 536.40564 308.17813Q536.40564 307.6 536.015 307.225Q535.6244 306.83438 534.9994 306.83438Q534.39 306.83438 533.96814 307.225Q533.5619 307.61563 533.4525 308.38126L532.39 308.19376Q532.5775 307.14688 533.265 306.56876Q533.9525 305.975 534.96814 305.975Q535.67126 305.975 536.265 306.2875Q536.85876 306.58438 537.17126 307.1Q537.48376 307.61563 537.48376 308.20938Q537.48376 308.75626 537.1869 309.225Q536.89 309.67813 536.3119 309.94376Q537.0619 310.11563 537.48376 310.67813Q537.90564 311.225 537.90564 312.06876Q537.90564 313.19376 537.0775 313.975Q536.265 314.75626 535.015 314.75626Q533.89 314.75626 533.14 314.08438Q532.39 313.39688 532.28064 312.33438ZM539.28064 310.36563Q539.28064 308.83438 539.59314 307.9125Q539.90564 306.975 540.515 306.475Q541.14 305.975 542.0775 305.975Q542.765 305.975 543.28064 306.25626Q543.8119 306.5375 544.15564 307.06876Q544.4994 307.58438 544.6869 308.33438Q544.8744 309.08438 544.8744 310.36563Q544.8744 311.88126 544.5619 312.80313Q544.265 313.725 543.64 314.24063Q543.03064 314.74063 542.0775 314.74063Q540.84314 314.74063 540.1244 313.85Q539.28064 312.7875 539.28064 310.36563ZM540.35876 310.36563Q540.35876 312.475 540.85876 313.17813Q541.35876 313.88126 542.0775 313.88126Q542.8119 313.88126 543.29626 313.17813Q543.79626 312.475 543.79626 310.36563Q543.79626 308.24063 543.29626 307.55313Q542.8119 306.85 542.0619 306.85Q541.34314 306.85 540.90564 307.45938Q540.35876 308.24063 540.35876 310.36563Z" fill-rule="nonzero"/><path stroke="#4285f4" stroke-width="4.0" stroke-linecap="butt" d="M25.0 61.666668L37.0 61.666668" fill-rule="nonzero"/><path fill="#1a1a1a" d="M45.875 65.666664L45.875 57.072914L49.109375 57.072914Q50.09375 57.072914 50.6875 57.33854Q51.28125 57.604164 51.609375 58.15104Q51.953125 58.68229 51.953125 59.27604Q51.953125 59.822914 51.65625 60.30729Q51.359375 60.791664 50.75 61.08854Q51.53125 61.322914 51.9375 61.885414Q52.359375 62.43229 52.359375 63.18229Q52.359375 63.77604 52.109375 64.30729Q51.859375 64.822914 51.484375 65.104164Q51.109375 65.385414 50.53125 65.52604Q49.96875 65.666664 49.15625 65.666664L45.875 65.666664ZM47.015625 60.68229L48.875 60.68229Q49.625 60.68229 49.953125 60.58854Q50.390625 60.46354 50.609375 60.166664Q50.828125 59.854164 50.828125 59.40104Q50.828125 58.979164 50.625 58.65104Q50.421875 58.322914 50.03125 58.21354Q49.65625 58.08854 48.734375 58.08854L47.015625 58.08854L47.015625 60.68229ZM47.015625 64.65104L49.15625 64.65104Q49.703125 64.65104 49.921875 64.604164Q50.328125 64.541664 50.578125 64.385414Q50.84375 64.21354 51.015625 63.90104Q51.1875 63.58854 51.1875 63.18229Q51.1875 62.697914 50.9375 62.33854Q50.703125 61.979164 50.265625 61.83854Q49.828125 61.697914 49.0 61.697914L47.015625 61.697914L47.015625 64.65104ZM53.546875 62.90104L54.609375 62.80729Q54.6875 63.46354 54.96875 63.86979Q55.25 64.27604 55.828125 64.541664Q56.421875 64.791664 57.15625 64.791664Q57.796875 64.791664 58.296875 64.604164Q58.796875 64.40104 59.03125 64.072914Q59.28125 63.729164 59.28125 63.33854Q59.28125 62.93229 59.046875 62.635414Q58.8125 62.322914 58.28125 62.11979Q57.921875 61.979164 56.734375 61.697914Q55.5625 61.416664 55.09375 61.166664Q54.46875 60.83854 54.171875 60.36979Q53.875 59.885414 53.875 59.291664Q53.875 58.65104 54.234375 58.08854Q54.609375 57.510414 55.3125 57.229164Q56.03125 56.93229 56.890625 56.93229Q57.84375 56.93229 58.578125 57.24479Q59.3125 57.541664 59.703125 58.15104Q60.09375 58.74479 60.125 59.49479L59.03125 59.572914Q58.9375 58.760414 58.421875 58.354164Q57.921875 57.93229 56.9375 57.93229Q55.90625 57.93229 55.4375 58.30729Q54.96875 58.68229 54.96875 59.21354Q54.96875 59.68229 55.296875 59.979164Q55.625 60.27604 57.0 60.58854Q58.390625 60.90104 58.90625 61.135414Q59.65625 61.49479 60.015625 62.02604Q60.375 62.541664 60.375 63.24479Q60.375 63.93229 59.984375 64.541664Q59.59375 65.135414 58.859375 65.479164Q58.125 65.80729 57.203125 65.80729Q56.03125 65.80729 55.234375 65.479164Q54.453125 65.135414 54.0 64.447914Q53.5625 63.760414 53.546875 62.90104ZM67.34375 60.61979L61.671875 60.61979L61.671875 59.635414L67.34375 59.635414L67.34375 60.61979ZM67.34375 63.229164L61.671875 63.229164L61.671875 62.24479L67.34375 62.24479L67.34375 63.229164ZM73.96875 59.18229L72.921875 59.260414Q72.78125 58.635414 72.53125 58.354164Q72.09375 57.90104 71.46875 57.90104Q70.96875 57.90104 70.578125 58.18229Q70.09375 58.55729 69.796875 59.260414Q69.515625 59.947914 69.5 61.229164Q69.875 60.65104 70.421875 60.36979Q70.984375 60.08854 71.59375 60.08854Q72.640625 60.08854 73.375 60.86979Q74.125 61.65104 74.125 62.86979Q74.125 63.68229 73.765625 64.385414Q73.421875 65.072914 72.8125 65.447914Q72.203125 65.80729 71.4375 65.80729Q70.109375 65.80729 69.28125 64.83854Q68.453125 63.86979 68.453125 61.65104Q68.453125 59.15104 69.375 58.02604Q70.171875 57.041664 71.53125 57.041664Q72.546875 57.041664 73.1875 57.61979Q73.84375 58.18229 73.96875 59.18229ZM69.671875 62.885414Q69.671875 63.43229 69.890625 63.93229Q70.125 64.416664 70.53125 64.68229Q70.953125 64.947914 71.421875 64.947914Q72.078125 64.947914 72.5625 64.416664Q73.046875 63.86979 73.046875 62.947914Q73.046875 62.05729 72.5625 61.541664Q72.09375 61.02604 71.375 61.02604Q70.65625 61.02604 70.15625 61.541664Q69.671875 62.05729 69.671875 62.885414ZM78.875 65.666664L78.875 63.604164L75.15625 63.604164L75.15625 62.635414L79.078125 57.072914L79.9375 57.072914L79.9375 62.635414L81.09375 62.635414L81.09375 63.604164L79.9375 63.604164L79.9375 65.666664L78.875 65.666664ZM78.875 62.635414L78.875 58.77604L76.1875 62.635414L78.875 62.635414ZM85.875 65.666664L85.875 57.072914L87.015625 57.072914L87.015625 64.65104L91.25 64.65104L91.25 65.666664L85.875 65.666664ZM92.9375 65.666664L92.9375 57.072914L96.75 57.072914Q97.90625 57.072914 98.5 57.30729Q99.09375 57.541664 99.453125 58.135414Q99.8125 58.71354 99.8125 59.416664Q99.8125 60.33854 99.21875 60.96354Q98.625 61.58854 97.390625 61.760414Q97.84375 61.979164 98.078125 62.18229Q98.578125 62.635414 99.015625 63.322914L100.515625 65.666664L99.078125 65.666664L97.953125 63.885414Q97.453125 63.104164 97.125 62.697914Q96.8125 62.291664 96.546875 62.135414Q96.296875 61.96354 96.03125 61.885414Q95.84375 61.854164 95.40625 61.854164L94.078125 61.854164L94.078125 65.666664L92.9375 65.666664ZM94.078125 60.86979L96.53125 60.86979Q97.296875 60.86979 97.734375 60.71354Q98.1875 60.541664 98.40625 60.197914Q98.640625 59.83854 98.640625 59.416664Q98.640625 58.80729 98.1875 58.416664Q97.75 58.02604 96.796875 58.02604L94.078125 58.02604L94.078125 60.86979ZM107.34375 60.61979L101.671875 60.61979L101.671875 59.635414L107.34375 59.635414L107.34375 60.61979ZM107.34375 63.229164L101.671875 63.229164L101.671875 62.24479L107.34375 62.24479L107.34375 63.229164ZM108.5 61.43229Q108.5 59.90104 108.8125 58.979164Q109.125 58.041664 109.734375 57.541664Q110.359375 57.041664 111.296875 57.041664Q111.984375 57.041664 112.5 57.322914Q113.03125 57.604164 113.375 58.135414Q113.71875 58.65104 113.90625 59.40104Q114.09375 60.15104 114.09375 61.43229Q114.09375 62.947914 113.78125 63.86979Q113.484375 64.791664 112.859375 65.30729Q112.25 65.80729 111.296875 65.80729Q110.0625 65.80729 109.34375 64.916664Q108.5 63.854164 108.5 61.43229ZM109.578125 61.43229Q109.578125 63.541664 110.078125 64.24479Q110.578125 64.947914 111.296875 64.947914Q112.03125 64.947914 112.515625 64.24479Q113.015625 63.541664 113.015625 61.43229Q113.015625 59.30729 112.515625 58.61979Q112.03125 57.916664 111.28125 57.916664Q110.5625 57.916664 110.125 58.52604Q109.578125 59.30729 109.578125 61.43229ZM116.09375 65.666664L116.09375 64.46354L117.296875 64.46354L117.296875 65.666664L116.09375 65.666664ZM118.5 61.43229Q118.5 59.90104 118.8125 58.979164Q119.125 58.041664 119.734375 57.541664Q120.359375 57.041664 121.296875 57.041664Q121.984375 57.041664 122.5 57.322914Q123.03125 57.604164 123.375 58.135414Q123.71875 58.65104 123.90625 59.40104Q124.09375 60.15104 124.09375 61.43229Q124.09375 62.947914 123.78125 63.86979Q123.484375 64.791664 122.859375 65.30729Q122.25 65.80729 121.296875 65.80729Q120.0625 65.80729 119.34375 64.916664Q118.5 63.854164 118.5 61.43229ZM119.578125 61.43229Q119.578125 63.541664 120.078125 64.24479Q120.578125 64.947914 121.296875 64.947914Q122.03125 64.947914 122.515625 64.24479Q123.015625 63.541664 123.015625 61.43229Q123.015625 59.30729 122.515625 58.61979Q122.03125 57.916664 121.28125 57.916664Q120.5625 57.916664 120.125 58.52604Q119.578125 59.30729 119.578125 61.43229ZM129.46875 65.666664L128.42188 65.666664L128.42188 58.947914Q128.03125 59.30729 127.40625 59.68229Q126.796875 60.041664 126.3125 60.21354L126.3125 59.197914Q127.1875 58.77604 127.84375 58.197914Q128.51562 57.604164 128.79688 57.041664L129.46875 57.041664L129.46875 65.666664Z" fill-rule="nonzero"/><path stroke="#ea4335" stroke-width="4.0" stroke-linecap="butt" d="M148.0 61.666668L160.0 61.666668" fill-rule="nonzero"/><path fill="#1a1a1a" d="M168.875 65.666664L168.875 57.072914L172.10938 57.072914Q173.09375 57.072914 173.6875 57.33854Q174.28125 57.604164 174.60938 58.15104Q174.95312 58.68229 174.95312 59.27604Q174.95312 59.822914 174.65625 60.30729Q174.35938 60.791664 173.75 61.08854Q174.53125 61.322914 174.9375 61.885414Q175.35938 62.43229 175.35938 63.18229Q175.35938 63.77604 175.10938 64.30729Q174.85938 64.822914 174.48438 65.104164Q174.10938 65.385414 173.53125 65.52604Q172.96875 65.666664 172.15625 65.666664L168.875 65.666664ZM170.01562 60.68229L171.875 60.68229Q172.625 60.68229 172.95312 60.58854Q173.39062 60.46354 173.60938 60.166664Q173.82812 59.854164 173.82812 59.40104Q173.82812 58.979164 173.625 58.65104Q173.42188 58.322914 173.03125 58.21354Q172.65625 58.08854 171.73438 58.08854L170.01562 58.08854L170.01562 60.68229ZM170.01562 64.65104L172.15625 64.65104Q172.70312 64.65104 172.92188 64.604164Q173.32812 64.541664 173.57812 64.385414Q173.84375 64.21354 174.01562 63.90104Q174.1875 63.58854 174.1875 63.18229Q174.1875 62.697914 173.9375 62.33854Q173.70312 61.979164 173.26562 61.83854Q172.82812 61.697914 172.0 61.697914L170.01562 61.697914L170.01562 64.65104ZM176.54688 62.90104L177.60938 62.80729Q177.6875 63.46354 177.96875 63.86979Q178.25 64.27604 178.82812 64.541664Q179.42188 64.791664 180.15625 64.791664Q180.79688 64.791664 181.29688 64.604164Q181.79688 64.40104 182.03125 64.072914Q182.28125 63.729164 182.28125 63.33854Q182.28125 62.93229 182.04688 62.635414Q181.8125 62.322914 181.28125 62.11979Q180.92188 61.979164 179.73438 61.697914Q178.5625 61.416664 178.09375 61.166664Q177.46875 60.83854 177.17188 60.36979Q176.875 59.885414 176.875 59.291664Q176.875 58.65104 177.23438 58.08854Q177.60938 57.510414 178.3125 57.229164Q179.03125 56.93229 179.89062 56.93229Q180.84375 56.93229 181.57812 57.24479Q182.3125 57.541664 182.70312 58.15104Q183.09375 58.74479 183.125 59.49479L182.03125 59.572914Q181.9375 58.760414 181.42188 58.354164Q180.92188 57.93229 179.9375 57.93229Q178.90625 57.93229 178.4375 58.30729Q177.96875 58.68229 177.96875 59.21354Q177.96875 59.68229 178.29688 59.979164Q178.625 60.27604 180.0 60.58854Q181.39062 60.90104 181.90625 61.135414Q182.65625 61.49479 183.01562 62.02604Q183.375 62.541664 183.375 63.24479Q183.375 63.93229 182.98438 64.541664Q182.59375 65.135414 181.85938 65.479164Q181.125 65.80729 180.20312 65.80729Q179.03125 65.80729 178.23438 65.479164Q177.45312 65.135414 177.0 64.447914Q176.5625 63.760414 176.54688 62.90104ZM190.34375 60.61979L184.67188 60.61979L184.67188 59.635414L190.34375 59.635414L190.34375 60.61979ZM190.34375 63.229164L184.67188 63.229164L184.67188 62.24479L190.34375 62.24479L190.34375 63.229164ZM197.04688 64.65104L197.04688 65.666664L191.35938 65.666664Q191.35938 65.291664 191.48438 64.93229Q191.70312 64.354164 192.17188 63.791664Q192.65625 63.229164 193.5625 62.49479Q194.96875 61.33854 195.45312 60.666664Q195.95312 59.99479 195.95312 59.40104Q195.95312 58.77604 195.5 58.354164Q195.04688 57.916664 194.32812 57.916664Q193.5625 57.916664 193.10938 58.36979Q192.65625 58.822914 192.64062 59.635414L191.5625 59.52604Q191.67188 58.30729 192.39062 57.68229Q193.125 57.041664 194.35938 57.041664Q195.59375 57.041664 196.3125 57.729164Q197.03125 58.416664 197.03125 59.43229Q197.03125 59.947914 196.8125 60.447914Q196.60938 60.93229 196.10938 61.49479Q195.625 62.041664 194.5 62.99479Q193.54688 63.791664 193.26562 64.08854Q193.0 64.36979 192.82812 64.65104L197.04688 64.65104ZM198.5 63.416664L199.60938 63.322914Q199.73438 64.135414 200.17188 64.541664Q200.625 64.947914 201.26562 64.947914Q202.01562 64.947914 202.54688 64.36979Q203.07812 63.791664 203.07812 62.854164Q203.07812 61.947914 202.5625 61.43229Q202.0625 60.90104 201.23438 60.90104Q200.73438 60.90104 200.3125 61.135414Q199.90625 61.36979 199.67188 61.729164L198.6875 61.604164L199.51562 57.197914L203.79688 57.197914L203.79688 58.197914L200.35938 58.197914L199.90625 60.510414Q200.67188 59.96354 201.51562 59.96354Q202.64062 59.96354 203.40625 60.74479Q204.1875 61.52604 204.1875 62.760414Q204.1875 63.916664 203.51562 64.77604Q202.6875 65.80729 201.26562 65.80729Q200.09375 65.80729 199.34375 65.15104Q198.60938 64.49479 198.5 63.416664ZM210.96875 59.18229L209.92188 59.260414Q209.78125 58.635414 209.53125 58.354164Q209.09375 57.90104 208.46875 57.90104Q207.96875 57.90104 207.57812 58.18229Q207.09375 58.55729 206.79688 59.260414Q206.51562 59.947914 206.5 61.229164Q206.875 60.65104 207.42188 60.36979Q207.98438 60.08854 208.59375 60.08854Q209.64062 60.08854 210.375 60.86979Q211.125 61.65104 211.125 62.86979Q211.125 63.68229 210.76562 64.385414Q210.42188 65.072914 209.8125 65.447914Q209.20312 65.80729 208.4375 65.80729Q207.10938 65.80729 206.28125 64.83854Q205.45312 63.86979 205.45312 61.65104Q205.45312 59.15104 206.375 58.02604Q207.17188 57.041664 208.53125 57.041664Q209.54688 57.041664 210.1875 57.61979Q210.84375 58.18229 210.96875 59.18229ZM206.67188 62.885414Q206.67188 63.43229 206.89062 63.93229Q207.125 64.416664 207.53125 64.68229Q207.95312 64.947914 208.42188 64.947914Q209.07812 64.947914 209.5625 64.416664Q210.04688 63.86979 210.04688 62.947914Q210.04688 62.05729 209.5625 61.541664Q209.09375 61.02604 208.375 61.02604Q207.65625 61.02604 207.15625 61.541664Q206.67188 62.05729 206.67188 62.885414ZM215.875 65.666664L215.875 57.072914L217.01562 57.072914L217.01562 64.65104L221.25 64.65104L221.25 65.666664L215.875 65.666664ZM222.9375 65.666664L222.9375 57.072914L226.75 57.072914Q227.90625 57.072914 228.5 57.30729Q229.09375 57.541664 229.45312 58.135414Q229.8125 58.71354 229.8125 59.416664Q229.8125 60.33854 229.21875 60.96354Q228.625 61.58854 227.39062 61.760414Q227.84375 61.979164 228.07812 62.18229Q228.57812 62.635414 229.01562 63.322914L230.51562 65.666664L229.07812 65.666664L227.95312 63.885414Q227.45312 63.104164 227.125 62.697914Q226.8125 62.291664 226.54688 62.135414Q226.29688 61.96354 226.03125 61.885414Q225.84375 61.854164 225.40625 61.854164L224.07812 61.854164L224.07812 65.666664L222.9375 65.666664ZM224.07812 60.86979L226.53125 60.86979Q227.29688 60.86979 227.73438 60.71354Q228.1875 60.541664 228.40625 60.197914Q228.64062 59.83854 228.64062 59.416664Q228.64062 58.80729 228.1875 58.416664Q227.75 58.02604 226.79688 58.02604L224.07812 58.02604L224.07812 60.86979ZM237.34375 60.61979L231.67188 60.61979L231.67188 59.635414L237.34375 59.635414L237.34375 60.61979ZM237.34375 63.229164L231.67188 63.229164L231.67188 62.24479L237.34375 62.24479L237.34375 63.229164ZM238.5 61.43229Q238.5 59.90104 238.8125 58.979164Q239.125 58.041664 239.73438 57.541664Q240.35938 57.041664 241.29688 57.041664Q241.98438 57.041664 242.5 57.322914Q243.03125 57.604164 243.375 58.135414Q243.71875 58.65104 243.90625 59.40104Q244.09375 60.15104 244.09375 61.43229Q244.09375 62.947914 243.78125 63.86979Q243.48438 64.791664 242.85938 65.30729Q242.25 65.80729 241.29688 65.80729Q240.0625 65.80729 239.34375 64.916664Q238.5 63.854164 238.5 61.43229ZM239.57812 61.43229Q239.57812 63.541664 240.07812 64.24479Q240.57812 64.947914 241.29688 64.947914Q242.03125 64.947914 242.51562 64.24479Q243.01562 63.541664 243.01562 61.43229Q243.01562 59.30729 242.51562 58.61979Q242.03125 57.916664 241.28125 57.916664Q240.5625 57.916664 240.125 58.52604Q239.57812 59.30729 239.57812 61.43229ZM246.09375 65.666664L246.09375 64.46354L247.29688 64.46354L247.29688 65.666664L246.09375 65.666664ZM248.5 61.43229Q248.5 59.90104 248.8125 58.979164Q249.125 58.041664 249.73438 57.541664Q250.35938 57.041664 251.29688 57.041664Q251.98438 57.041664 252.5 57.322914Q253.03125 57.604164 253.375 58.135414Q253.71875 58.65104 253.90625 59.40104Q254.09375 60.15104 254.09375 61.43229Q254.09375 62.947914 253.78125 63.86979Q253.48438 64.791664 252.85938 65.30729Q252.25 65.80729 251.29688 65.80729Q250.0625 65.80729 249.34375 64.916664Q248.5 63.854164 248.5 61.43229ZM249.57812 61.43229Q249.57812 63.541664 250.07812 64.24479Q250.57812 64.947914 251.29688 64.947914Q252.03125 64.947914 252.51562 64.24479Q253.01562 63.541664 253.01562 61.43229Q253.01562 59.30729 252.51562 58.61979Q252.03125 57.916664 251.28125 57.916664Q250.5625 57.916664 250.125 58.52604Q249.57812 59.30729 249.57812 61.43229ZM255.5 61.43229Q255.5 59.90104 255.8125 58.979164Q256.125 58.041664 256.73438 57.541664Q257.35938 57.041664 258.29688 57.041664Q258.98438 57.041664 259.5 57.322914Q260.03125 57.604164 260.375 58.135414Q260.71875 58.65104 260.90625 59.40104Q261.09375 60.15104 261.09375 61.43229Q261.09375 62.947914 260.78125 63.86979Q260.48438 64.791664 259.85938 65.30729Q259.25 65.80729 258.29688 65.80729Q257.0625 65.80729 256.34375 64.916664Q255.5 63.854164 255.5 61.43229ZM256.57812 61.43229Q256.57812 63.541664 257.07812 64.24479Q257.57812 64.947914 258.29688 64.947914Q259.03125 64.947914 259.51562 64.24479Q260.01562 63.541664 260.01562 61.43229Q260.01562 59.30729 259.51562 58.61979Q259.03125 57.916664 258.28125 57.916664Q257.5625 57.916664 257.125 58.52604Q256.57812 59.30729 256.57812 61.43229ZM268.04688 64.65104L268.04688 65.666664L262.35938 65.666664Q262.35938 65.291664 262.48438 64.93229Q262.70312 64.354164 263.17188 63.791664Q263.65625 63.229164 264.5625 62.49479Q265.96875 61.33854 266.45312 60.666664Q266.95312 59.99479 266.95312 59.40104Q266.95312 58.77604 266.5 58.354164Q266.04688 57.916664 265.32812 57.916664Q264.5625 57.916664 264.10938 58.36979Q263.65625 58.822914 263.64062 59.635414L262.5625 59.52604Q262.67188 58.30729 263.39062 57.68229Q264.125 57.041664 265.35938 57.041664Q266.59375 57.041664 267.3125 57.729164Q268.03125 58.416664 268.03125 59.43229Q268.03125 59.947914 267.8125 60.447914Q267.60938 60.93229 267.10938 61.49479Q266.625 62.041664 265.5 62.99479Q264.54688 63.791664 264.26562 64.08854Q264.0 64.36979 263.82812 64.65104L268.04688 64.65104ZM269.5 63.416664L270.60938 63.322914Q270.73438 64.135414 271.17188 64.541664Q271.625 64.947914 272.26562 64.947914Q273.01562 64.947914 273.54688 64.36979Q274.07812 63.791664 274.07812 62.854164Q274.07812 61.947914 273.5625 61.43229Q273.0625 60.90104 272.23438 60.90104Q271.73438 60.90104 271.3125 61.135414Q270.90625 61.36979 270.67188 61.729164L269.6875 61.604164L270.51562 57.197914L274.79688 57.197914L274.79688 58.197914L271.35938 58.197914L270.90625 60.510414Q271.67188 59.96354 272.51562 59.96354Q273.64062 59.96354 274.40625 60.74479Q275.1875 61.52604 275.1875 62.760414Q275.1875 63.916664 274.51562 64.77604Q273.6875 65.80729 272.26562 65.80729Q271.09375 65.80729 270.34375 65.15104Q269.60938 64.49479 269.5 63.416664Z" fill-rule="nonzero"/><path stroke="#fbbc04" stroke-width="4.0" stroke-linecap="butt" d="M292.0 61.666668L304.0 61.666668" fill-rule="nonzero"/><path fill="#1a1a1a" d="M312.875 65.666664L312.875 57.072914L316.10938 57.072914Q317.09375 57.072914 317.6875 57.33854Q318.28125 57.604164 318.60938 58.15104Q318.95312 58.68229 318.95312 59.27604Q318.95312 59.822914 318.65625 60.30729Q318.35938 60.791664 317.75 61.08854Q318.53125 61.322914 318.9375 61.885414Q319.35938 62.43229 319.35938 63.18229Q319.35938 63.77604 319.10938 64.30729Q318.85938 64.822914 318.48438 65.104164Q318.10938 65.385414 317.53125 65.52604Q316.96875 65.666664 316.15625 65.666664L312.875 65.666664ZM314.01562 60.68229L315.875 60.68229Q316.625 60.68229 316.95312 60.58854Q317.39062 60.46354 317.60938 60.166664Q317.82812 59.854164 317.82812 59.40104Q317.82812 58.979164 317.625 58.65104Q317.42188 58.322914 317.03125 58.21354Q316.65625 58.08854 315.73438 58.08854L314.01562 58.08854L314.01562 60.68229ZM314.01562 64.65104L316.15625 64.65104Q316.70312 64.65104 316.92188 64.604164Q317.32812 64.541664 317.57812 64.385414Q317.84375 64.21354 318.01562 63.90104Q318.1875 63.58854 318.1875 63.18229Q318.1875 62.697914 317.9375 62.33854Q317.70312 61.979164 317.26562 61.83854Q316.82812 61.697914 316.0 61.697914L314.01562 61.697914L314.01562 64.65104ZM320.54688 62.90104L321.60938 62.80729Q321.6875 63.46354 321.96875 63.86979Q322.25 64.27604 322.82812 64.541664Q323.42188 64.791664 324.15625 64.791664Q324.79688 64.791664 325.29688 64.604164Q325.79688 64.40104 326.03125 64.072914Q326.28125 63.729164 326.28125 63.33854Q326.28125 62.93229 326.04688 62.635414Q325.8125 62.322914 325.28125 62.11979Q324.92188 61.979164 323.73438 61.697914Q322.5625 61.416664 322.09375 61.166664Q321.46875 60.83854 321.17188 60.36979Q320.875 59.885414 320.875 59.291664Q320.875 58.65104 321.23438 58.08854Q321.60938 57.510414 322.3125 57.229164Q323.03125 56.93229 323.89062 56.93229Q324.84375 56.93229 325.57812 57.24479Q326.3125 57.541664 326.70312 58.15104Q327.09375 58.74479 327.125 59.49479L326.03125 59.572914Q325.9375 58.760414 325.42188 58.354164Q324.92188 57.93229 323.9375 57.93229Q322.90625 57.93229 322.4375 58.30729Q321.96875 58.68229 321.96875 59.21354Q321.96875 59.68229 322.29688 59.979164Q322.625 60.27604 324.0 60.58854Q325.39062 60.90104 325.90625 61.135414Q326.65625 61.49479 327.01562 62.02604Q327.375 62.541664 327.375 63.24479Q327.375 63.93229 326.98438 64.541664Q326.59375 65.135414 325.85938 65.479164Q325.125 65.80729 324.20312 65.80729Q323.03125 65.80729 322.23438 65.479164Q321.45312 65.135414 321.0 64.447914Q320.5625 63.760414 320.54688 62.90104ZM334.34375 60.61979L328.67188 60.61979L328.67188 59.635414L334.34375 59.635414L334.34375 60.61979ZM334.34375 63.229164L328.67188 63.229164L328.67188 62.24479L334.34375 62.24479L334.34375 63.229164ZM335.5 63.416664L336.60938 63.322914Q336.73438 64.135414 337.17188 64.541664Q337.625 64.947914 338.26562 64.947914Q339.01562 64.947914 339.54688 64.36979Q340.07812 63.791664 340.07812 62.854164Q340.07812 61.947914 339.5625 61.43229Q339.0625 60.90104 338.23438 60.90104Q337.73438 60.90104 337.3125 61.135414Q336.90625 61.36979 336.67188 61.729164L335.6875 61.604164L336.51562 57.197914L340.79688 57.197914L340.79688 58.197914L337.35938 58.197914L336.90625 60.510414Q337.67188 59.96354 338.51562 59.96354Q339.64062 59.96354 340.40625 60.74479Q341.1875 61.52604 341.1875 62.760414Q341.1875 63.916664 340.51562 64.77604Q339.6875 65.80729 338.26562 65.80729Q337.09375 65.80729 336.34375 65.15104Q335.60938 64.49479 335.5 63.416664ZM346.46875 65.666664L345.42188 65.666664L345.42188 58.947914Q345.03125 59.30729 344.40625 59.68229Q343.79688 60.041664 343.3125 60.21354L343.3125 59.197914Q344.1875 58.77604 344.84375 58.197914Q345.51562 57.604164 345.79688 57.041664L346.46875 57.041664L346.46875 65.666664ZM355.04688 64.65104L355.04688 65.666664L349.35938 65.666664Q349.35938 65.291664 349.48438 64.93229Q349.70312 64.354164 350.17188 63.791664Q350.65625 63.229164 351.5625 62.49479Q352.96875 61.33854 353.45312 60.666664Q353.95312 59.99479 353.95312 59.40104Q353.95312 58.77604 353.5 58.354164Q353.04688 57.916664 352.32812 57.916664Q351.5625 57.916664 351.10938 58.36979Q350.65625 58.822914 350.64062 59.635414L349.5625 59.52604Q349.67188 58.30729 350.39062 57.68229Q351.125 57.041664 352.35938 57.041664Q353.59375 57.041664 354.3125 57.729164Q355.03125 58.416664 355.03125 59.43229Q355.03125 59.947914 354.8125 60.447914Q354.60938 60.93229 354.10938 61.49479Q353.625 62.041664 352.5 62.99479Q351.54688 63.791664 351.26562 64.08854Q351.0 64.36979 350.82812 64.65104L355.04688 64.65104ZM359.875 65.666664L359.875 57.072914L361.01562 57.072914L361.01562 64.65104L365.25 64.65104L365.25 65.666664L359.875 65.666664ZM366.9375 65.666664L366.9375 57.072914L370.75 57.072914Q371.90625 57.072914 372.5 57.30729Q373.09375 57.541664 373.45312 58.135414Q373.8125 58.71354 373.8125 59.416664Q373.8125 60.33854 373.21875 60.96354Q372.625 61.58854 371.39062 61.760414Q371.84375 61.979164 372.07812 62.18229Q372.57812 62.635414 373.01562 63.322914L374.51562 65.666664L373.07812 65.666664L371.95312 63.885414Q371.45312 63.104164 371.125 62.697914Q370.8125 62.291664 370.54688 62.135414Q370.29688 61.96354 370.03125 61.885414Q369.84375 61.854164 369.40625 61.854164L368.07812 61.854164L368.07812 65.666664L366.9375 65.666664ZM368.07812 60.86979L370.53125 60.86979Q371.29688 60.86979 371.73438 60.71354Q372.1875 60.541664 372.40625 60.197914Q372.64062 59.83854 372.64062 59.416664Q372.64062 58.80729 372.1875 58.416664Q371.75 58.02604 370.79688 58.02604L368.07812 58.02604L368.07812 60.86979ZM381.34375 60.61979L375.67188 60.61979L375.67188 59.635414L381.34375 59.635414L381.34375 60.61979ZM381.34375 63.229164L375.67188 63.229164L375.67188 62.24479L381.34375 62.24479L381.34375 63.229164ZM382.5 61.43229Q382.5 59.90104 382.8125 58.979164Q383.125 58.041664 383.73438 57.541664Q384.35938 57.041664 385.29688 57.041664Q385.98438 57.041664 386.5 57.322914Q387.03125 57.604164 387.375 58.135414Q387.71875 58.65104 387.90625 59.40104Q388.09375 60.15104 388.09375 61.43229Q388.09375 62.947914 387.78125 63.86979Q387.48438 64.791664 386.85938 65.30729Q386.25 65.80729 385.29688 65.80729Q384.0625 65.80729 383.34375 64.916664Q382.5 63.854164 382.5 61.43229ZM383.57812 61.43229Q383.57812 63.541664 384.07812 64.24479Q384.57812 64.947914 385.29688 64.947914Q386.03125 64.947914 386.51562 64.24479Q387.01562 63.541664 387.01562 61.43229Q387.01562 59.30729 386.51562 58.61979Q386.03125 57.916664 385.28125 57.916664Q384.5625 57.916664 384.125 58.52604Q383.57812 59.30729 383.57812 61.43229ZM390.09375 65.666664L390.09375 64.46354L391.29688 64.46354L391.29688 65.666664L390.09375 65.666664ZM392.5 61.43229Q392.5 59.90104 392.8125 58.979164Q393.125 58.041664 393.73438 57.541664Q394.35938 57.041664 395.29688 57.041664Q395.98438 57.041664 396.5 57.322914Q397.03125 57.604164 397.375 58.135414Q397.71875 58.65104 397.90625 59.40104Q398.09375 60.15104 398.09375 61.43229Q398.09375 62.947914 397.78125 63.86979Q397.48438 64.791664 396.85938 65.30729Q396.25 65.80729 395.29688 65.80729Q394.0625 65.80729 393.34375 64.916664Q392.5 63.854164 392.5 61.43229ZM393.57812 61.43229Q393.57812 63.541664 394.07812 64.24479Q394.57812 64.947914 395.29688 64.947914Q396.03125 64.947914 396.51562 64.24479Q397.01562 63.541664 397.01562 61.43229Q397.01562 59.30729 396.51562 58.61979Q396.03125 57.916664 395.28125 57.916664Q394.5625 57.916664 394.125 58.52604Q393.57812 59.30729 393.57812 61.43229ZM399.5 61.43229Q399.5 59.90104 399.8125 58.979164Q400.125 58.041664 400.73438 57.541664Q401.35938 57.041664 402.29688 57.041664Q402.98438 57.041664 403.5 57.322914Q404.03125 57.604164 404.375 58.135414Q404.71875 58.65104 404.90625 59.40104Q405.09375 60.15104 405.09375 61.43229Q405.09375 62.947914 404.78125 63.86979Q404.48438 64.791664 403.85938 65.30729Q403.25 65.80729 402.29688 65.80729Q401.0625 65.80729 400.34375 64.916664Q399.5 63.854164 399.5 61.43229ZM400.57812 61.43229Q400.57812 63.541664 401.07812 64.24479Q401.57812 64.947914 402.29688 64.947914Q403.03125 64.947914 403.51562 64.24479Q404.01562 63.541664 404.01562 61.43229Q404.01562 59.30729 403.51562 58.61979Q403.03125 57.916664 402.28125 57.916664Q401.5625 57.916664 401.125 58.52604Q400.57812 59.30729 400.57812 61.43229ZM410.46875 65.666664L409.42188 65.666664L409.42188 58.947914Q409.03125 59.30729 408.40625 59.68229Q407.79688 60.041664 407.3125 60.21354L407.3125 59.197914Q408.1875 58.77604 408.84375 58.197914Q409.51562 57.604164 409.79688 57.041664L410.46875 57.041664L410.46875 65.666664Z" fill-rule="nonzero"/><path stroke="#34a853" stroke-width="4.0" stroke-linecap="butt" d="M429.0 61.666668L441.0 61.666668" fill-rule="nonzero"/><path fill="#1a1a1a" d="M449.875 65.666664L449.875 57.072914L453.10938 57.072914Q454.09375 57.072914 454.6875 57.33854Q455.28125 57.604164 455.60938 58.15104Q455.95312 58.68229 455.95312 59.27604Q455.95312 59.822914 455.65625 60.30729Q455.35938 60.791664 454.75 61.08854Q455.53125 61.322914 455.9375 61.885414Q456.35938 62.43229 456.35938 63.18229Q456.35938 63.77604 456.10938 64.30729Q455.85938 64.822914 455.48438 65.104164Q455.10938 65.385414 454.53125 65.52604Q453.96875 65.666664 453.15625 65.666664L449.875 65.666664ZM451.01562 60.68229L452.875 60.68229Q453.625 60.68229 453.95312 60.58854Q454.39062 60.46354 454.60938 60.166664Q454.82812 59.854164 454.82812 59.40104Q454.82812 58.979164 454.625 58.65104Q454.42188 58.322914 454.03125 58.21354Q453.65625 58.08854 452.73438 58.08854L451.01562 58.08854L451.01562 60.68229ZM451.01562 64.65104L453.15625 64.65104Q453.70312 64.65104 453.92188 64.604164Q454.32812 64.541664 454.57812 64.385414Q454.84375 64.21354 455.01562 63.90104Q455.1875 63.58854 455.1875 63.18229Q455.1875 62.697914 454.9375 62.33854Q454.70312 61.979164 454.26562 61.83854Q453.82812 61.697914 453.0 61.697914L451.01562 61.697914L451.01562 64.65104ZM457.54688 62.90104L458.60938 62.80729Q458.6875 63.46354 458.96875 63.86979Q459.25 64.27604 459.82812 64.541664Q460.42188 64.791664 461.15625 64.791664Q461.79688 64.791664 462.29688 64.604164Q462.79688 64.40104 463.03125 64.072914Q463.28125 63.729164 463.28125 63.33854Q463.28125 62.93229 463.04688 62.635414Q462.8125 62.322914 462.28125 62.11979Q461.92188 61.979164 460.73438 61.697914Q459.5625 61.416664 459.09375 61.166664Q458.46875 60.83854 458.17188 60.36979Q457.875 59.885414 457.875 59.291664Q457.875 58.65104 458.23438 58.08854Q458.60938 57.510414 459.3125 57.229164Q460.03125 56.93229 460.89062 56.93229Q461.84375 56.93229 462.57812 57.24479Q463.3125 57.541664 463.70312 58.15104Q464.09375 58.74479 464.125 59.49479L463.03125 59.572914Q462.9375 58.760414 462.42188 58.354164Q461.92188 57.93229 460.9375 57.93229Q459.90625 57.93229 459.4375 58.30729Q458.96875 58.68229 458.96875 59.21354Q458.96875 59.68229 459.29688 59.979164Q459.625 60.27604 461.0 60.58854Q462.39062 60.90104 462.90625 61.135414Q463.65625 61.49479 464.01562 62.02604Q464.375 62.541664 464.375 63.24479Q464.375 63.93229 463.98438 64.541664Q463.59375 65.135414 462.85938 65.479164Q462.125 65.80729 461.20312 65.80729Q460.03125 65.80729 459.23438 65.479164Q458.45312 65.135414 458.0 64.447914Q457.5625 63.760414 457.54688 62.90104ZM471.34375 60.61979L465.67188 60.61979L465.67188 59.635414L471.34375 59.635414L471.34375 60.61979ZM471.34375 63.229164L465.67188 63.229164L465.67188 62.24479L471.34375 62.24479L471.34375 63.229164ZM476.46875 65.666664L475.42188 65.666664L475.42188 58.947914Q475.03125 59.30729 474.40625 59.68229Q473.79688 60.041664 473.3125 60.21354L473.3125 59.197914Q474.1875 58.77604 474.84375 58.197914Q475.51562 57.604164 475.79688 57.041664L476.46875 57.041664L476.46875 65.666664ZM479.5 61.43229Q479.5 59.90104 479.8125 58.979164Q480.125 58.041664 480.73438 57.541664Q481.35938 57.041664 482.29688 57.041664Q482.98438 57.041664 483.5 57.322914Q484.03125 57.604164 484.375 58.135414Q484.71875 58.65104 484.90625 59.40104Q485.09375 60.15104 485.09375 61.43229Q485.09375 62.947914 484.78125 63.86979Q484.48438 64.791664 483.85938 65.30729Q483.25 65.80729 482.29688 65.80729Q481.0625 65.80729 480.34375 64.916664Q479.5 63.854164 479.5 61.43229ZM480.57812 61.43229Q480.57812 63.541664 481.07812 64.24479Q481.57812 64.947914 482.29688 64.947914Q483.03125 64.947914 483.51562 64.24479Q484.01562 63.541664 484.01562 61.43229Q484.01562 59.30729 483.51562 58.61979Q483.03125 57.916664 482.28125 57.916664Q481.5625 57.916664 481.125 58.52604Q480.57812 59.30729 480.57812 61.43229ZM492.04688 64.65104L492.04688 65.666664L486.35938 65.666664Q486.35938 65.291664 486.48438 64.93229Q486.70312 64.354164 487.17188 63.791664Q487.65625 63.229164 488.5625 62.49479Q489.96875 61.33854 490.45312 60.666664Q490.95312 59.99479 490.95312 59.40104Q490.95312 58.77604 490.5 58.354164Q490.04688 57.916664 489.32812 57.916664Q488.5625 57.916664 488.10938 58.36979Q487.65625 58.822914 487.64062 59.635414L486.5625 59.52604Q486.67188 58.30729 487.39062 57.68229Q488.125 57.041664 489.35938 57.041664Q490.59375 57.041664 491.3125 57.729164Q492.03125 58.416664 492.03125 59.43229Q492.03125 59.947914 491.8125 60.447914Q491.60938 60.93229 491.10938 61.49479Q490.625 62.041664 489.5 62.99479Q488.54688 63.791664 488.26562 64.08854Q488.0 64.36979 487.82812 64.65104L492.04688 64.65104ZM496.875 65.666664L496.875 63.604164L493.15625 63.604164L493.15625 62.635414L497.07812 57.072914L497.9375 57.072914L497.9375 62.635414L499.09375 62.635414L499.09375 63.604164L497.9375 63.604164L497.9375 65.666664L496.875 65.666664ZM496.875 62.635414L496.875 58.77604L494.1875 62.635414L496.875 62.635414ZM503.875 65.666664L503.875 57.072914L505.01562 57.072914L505.01562 64.65104L509.25 64.65104L509.25 65.666664L503.875 65.666664ZM510.9375 65.666664L510.9375 57.072914L514.75 57.072914Q515.90625 57.072914 516.5 57.30729Q517.09375 57.541664 517.4531 58.135414Q517.8125 58.71354 517.8125 59.416664Q517.8125 60.33854 517.21875 60.96354Q516.625 61.58854 515.3906 61.760414Q515.84375 61.979164 516.0781 62.18229Q516.5781 62.635414 517.0156 63.322914L518.5156 65.666664L517.0781 65.666664L515.9531 63.885414Q515.4531 63.104164 515.125 62.697914Q514.8125 62.291664 514.5469 62.135414Q514.2969 61.96354 514.03125 61.885414Q513.84375 61.854164 513.40625 61.854164L512.0781 61.854164L512.0781 65.666664L510.9375 65.666664ZM512.0781 60.86979L514.53125 60.86979Q515.2969 60.86979 515.7344 60.71354Q516.1875 60.541664 516.40625 60.197914Q516.6406 59.83854 516.6406 59.416664Q516.6406 58.80729 516.1875 58.416664Q515.75 58.02604 514.7969 58.02604L512.0781 58.02604L512.0781 60.86979ZM525.34375 60.61979L519.6719 60.61979L519.6719 59.635414L525.34375 59.635414L525.34375 60.61979ZM525.34375 63.229164L519.6719 63.229164L519.6719 62.24479L525.34375 62.24479L525.34375 63.229164ZM526.5 61.43229Q526.5 59.90104 526.8125 58.979164Q527.125 58.041664 527.7344 57.541664Q528.3594 57.041664 529.2969 57.041664Q529.9844 57.041664 530.5 57.322914Q531.03125 57.604164 531.375 58.135414Q531.71875 58.65104 531.90625 59.40104Q532.09375 60.15104 532.09375 61.43229Q532.09375 62.947914 531.78125 63.86979Q531.4844 64.791664 530.8594 65.30729Q530.25 65.80729 529.2969 65.80729Q528.0625 65.80729 527.34375 64.916664Q526.5 63.854164 526.5 61.43229ZM527.5781 61.43229Q527.5781 63.541664 528.0781 64.24479Q528.5781 64.947914 529.2969 64.947914Q530.03125 64.947914 530.5156 64.24479Q531.0156 63.541664 531.0156 61.43229Q531.0156 59.30729 530.5156 58.61979Q530.03125 57.916664 529.28125 57.916664Q528.5625 57.916664 528.125 58.52604Q527.5781 59.30729 527.5781 61.43229ZM534.09375 65.666664L534.09375 64.46354L535.2969 64.46354L535.2969 65.666664L534.09375 65.666664ZM536.5 61.43229Q536.5 59.90104 536.8125 58.979164Q537.125 58.041664 537.7344 57.541664Q538.3594 57.041664 539.2969 57.041664Q539.9844 57.041664 540.5 57.322914Q541.03125 57.604164 541.375 58.135414Q541.71875 58.65104 541.90625 59.40104Q542.09375 60.15104 542.09375 61.43229Q542.09375 62.947914 541.78125 63.86979Q541.4844 64.791664 540.8594 65.30729Q540.25 65.80729 539.2969 65.80729Q538.0625 65.80729 537.34375 64.916664Q536.5 63.854164 536.5 61.43229ZM537.5781 61.43229Q537.5781 63.541664 538.0781 64.24479Q538.5781 64.947914 539.2969 64.947914Q540.03125 64.947914 540.5156 64.24479Q541.0156 63.541664 541.0156 61.43229Q541.0156 59.30729 540.5156 58.61979Q540.03125 57.916664 539.28125 57.916664Q538.5625 57.916664 538.125 58.52604Q537.5781 59.30729 537.5781 61.43229ZM543.5 61.43229Q543.5 59.90104 543.8125 58.979164Q544.125 58.041664 544.7344 57.541664Q545.3594 57.041664 546.2969 57.041664Q546.9844 57.041664 547.5 57.322914Q548.03125 57.604164 548.375 58.135414Q548.71875 58.65104 548.90625 59.40104Q549.09375 60.15104 549.09375 61.43229Q549.09375 62.947914 548.78125 63.86979Q548.4844 64.791664 547.8594 65.30729Q547.25 65.80729 546.2969 65.80729Q545.0625 65.80729 544.34375 64.916664Q543.5 63.854164 543.5 61.43229ZM544.5781 61.43229Q544.5781 63.541664 545.0781 64.24479Q545.5781 64.947914 546.2969 64.947914Q547.03125 64.947914 547.5156 64.24479Q548.0156 63.541664 548.0156 61.43229Q548.0156 59.30729 547.5156 58.61979Q547.03125 57.916664 546.28125 57.916664Q545.5625 57.916664 545.125 58.52604Q544.5781 59.30729 544.5781 61.43229ZM550.5 61.43229Q550.5 59.90104 550.8125 58.979164Q551.125 58.041664 551.7344 57.541664Q552.3594 57.041664 553.2969 57.041664Q553.9844 57.041664 554.5 57.322914Q555.03125 57.604164 555.375 58.135414Q555.71875 58.65104 555.90625 59.40104Q556.09375 60.15104 556.09375 61.43229Q556.09375 62.947914 555.78125 63.86979Q555.4844 64.791664 554.8594 65.30729Q554.25 65.80729 553.2969 65.80729Q552.0625 65.80729 551.34375 64.916664Q550.5 63.854164 550.5 61.43229ZM551.5781 61.43229Q551.5781 63.541664 552.0781 64.24479Q552.5781 64.947914 553.2969 64.947914Q554.03125 64.947914 554.5156 64.24479Q555.0156 63.541664 555.0156 61.43229Q555.0156 59.30729 554.5156 58.61979Q554.03125 57.916664 553.28125 57.916664Q552.5625 57.916664 552.125 58.52604Q551.5781 59.30729 551.5781 61.43229ZM557.5 63.416664L558.6094 63.322914Q558.7344 64.135414 559.1719 64.541664Q559.625 64.947914 560.2656 64.947914Q561.0156 64.947914 561.5469 64.36979Q562.0781 63.791664 562.0781 62.854164Q562.0781 61.947914 561.5625 61.43229Q561.0625 60.90104 560.2344 60.90104Q559.7344 60.90104 559.3125 61.135414Q558.90625 61.36979 558.6719 61.729164L557.6875 61.604164L558.5156 57.197914L562.7969 57.197914L562.7969 58.197914L559.3594 58.197914L558.90625 60.510414Q559.6719 59.96354 560.5156 59.96354Q561.6406 59.96354 562.40625 60.74479Q563.1875 61.52604 563.1875 62.760414Q563.1875 63.916664 562.5156 64.77604Q561.6875 65.80729 560.2656 65.80729Q559.09375 65.80729 558.34375 65.15104Q557.6094 64.49479 557.5 63.416664Z" fill-rule="nonzero"/><path fill="#757575" d="M19.36875 30.431252Q19.36875 26.868752 21.275 24.853127Q23.196875 22.821877 26.228125 22.821877Q28.2125 22.821877 29.790625 23.775002Q31.384375 24.728127 32.2125 26.431252Q33.05625 28.118752 33.05625 30.259377Q33.05625 32.43125 32.18125 34.15Q31.30625 35.86875 29.68125 36.759377Q28.071875 37.65 26.2125 37.65Q24.196875 37.65 22.603125 36.68125Q21.009375 35.696877 20.18125 34.009377Q19.36875 32.30625 19.36875 30.431252ZM21.321875 30.462502Q21.321875 33.040627 22.7125 34.540627Q24.103125 36.025 26.196875 36.025Q28.3375 36.025 29.7125 34.525Q31.103125 33.009377 31.103125 30.243752Q31.103125 28.509377 30.509375 27.212502Q29.93125 25.900002 28.790625 25.181252Q27.65 24.462502 26.228125 24.462502Q24.228125 24.462502 22.775 25.853127Q21.321875 27.228127 21.321875 30.462502ZM35.7125 41.36875L35.7125 27.025002L37.321877 27.025002L37.321877 28.368752Q37.884377 27.587502 38.5875 27.196877Q39.30625 26.790627 40.321877 26.790627Q41.65 26.790627 42.665627 27.478127Q43.68125 28.165627 44.196877 29.415627Q44.728127 30.650002 44.728127 32.134377Q44.728127 33.728127 44.15 35.009377Q43.5875 36.275 42.49375 36.9625Q41.4 37.634377 40.196877 37.634377Q39.321877 37.634377 38.61875 37.259377Q37.93125 36.884377 37.478127 36.321877L37.478127 41.36875L35.7125 41.36875ZM37.30625 32.275Q37.30625 34.275 38.11875 35.228127Q38.93125 36.18125 40.0875 36.18125Q41.259377 36.18125 42.0875 35.196877Q42.93125 34.2125 42.93125 32.11875Q42.93125 30.150002 42.103127 29.165627Q41.290627 28.165627 40.165627 28.165627Q39.040627 28.165627 38.165627 29.228127Q37.30625 30.275002 37.30625 32.275ZM53.821877 34.05625L55.634377 34.290627Q55.2125 35.86875 54.040627 36.759377Q52.884377 37.634377 51.071877 37.634377Q48.80625 37.634377 47.4625 36.24375Q46.134377 34.8375 46.134377 32.30625Q46.134377 29.681252 47.478127 28.243752Q48.821877 26.790627 50.978127 26.790627Q53.05625 26.790627 54.36875 28.212502Q55.696877 29.618752 55.696877 32.196877Q55.696877 32.353127 55.68125 32.665627L47.946877 32.665627Q48.040627 34.36875 48.915627 35.275Q49.790627 36.18125 51.0875 36.18125Q52.05625 36.18125 52.728127 35.68125Q53.415627 35.165627 53.821877 34.05625ZM48.040627 31.212502L53.8375 31.212502Q53.728127 29.915627 53.18125 29.259377Q52.3375 28.243752 50.99375 28.243752Q49.790627 28.243752 48.9625 29.056252Q48.134377 29.853127 48.040627 31.212502ZM57.7125 37.4L57.7125 27.025002L59.30625 27.025002L59.30625 28.509377Q60.446877 26.790627 62.603127 26.790627Q63.540627 26.790627 64.32188 27.134377Q65.11875 27.462502 65.50938 28.009377Q65.9 28.556252 66.05625 29.306252Q66.15 29.806252 66.15 31.025002L66.15 37.4L64.38438 37.4L64.38438 31.087502Q64.38438 30.009377 64.18125 29.478127Q63.978127 28.946877 63.446877 28.634377Q62.93125 28.321877 62.228127 28.321877Q61.103127 28.321877 60.290627 29.040627Q59.478127 29.743752 59.478127 31.728127L59.478127 37.4L57.7125 37.4ZM67.88438 37.4L67.88438 23.087502L70.74375 23.087502L74.11875 33.2125Q74.5875 34.634377 74.80625 35.3375Q75.05625 34.55625 75.57188 33.040627L78.99375 23.087502L81.54063 23.087502L81.54063 37.4L79.72813 37.4L79.72813 25.415627L75.55625 37.4L73.85313 37.4L69.7125 25.212502L69.7125 37.4L67.88438 37.4ZM84.94688 37.4L84.94688 23.087502L90.3375 23.087502Q91.775 23.087502 92.525 23.212502Q93.57188 23.400002 94.29063 23.900002Q95.00938 24.384377 95.43125 25.275002Q95.86875 26.165627 95.86875 27.228127Q95.86875 29.056252 94.69688 30.321877Q93.54063 31.571877 90.50938 31.571877L86.8375 31.571877L86.8375 37.4L84.94688 37.4ZM86.8375 29.884377L90.54063 29.884377Q92.36875 29.884377 93.13438 29.212502Q93.91563 28.525002 93.91563 27.275002Q93.91563 26.384377 93.4625 25.743752Q93.00938 25.103127 92.275 24.900002Q91.79063 24.775002 90.49375 24.775002L86.8375 24.775002L86.8375 29.884377ZM107.5875 37.4L107.5875 24.775002L102.86875 24.775002L102.86875 23.087502L114.2125 23.087502L114.2125 24.775002L109.47813 24.775002L109.47813 37.4L107.5875 37.4ZM115.07188 32.2125Q115.07188 29.337502 116.66563 27.946877Q118.00938 26.790627 119.93125 26.790627Q122.07188 26.790627 123.41563 28.196877Q124.775 29.603127 124.775 32.071877Q124.775 34.071877 124.18125 35.228127Q123.5875 36.36875 122.43125 37.009377Q121.29063 37.634377 119.93125 37.634377Q117.74375 37.634377 116.4 36.24375Q115.07188 34.8375 115.07188 32.2125ZM116.86875 32.2125Q116.86875 34.2125 117.72813 35.196877Q118.60313 36.18125 119.93125 36.18125Q121.24375 36.18125 122.10313 35.196877Q122.97813 34.196877 122.97813 32.15Q122.97813 30.228127 122.10313 29.243752Q121.22813 28.243752 119.93125 28.243752Q118.60313 28.243752 117.72813 29.243752Q116.86875 30.228127 116.86875 32.2125ZM130.55624 35.821877L130.80624 37.384377Q130.07187 37.540627 129.47812 37.540627Q128.525 37.540627 127.99375 37.24375Q127.47813 36.93125 127.25938 36.446877Q127.04063 35.946877 127.04063 34.36875L127.04063 28.400002L125.75938 28.400002L125.75938 27.025002L127.04063 27.025002L127.04063 24.462502L128.79062 23.400002L128.79062 27.025002L130.55624 27.025002L130.55624 28.400002L128.79062 28.400002L128.79062 34.4625Q128.79062 35.2125 128.88437 35.43125Q128.97812 35.634377 129.18124 35.775Q129.4 35.9 129.79062 35.9Q130.07187 35.9 130.55624 35.821877ZM139.49374 36.11875Q138.50937 36.946877 137.60312 37.290627Q136.69687 37.634377 135.66562 37.634377Q133.9625 37.634377 133.04062 36.80625Q132.11874 35.9625 132.11874 34.665627Q132.11874 33.9 132.4625 33.275Q132.82187 32.65 133.38437 32.275Q133.94687 31.884377 134.65 31.681252Q135.16562 31.556252 136.2125 31.415627Q138.3375 31.165627 139.3375 30.821877Q139.35312 30.462502 139.35312 30.353127Q139.35312 29.290627 138.85312 28.837502Q138.18124 28.243752 136.85312 28.243752Q135.60312 28.243752 135.00937 28.681252Q134.43124 29.118752 134.15 30.228127L132.43124 29.993752Q132.66562 28.884377 133.19687 28.212502Q133.72812 27.525002 134.74374 27.165627Q135.75937 26.790627 137.10312 26.790627Q138.43124 26.790627 139.25937 27.103127Q140.0875 27.415627 140.47812 27.900002Q140.86874 28.368752 141.025 29.087502Q141.11874 29.540627 141.11874 30.712502L141.11874 33.05625Q141.11874 35.509377 141.22812 36.165627Q141.3375 36.80625 141.68124 37.4L139.8375 37.4Q139.57187 36.853127 139.49374 36.11875ZM139.3375 32.196877Q138.38437 32.5875 136.4625 32.853127Q135.38437 33.009377 134.93124 33.2125Q134.49374 33.4 134.24374 33.775Q133.99374 34.15 133.99374 34.61875Q133.99374 35.321877 134.525 35.790627Q135.05624 36.259377 136.0875 36.259377Q137.10312 36.259377 137.88437 35.821877Q138.68124 35.36875 139.05624 34.603127Q139.3375 33.99375 139.3375 32.8375L139.3375 32.196877ZM143.68124 37.4L143.68124 23.087502L145.43124 23.087502L145.43124 37.4L143.68124 37.4ZM153.97812 37.4L153.97812 23.087502L164.3375 23.087502L164.3375 24.775002L155.88437 24.775002L155.88437 29.150002L163.79062 29.150002L163.79062 30.837502L155.88437 30.837502L155.88437 35.7125L164.66562 35.7125L164.66562 37.4L153.97812 37.4ZM166.7125 41.36875L166.7125 27.025002L168.32187 27.025002L168.32187 28.368752Q168.88437 27.587502 169.5875 27.196877Q170.30624 26.790627 171.32187 26.790627Q172.65 26.790627 173.66562 27.478127Q174.68124 28.165627 175.19687 29.415627Q175.72812 30.650002 175.72812 32.134377Q175.72812 33.728127 175.15 35.009377Q174.5875 36.275 173.49374 36.9625Q172.4 37.634377 171.19687 37.634377Q170.32187 37.634377 169.61874 37.259377Q168.93124 36.884377 168.47812 36.321877L168.47812 41.36875L166.7125 41.36875ZM168.30624 32.275Q168.30624 34.275 169.11874 35.228127Q169.93124 36.18125 171.0875 36.18125Q172.25937 36.18125 173.0875 35.196877Q173.93124 34.2125 173.93124 32.11875Q173.93124 30.150002 173.10312 29.165627Q172.29062 28.165627 171.16562 28.165627Q170.04062 28.165627 169.16562 29.228127Q168.30624 30.275002 168.30624 32.275ZM177.07187 32.2125Q177.07187 29.337502 178.66562 27.946877Q180.00937 26.790627 181.93124 26.790627Q184.07187 26.790627 185.41562 28.196877Q186.775 29.603127 186.775 32.071877Q186.775 34.071877 186.18124 35.228127Q185.5875 36.36875 184.43124 37.009377Q183.29062 37.634377 181.93124 37.634377Q179.74374 37.634377 178.4 36.24375Q177.07187 34.8375 177.07187 32.2125ZM178.86874 32.2125Q178.86874 34.2125 179.72812 35.196877Q180.60312 36.18125 181.93124 36.18125Q183.24374 36.18125 184.10312 35.196877Q184.97812 34.196877 184.97812 32.15Q184.97812 30.228127 184.10312 29.243752Q183.22812 28.243752 181.93124 28.243752Q180.60312 28.243752 179.72812 29.243752Q178.86874 30.228127 178.86874 32.2125ZM195.49374 33.603127L197.2125 33.821877Q196.93124 35.61875 195.75937 36.634377Q194.60312 37.634377 192.9 37.634377Q190.775 37.634377 189.47812 36.24375Q188.18124 34.853127 188.18124 32.259377Q188.18124 30.571877 188.72812 29.321877Q189.29062 28.056252 190.43124 27.431252Q191.57187 26.790627 192.91562 26.790627Q194.60312 26.790627 195.66562 27.650002Q196.74374 28.509377 197.05624 30.071877L195.3375 30.337502Q195.10312 29.290627 194.47812 28.775002Q193.85312 28.243752 192.97812 28.243752Q191.65 28.243752 190.82187 29.196877Q189.99374 30.150002 189.99374 32.196877Q189.99374 34.290627 190.79062 35.24375Q191.5875 36.18125 192.88437 36.18125Q193.91562 36.18125 194.60312 35.55625Q195.30624 34.915627 195.49374 33.603127ZM198.7125 37.4L198.7125 23.087502L200.47812 23.087502L200.47812 28.212502Q201.7125 26.790627 203.5875 26.790627Q204.72812 26.790627 205.57187 27.243752Q206.43124 27.696877 206.79062 28.509377Q207.16562 29.306252 207.16562 30.821877L207.16562 37.4L205.41562 37.4L205.41562 30.821877Q205.41562 29.509377 204.8375 28.915627Q204.25937 28.306252 203.22812 28.306252Q202.44687 28.306252 201.74374 28.712502Q201.05624 29.118752 200.75937 29.821877Q200.47812 30.509377 200.47812 31.728127L200.47812 37.4L198.7125 37.4ZM214.30624 32.80625L216.0875 32.65Q216.2125 33.7125 216.66562 34.4Q217.13437 35.0875 218.10312 35.525Q219.0875 35.946877 220.32187 35.946877Q221.4 35.946877 222.22812 35.634377Q223.05624 35.30625 223.4625 34.74375Q223.86874 34.18125 223.86874 33.509377Q223.86874 32.8375 223.47812 32.3375Q223.0875 31.837502 222.19687 31.493752Q221.61874 31.259377 219.63437 30.790627Q217.66562 30.321877 216.88437 29.900002Q215.85312 29.368752 215.35312 28.571877Q214.85312 27.775002 214.85312 26.790627Q214.85312 25.696877 215.4625 24.759377Q216.07187 23.821877 217.25937 23.337502Q218.44687 22.837502 219.88437 22.837502Q221.47812 22.837502 222.69687 23.353127Q223.91562 23.868752 224.55624 24.868752Q225.2125 25.853127 225.25937 27.118752L223.44687 27.259377Q223.30624 25.900002 222.4625 25.212502Q221.61874 24.509377 219.9625 24.509377Q218.24374 24.509377 217.44687 25.150002Q216.66562 25.775002 216.66562 26.650002Q216.66562 27.431252 217.22812 27.931252Q217.775 28.431252 220.0875 28.946877Q222.4 29.462502 223.25937 29.853127Q224.50937 30.431252 225.10312 31.321877Q225.69687 32.196877 225.69687 33.353127Q225.69687 34.49375 225.04062 35.509377Q224.38437 36.525 223.15 37.0875Q221.93124 37.65 220.4 37.65Q218.4625 37.65 217.15 37.0875Q215.8375 36.509377 215.0875 35.36875Q214.3375 34.228127 214.30624 32.80625ZM227.7125 41.36875L227.7125 27.025002L229.32187 27.025002L229.32187 28.368752Q229.88437 27.587502 230.5875 27.196877Q231.30624 26.790627 232.32187 26.790627Q233.65 26.790627 234.66562 27.478127Q235.68124 28.165627 236.19687 29.415627Q236.72812 30.650002 236.72812 32.134377Q236.72812 33.728127 236.15 35.009377Q235.5875 36.275 234.49374 36.9625Q233.4 37.634377 232.19687 37.634377Q231.32187 37.634377 230.61874 37.259377Q229.93124 36.884377 229.47812 36.321877L229.47812 41.36875L227.7125 41.36875ZM229.30624 32.275Q229.30624 34.275 230.11874 35.228127Q230.93124 36.18125 232.0875 36.18125Q233.25937 36.18125 234.0875 35.196877Q234.93124 34.2125 234.93124 32.11875Q234.93124 30.150002 234.10312 29.165627Q233.29062 28.165627 232.16562 28.165627Q231.04062 28.165627 230.16562 29.228127Q229.30624 30.275002 229.30624 32.275ZM245.82187 34.05625L247.63437 34.290627Q247.2125 35.86875 246.04062 36.759377Q244.88437 37.634377 243.07187 37.634377Q240.80624 37.634377 239.4625 36.24375Q238.13437 34.8375 238.13437 32.30625Q238.13437 29.681252 239.47812 28.243752Q240.82187 26.790627 242.97812 26.790627Q245.05624 26.790627 246.36874 28.212502Q247.69687 29.618752 247.69687 32.196877Q247.69687 32.353127 247.68124 32.665627L239.94687 32.665627Q240.04062 34.36875 240.91562 35.275Q241.79062 36.18125 243.0875 36.18125Q244.05624 36.18125 244.72812 35.68125Q245.41562 35.165627 245.82187 34.05625ZM240.04062 31.212502L245.8375 31.212502Q245.72812 29.915627 245.18124 29.259377Q244.3375 28.243752 242.99374 28.243752Q241.79062 28.243752 240.9625 29.056252Q240.13437 29.853127 240.04062 31.212502ZM256.82187 34.05625L258.63437 34.290627Q258.2125 35.86875 257.04062 36.759377Q255.88437 37.634377 254.07187 37.634377Q251.80624 37.634377 250.4625 36.24375Q249.13437 34.8375 249.13437 32.30625Q249.13437 29.681252 250.47812 28.243752Q251.82187 26.790627 253.97812 26.790627Q256.05624 26.790627 257.36874 28.212502Q258.69687 29.618752 258.69687 32.196877Q258.69687 32.353127 258.68124 32.665627L250.94687 32.665627Q251.04062 34.36875 251.91562 35.275Q252.79062 36.18125 254.0875 36.18125Q255.05624 36.18125 255.72812 35.68125Q256.41562 35.165627 256.82187 34.05625ZM251.04062 31.212502L256.8375 31.212502Q256.72812 29.915627 256.18124 29.259377Q255.3375 28.243752 253.99374 28.243752Q252.79062 28.243752 251.9625 29.056252Q251.13437 29.853127 251.04062 31.212502ZM267.44687 37.4L267.44687 36.0875Q266.4625 37.634377 264.54062 37.634377Q263.30624 37.634377 262.25937 36.946877Q261.22812 36.259377 260.65 35.040627Q260.0875 33.821877 260.0875 32.228127Q260.0875 30.665627 260.60312 29.400002Q261.11874 28.134377 262.15 27.462502Q263.19687 26.790627 264.4625 26.790627Q265.4 26.790627 266.13437 27.196877Q266.86874 27.587502 267.3375 28.212502L267.3375 23.087502L269.07187 23.087502L269.07187 37.4L267.44687 37.4ZM261.88437 32.228127Q261.88437 34.2125 262.72812 35.196877Q263.57187 36.18125 264.7125 36.18125Q265.86874 36.18125 266.66562 35.24375Q267.47812 34.30625 267.47812 32.36875Q267.47812 30.243752 266.65 29.243752Q265.8375 28.243752 264.63437 28.243752Q263.4625 28.243752 262.66562 29.212502Q261.88437 30.165627 261.88437 32.228127ZM278.50937 37.4L278.50937 35.86875Q277.30624 37.634377 275.22812 37.634377Q274.30624 37.634377 273.50937 37.290627Q272.7125 36.93125 272.32187 36.4Q271.94687 35.86875 271.79062 35.0875Q271.68124 34.571877 271.68124 33.446877L271.68124 27.025002L273.43124 27.025002L273.43124 32.775Q273.43124 34.15 273.54062 34.634377Q273.7125 35.321877 274.24374 35.728127Q274.79062 36.11875 275.57187 36.11875Q276.36874 36.11875 277.05624 35.7125Q277.75937 35.30625 278.04062 34.61875Q278.3375 33.915627 278.3375 32.5875L278.3375 27.025002L280.0875 27.025002L280.0875 37.4L278.50937 37.4ZM281.7125 41.36875L281.7125 27.025002L283.32187 27.025002L283.32187 28.368752Q283.88437 27.587502 284.5875 27.196877Q285.30624 26.790627 286.32187 26.790627Q287.65 26.790627 288.66562 27.478127Q289.68124 28.165627 290.19687 29.415627Q290.72812 30.650002 290.72812 32.134377Q290.72812 33.728127 290.15 35.009377Q289.5875 36.275 288.49374 36.9625Q287.4 37.634377 286.19687 37.634377Q285.32187 37.634377 284.61874 37.259377Q283.93124 36.884377 283.47812 36.321877L283.47812 41.36875L281.7125 41.36875ZM283.30624 32.275Q283.30624 34.275 284.11874 35.228127Q284.93124 36.18125 286.0875 36.18125Q287.25937 36.18125 288.0875 35.196877Q288.93124 34.2125 288.93124 32.11875Q288.93124 30.150002 288.10312 29.165627Q287.29062 28.165627 286.16562 28.165627Q285.04062 28.165627 284.16562 29.228127Q283.30624 30.275002 283.30624 32.275Z" fill-rule="nonzero"/></svg>