<svg version="1.1" viewBox="0.0 0.0 533.0 329.0" fill="none" stroke="none" stroke-linecap="square" stroke-miterlimit="10" width="533" height="329" xmlns:xlink="http://www.w3.org/1999/xlink" xmlns="http://www.w3.org/2000/svg"><path fill="#ffffff" d="M0 0L533.0 0L533.0 329.0L0 329.0L0 0Z" fill-rule="nonzero"/><path stroke="#cccccc" stroke-width="1.0" stroke-linecap="butt" d="M139.5 58.5L139.5 260.5" fill-rule="nonzero"/><path stroke="#cccccc" stroke-width="1.0" stroke-linecap="butt" d="M207.5 58.5L207.5 260.5" fill-rule="nonzero"/><path stroke="#cccccc" stroke-width="1.0" stroke-linecap="butt" d="M275.5 58.5L275.5 260.5" fill-rule="nonzero"/><path stroke="#cccccc" stroke-width="1.0" stroke-linecap="butt" d="M343.5 58.5L343.5 260.5" fill-rule="nonzero"/><path stroke="#cccccc" stroke-width="1.0" stroke-linecap="butt" d="M411.5 58.5L411.5 260.5" fill-rule="nonzero"/><path stroke="#cccccc" stroke-width="1.0" stroke-linecap="butt" d="M479.5 58.5L479.5 260.5" fill-rule="nonzero"/><path stroke="#333333" stroke-width="1.0" stroke-linecap="butt" d="M75.5 260.5L516.5 260.5" fill-rule="nonzero"/><path stroke="#cccccc" stroke-width="1.0" stroke-linecap="butt" d="M75.5 220.5L516.5 220.5" fill-rule="nonzero"/><path stroke="#cccccc" stroke-width="1.0" stroke-linecap="butt" d="M75.5 179.5L516.5 179.5" fill-rule="nonzero"/><path stroke="#cccccc" stroke-width="1.0" stroke-linecap="butt" d="M75.5 139.5L516.5 139.5" fill-rule="nonzero"/><path stroke="#cccccc" stroke-width="1.0" stroke-linecap="butt" d="M75.5 98.5L516.5 98.5" fill-rule="nonzero"/><path stroke="#cccccc" stroke-width="1.0" stroke-linecap="butt" d="M75.5 58.5L516.5 58.5" fill-rule="nonzero"/><clipPath id="id_0"><path d="M75.45 58.416668L516.55 58.416668L516.55 260.55L75.45 260.55L75.45 58.416668Z" clip-rule="nonzero"/></clipPath><path stroke="#4285f4" stroke-width="2.0" stroke-linecap="butt" clip-path="url(#id_0)" d="M85.01626 252.46466L98.62811 245.22372L125.85182 229.93352L153.07553 216.32343L180.29924 200.75041L234.74666 171.32933L289.19406 141.72852L343.64148 122.67532L452.53632 86.884346L506.98373 84.551125" fill-rule="nonzero"/><path fill="#4285f4" clip-path="url(#id_0)" d="M91.01626 252.46466C91.01626 255.77838 88.32996 258.46466 85.01626 258.46466C81.702545 258.46466 79.01626 255.77838 79.01626 252.46466C79.01626 249.15096 81.702545 246.46466 85.01626 246.46466C88.32996 246.46466 91.01626 249.15096 91.01626 252.46466Z" fill-rule="nonzero"/><path fill="#4285f4" clip-path="url(#id_0)" d="M104.62811 245.22372C104.62811 248.53745 101.94182 251.22372 98.62811 251.22372C95.3144 251.22372 92.62811 248.53745 92.62811 245.22372C92.62811 241.91002 95.3144 239.22372 98.62811 239.22372C101.94182 239.22372 104.62811 241.91002 104.62811 245.22372Z" fill-rule="nonzero"/><path fill="#4285f4" clip-path="url(#id_0)" d="M131.85182 229.93352C131.85182 233.24722 129.16553 235.93352 125.85182 235.93352C122.53811 235.93352 119.85182 233.24722 119.85182 229.93352C119.85182 226.6198 122.53811 223.93352 125.85182 223.93352C129.16553 223.93352 131.85182 226.6198 131.85182 229.93352Z" fill-rule="nonzero"/><path fill="#4285f4" clip-path="url(#id_0)" d="M159.07553 216.32343C159.07553 219.63715 156.38924 222.32343 153.07553 222.32343C149.76183 222.32343 147.07553 219.63715 147.07553 216.32343C147.07553 213.00972 149.76183 210.32343 153.07553 210.32343C156.38924 210.32343 159.07553 213.00972 159.07553 216.32343Z" fill-rule="nonzero"/><path fill="#4285f4" clip-path="url(#id_0)" d="M186.29924 200.75041C186.29924 204.06412 183.61295 206.75041 180.29924 206.75041C176.98553 206.75041 174.29924 204.06412 174.29924 200.75041C174.29924 197.4367 176.98553 194.75041 180.29924 194.75041C183.61295 194.75041 186.29924 197.4367 186.29924 200.75041Z" fill-rule="nonzero"/><path fill="#4285f4" clip-path="url(#id_0)" d="M240.74666 171.32933C240.74666 174.64304 238.06036 177.32933 234.74666 177.32933C231.43295 177.32933 228.74666 174.64304 228.74666 171.32933C228.74666 168.01561 231.43295 165.32933 234.74666 165.32933C238.06036 165.32933 240.74666 168.01561 240.74666 171.32933Z" fill-rule="nonzero"/><path fill="#4285f4" clip-path="url(#id_0)" d="M295.19406 141.72852C295.19406 145.04224 292.50778 147.72852 289.19406 147.72852C285.88037 147.72852 283.19406 145.04224 283.19406 141.72852C283.19406 138.41481 285.88037 135.72852 289.19406 135.72852C292.50778 135.72852 295.19406 138.41481 295.19406 141.72852Z" fill-rule="nonzero"/><path fill="#4285f4" clip-path="url(#id_0)" d="M349.64148 122.67532C349.64148 125.98903 346.9552 128.67532 343.64148 128.67532C340.3278 128.67532 337.64148 125.98903 337.64148 122.67532C337.64148 119.36162 340.3278 116.67532 343.64148 116.67532C346.9552 116.67532 349.64148 119.36162 349.64148 122.67532Z" fill-rule="nonzero"/><path fill="#4285f4" clip-path="url(#id_0)" d="M458.53632 86.884346C458.53632 90.19806 455.85004 92.884346 452.53632 92.884346C449.22263 92.884346 446.53632 90.19806 446.53632 86.884346C446.53632 83.57064 449.22263 80.884346 452.53632 80.884346C455.85004 80.884346 458.53632 83.57064 458.53632 86.884346Z" fill-rule="nonzero"/><path fill="#4285f4" clip-path="url(#id_0)" d="M512.98376 84.551125C512.98376 87.86483 510.29745 90.551125 506.98373 90.551125C503.67004 90.551125 500.98373 87.86483 500.98373 84.551125C500.98373 81.23742 503.67004 78.551125 506.98373 78.551125C510.29745 78.551125 512.98376 81.23742 512.98376 84.551125Z" fill-rule="nonzero"/><path fill="#000000" d="M264.10938 309.6906L264.60938 307.20624L263.625 307.20624L263.625 306.33124L264.79688 306.33124L265.21875 304.20624L263.625 304.20624L263.625 303.33124L265.40625 303.33124L265.90625 300.8156L266.78125 300.8156L266.28125 303.33124L268.125 303.33124L268.64062 300.8156L269.51562 300.8156L269.01562 303.33124L270.01562 303.33124L270.01562 304.20624L268.82812 304.20624L268.39062 306.33124L270.01562 306.33124L270.01562 307.20624L268.21875 307.20624L267.70312 309.6906L266.82812 309.6906L267.32812 307.20624L265.5 307.20624L264.98438 309.6906L264.10938 309.6906ZM265.67188 306.33124L267.51562 306.33124L267.95312 304.20624L266.10938 304.20624L265.67188 306.33124ZM273.90625 306.4406Q273.90625 304.70624 274.85938 303.8781Q275.65625 303.1906 276.8125 303.1906Q278.09375 303.1906 278.90625 304.03436Q279.73438 304.8625 279.73438 306.34686Q279.73438 307.55 279.375 308.2375Q279.01562 308.925 278.3125 309.3156Q277.625 309.6906 276.8125 309.6906Q275.51562 309.6906 274.70312 308.8625Q273.90625 308.01874 273.90625 306.4406ZM274.98438 306.4406Q274.98438 307.6281 275.5 308.22186Q276.03125 308.8156 276.8125 308.8156Q277.60938 308.8156 278.125 308.22186Q278.64062 307.6281 278.64062 306.40936Q278.64062 305.2531 278.10938 304.65936Q277.59375 304.0656 276.8125 304.0656Q276.03125 304.0656 275.5 304.65936Q274.98438 305.2375 274.98438 306.4406ZM281.54688 309.55L281.54688 304.14374L280.60938 304.14374L280.60938 303.33124L281.54688 303.33124L281.54688 302.65936Q281.54688 302.03436 281.65625 301.7375Q281.8125 301.3156 282.1875 301.0656Q282.57812 300.8156 283.26562 300.8156Q283.71875 300.8156 284.25 300.925L284.09375 301.83124Q283.76562 301.78436 283.46875 301.78436Q282.98438 301.78436 282.78125 301.9875Q282.59375 302.1906 282.59375 302.7531L282.59375 303.33124L283.8125 303.33124L283.8125 304.14374L282.59375 304.14374L282.59375 309.55L281.54688 309.55ZM289.59375 308.6125L289.75 309.53436Q289.29688 309.6281 288.95312 309.6281Q288.375 309.6281 288.0625 309.45624Q287.75 309.26874 287.60938 308.97186Q287.48438 308.675 287.48438 307.72186L287.48438 304.14374L286.71875 304.14374L286.71875 303.33124L287.48438 303.33124L287.48438 301.78436L288.53125 301.15936L288.53125 303.33124L289.59375 303.33124L289.59375 304.14374L288.53125 304.14374L288.53125 307.78436Q288.53125 308.2375 288.57812 308.3625Q288.64062 308.4875 288.76562 308.5656Q288.89062 308.64374 289.125 308.64374Q289.3125 308.64374 289.59375 308.6125ZM290.29688 309.55L290.29688 300.95624L291.34375 300.95624L291.34375 304.03436Q292.07812 303.1906 293.20312 303.1906Q293.90625 303.1906 294.40625 303.47186Q294.92188 303.7375 295.14062 304.22186Q295.35938 304.6906 295.35938 305.6125L295.35938 309.55L294.3125 309.55L294.3125 305.6125Q294.3125 304.8156 293.96875 304.45624Q293.625 304.09686 293.0 304.09686Q292.53125 304.09686 292.10938 304.34686Q291.70312 304.58124 291.51562 305.0031Q291.34375 305.40936 291.34375 306.14374L291.34375 309.55L290.29688 309.55ZM297.28125 309.55L297.28125 303.33124L298.23438 303.33124L298.23438 304.26874Q298.59375 303.6125 298.89062 303.40936Q299.20312 303.1906 299.57812 303.1906Q300.10938 303.1906 300.65625 303.51874L300.29688 304.5031Q299.90625 304.26874 299.53125 304.26874Q299.17188 304.26874 298.89062 304.4875Q298.625 304.6906 298.51562 305.0656Q298.32812 305.6281 298.32812 306.28436L298.32812 309.55L297.28125 309.55ZM305.54688 307.55L306.64062 307.675Q306.39062 308.6281 305.6875 309.15936Q304.98438 309.6906 303.90625 309.6906Q302.54688 309.6906 301.73438 308.84686Q300.9375 308.0031 300.9375 306.4875Q300.9375 304.925 301.75 304.0656Q302.5625 303.1906 303.84375 303.1906Q305.09375 303.1906 305.875 304.03436Q306.67188 304.8781 306.67188 306.425Q306.67188 306.51874 306.67188 306.70624L302.03125 306.70624Q302.09375 307.7375 302.60938 308.28436Q303.125 308.8156 303.90625 308.8156Q304.48438 308.8156 304.89062 308.51874Q305.3125 308.20624 305.54688 307.55ZM302.09375 305.84686L305.5625 305.84686Q305.5 305.05 305.17188 304.65936Q304.65625 304.05 303.85938 304.05Q303.125 304.05 302.625 304.53436Q302.14062 305.01874 302.09375 305.84686ZM312.35938 308.78436Q311.76562 309.28436 311.21875 309.4875Q310.6875 309.6906 310.0625 309.6906Q309.03125 309.6906 308.48438 309.1906Q307.9375 308.6906 307.9375 307.90936Q307.9375 307.45624 308.14062 307.08124Q308.34375 306.6906 308.6875 306.47186Q309.03125 306.2375 309.45312 306.1281Q309.75 306.03436 310.39062 305.95624Q311.65625 305.8156 312.26562 305.59686Q312.26562 305.3781 312.26562 305.33124Q312.26562 304.675 311.96875 304.40936Q311.5625 304.0656 310.76562 304.0656Q310.03125 304.0656 309.67188 304.33124Q309.3125 304.58124 309.14062 305.2375L308.10938 305.09686Q308.25 304.4406 308.57812 304.03436Q308.90625 303.6281 309.51562 303.40936Q310.125 303.1906 310.92188 303.1906Q311.71875 303.1906 312.21875 303.3781Q312.71875 303.5656 312.95312 303.84686Q313.1875 304.1281 313.28125 304.5656Q313.32812 304.83124 313.32812 305.53436L313.32812 306.9406Q313.32812 308.40936 313.39062 308.8Q313.46875 309.1906 313.67188 309.55L312.5625 309.55Q312.40625 309.22186 312.35938 308.78436ZM312.26562 306.425Q311.6875 306.65936 310.54688 306.83124Q309.89062 306.925 309.625 307.05Q309.35938 307.15936 309.20312 307.3781Q309.0625 307.59686 309.0625 307.8781Q309.0625 308.3 309.375 308.58124Q309.70312 308.8625 310.3125 308.8625Q310.92188 308.8625 311.39062 308.59686Q311.875 308.33124 312.09375 307.8625Q312.26562 307.5031 312.26562 306.8156L312.26562 306.425ZM319.32812 309.55L319.32812 308.76874Q318.73438 309.6906 317.59375 309.6906Q316.84375 309.6906 316.21875 309.28436Q315.59375 308.8625 315.25 308.1281Q314.90625 307.39374 314.90625 306.4406Q314.90625 305.51874 315.21875 304.7531Q315.53125 303.9875 316.15625 303.59686Q316.78125 303.1906 317.54688 303.1906Q318.10938 303.1906 318.54688 303.425Q318.98438 303.65936 319.26562 304.03436L319.26562 300.95624L320.3125 300.95624L320.3125 309.55L319.32812 309.55ZM316.0 306.4406Q316.0 307.64374 316.5 308.2375Q317.0 308.8156 317.6875 308.8156Q318.375 308.8156 318.85938 308.2531Q319.34375 307.6906 319.34375 306.53436Q319.34375 305.2531 318.84375 304.65936Q318.35938 304.0656 317.64062 304.0656Q316.9375 304.0656 316.46875 304.64374Q316.0 305.20624 316.0 306.4406ZM321.875 307.6906L322.90625 307.53436Q323.0 308.15936 323.39062 308.4875Q323.79688 308.8156 324.53125 308.8156Q325.25 308.8156 325.59375 308.53436Q325.95312 308.2375 325.95312 307.83124Q325.95312 307.47186 325.64062 307.26874Q325.42188 307.1281 324.5625 306.90936Q323.40625 306.6125 322.95312 306.40936Q322.51562 306.1906 322.28125 305.8156Q322.04688 305.4406 322.04688 304.97186Q322.04688 304.5656 322.23438 304.20624Q322.42188 303.84686 322.75 303.6125Q323.0 303.4406 323.42188 303.3156Q323.84375 303.1906 324.34375 303.1906Q325.0625 303.1906 325.60938 303.40936Q326.17188 303.6125 326.4375 303.97186Q326.70312 304.33124 326.79688 304.925L325.76562 305.0656Q325.70312 304.59686 325.35938 304.33124Q325.03125 304.05 324.40625 304.05Q323.6875 304.05 323.375 304.3Q323.0625 304.53436 323.0625 304.8625Q323.0625 305.0656 323.1875 305.22186Q323.32812 305.39374 323.59375 305.5031Q323.75 305.5656 324.53125 305.76874Q325.65625 306.08124 326.09375 306.26874Q326.53125 306.45624 326.78125 306.8156Q327.03125 307.175 327.03125 307.72186Q327.03125 308.2531 326.71875 308.72186Q326.42188 309.175 325.84375 309.4406Q325.26562 309.6906 324.53125 309.6906Q323.3125 309.6906 322.67188 309.1906Q322.04688 308.675 321.875 307.6906Z" fill-rule="nonzero"/><path fill="#000000" d="M24.684362 190.43646L24.590612 189.37396Q25.246862 189.29584 25.653112 189.01459Q26.059362 188.73334 26.324987 188.15521Q26.574987 187.56146 26.574987 186.82709Q26.574987 186.18646 26.387487 185.68646Q26.184362 185.18646 25.856237 184.95209Q25.512487 184.70209 25.121862 184.70209Q24.715612 184.70209 24.418737 184.93646Q24.106237 185.17084 23.903112 185.70209Q23.762487 186.06146 23.481237 187.24896Q23.199987 188.42084 22.949987 188.88959Q22.621862 189.51459 22.153112 189.81146Q21.668737 190.10834 21.074987 190.10834Q20.434362 190.10834 19.871862 189.74896Q19.293737 189.37396 19.012487 188.67084Q18.715612 187.95209 18.715612 187.09271Q18.715612 186.13959 19.028112 185.40521Q19.324987 184.67084 19.934362 184.28021Q20.528112 183.88959 21.278112 183.85834L21.356237 184.95209Q20.543737 185.04584 20.137487 185.56146Q19.715612 186.06146 19.715612 187.04584Q19.715612 188.07709 20.090612 188.54584Q20.465612 189.01459 20.996862 189.01459Q21.465612 189.01459 21.762487 188.68646Q22.059362 188.35834 22.371862 186.98334Q22.684362 185.59271 22.918737 185.07709Q23.278112 184.32709 23.809362 183.96771Q24.324987 183.60834 25.028112 183.60834Q25.715612 183.60834 26.324987 183.99896Q26.918737 184.38959 27.262487 185.12396Q27.590612 185.85834 27.590612 186.78021Q27.590612 187.95209 27.262487 188.74896Q26.918737 189.53021 26.231237 189.98334Q25.543737 190.42084 24.684362 190.43646ZM29.840612 182.18646L21.231237 182.18646L21.231237 181.23334L22.028112 181.23334Q21.559362 180.88959 21.324987 180.46771Q21.090612 180.03021 21.090612 179.42084Q21.090612 178.62396 21.496862 178.01459Q21.903112 177.40521 22.653112 177.10834Q23.403112 176.79584 24.293737 176.79584Q25.246862 176.79584 26.012487 177.13959Q26.778112 177.46771 27.184362 178.12396Q27.590612 178.78021 27.590612 179.49896Q27.590612 180.03021 27.371862 180.45209Q27.137487 180.87396 26.809362 181.13959L29.840612 181.13959L29.840612 182.18646ZM24.371862 181.23334Q25.574987 181.23334 26.153112 180.74896Q26.715612 180.26459 26.715612 179.57709Q26.715612 178.87396 26.121862 178.37396Q25.528112 177.87396 24.278112 177.87396Q23.090612 177.87396 22.512487 178.35834Q21.918737 178.84271 21.918737 179.53021Q21.918737 180.20209 22.543737 180.71771Q23.168737 181.23334 24.371862 181.23334ZM25.449987 170.93646L25.574987 169.84271Q26.528112 170.09271 27.059362 170.79584Q27.590612 171.49896 27.590612 172.57709Q27.590612 173.93646 26.746862 174.74896Q25.903112 175.54584 24.387487 175.54584Q22.824987 175.54584 21.965612 174.73334Q21.090612 173.92084 21.090612 172.63959Q21.090612 171.38959 21.934362 170.60834Q22.778112 169.81146 24.324987 169.81146Q24.418737 169.81146 24.606237 169.81146L24.606237 174.45209Q25.637487 174.38959 26.184362 173.87396Q26.715612 173.35834 26.715612 172.57709Q26.715612 171.99896 26.418737 171.59271Q26.106237 171.17084 25.449987 170.93646ZM23.746862 174.38959L23.746862 170.92084Q22.949987 170.98334 22.559362 171.31146Q21.949987 171.82709 21.949987 172.62396Q21.949987 173.35834 22.434362 173.85834Q22.918737 174.34271 23.746862 174.38959ZM25.449987 163.93646L25.574987 162.84271Q26.528112 163.09271 27.059362 163.79584Q27.590612 164.49896 27.590612 165.57709Q27.590612 166.93646 26.746862 167.74896Q25.903112 168.54584 24.387487 168.54584Q22.824987 168.54584 21.965612 167.73334Q21.090612 166.92084 21.090612 165.63959Q21.090612 164.38959 21.934362 163.60834Q22.778112 162.81146 24.324987 162.81146Q24.418737 162.81146 24.606237 162.81146L24.606237 167.45209Q25.637487 167.38959 26.184362 166.87396Q26.715612 166.35834 26.715612 165.57709Q26.715612 164.99896 26.418737 164.59271Q26.106237 164.17084 25.449987 163.93646ZM23.746862 167.38959L23.746862 163.92084Q22.949987 163.98334 22.559362 164.31146Q21.949987 164.82709 21.949987 165.62396Q21.949987 166.35834 22.434362 166.85834Q22.918737 167.34271 23.746862 167.38959ZM27.449987 157.15521L26.668737 157.15521Q27.590612 157.74896 27.590612 158.88959Q27.590612 159.63959 27.184362 160.26459Q26.762487 160.88959 26.028112 161.23334Q25.293737 161.57709 24.340612 161.57709Q23.418737 161.57709 22.653112 161.26459Q21.887487 160.95209 21.496862 160.32709Q21.090612 159.70209 21.090612 158.93646Q21.090612 158.37396 21.324987 157.93646Q21.559362 157.49896 21.934362 157.21771L18.856237 157.21771L18.856237 156.17084L27.449987 156.17084L27.449987 157.15521ZM24.340612 160.48334Q25.543737 160.48334 26.137487 159.98334Q26.715612 159.48334 26.715612 158.79584Q26.715612 158.10834 26.153112 157.62396Q25.590612 157.13959 24.434362 157.13959Q23.153112 157.13959 22.559362 157.63959Q21.965612 158.12396 21.965612 158.84271Q21.965612 159.54584 22.543737 160.01459Q23.106237 160.48334 24.340612 160.48334ZM27.449987 150.10834L26.528112 150.10834Q27.590612 150.84271 27.590612 152.09271Q27.590612 152.63959 27.387487 153.12396Q27.168737 153.59271 26.856237 153.82709Q26.528112 154.06146 26.059362 154.15521Q25.762487 154.21771 25.074987 154.21771L21.231237 154.21771L21.231237 153.15521L24.684362 153.15521Q25.496862 153.15521 25.793737 153.09271Q26.199987 152.99896 26.449987 152.68646Q26.684362 152.35834 26.684362 151.87396Q26.684362 151.40521 26.449987 150.99896Q26.199987 150.57709 25.778112 150.40521Q25.356237 150.21771 24.559362 150.21771L21.231237 150.21771L21.231237 149.17084L27.449987 149.17084L27.449987 150.10834ZM29.840612 147.18646L21.231237 147.18646L21.231237 146.23334L22.028112 146.23334Q21.559362 145.88959 21.324987 145.46771Q21.090612 145.03021 21.090612 144.42084Q21.090612 143.62396 21.496862 143.01459Q21.903112 142.40521 22.653112 142.10834Q23.403112 141.79584 24.293737 141.79584Q25.246862 141.79584 26.012487 142.13959Q26.778112 142.46771 27.184362 143.12396Q27.590612 143.78021 27.590612 144.49896Q27.590612 145.03021 27.371862 145.45209Q27.137487 145.87396 26.809362 146.13959L29.840612 146.13959L29.840612 147.18646ZM24.371862 146.23334Q25.574987 146.23334 26.153112 145.74896Q26.715612 145.26459 26.715612 144.57709Q26.715612 143.87396 26.121862 143.37396Q25.528112 142.87396 24.278112 142.87396Q23.090612 142.87396 22.512487 143.35834Q21.918737 143.84271 21.918737 144.53021Q21.918737 145.20209 22.543737 145.71771Q23.168737 146.23334 24.371862 146.23334Z" fill-rule="nonzero"/><path fill="#000000" d="M62.95 260.3156Q62.95 258.78436 63.2625 257.8625Q63.575 256.925 64.18437 256.425Q64.80937 255.92499 65.74687 255.92499Q66.43437 255.92499 66.95 256.20624Q67.48125 256.4875 67.825 257.01874Q68.16875 257.53436 68.35625 258.28436Q68.54375 259.03436 68.54375 260.3156Q68.54375 261.83124 68.23125 262.7531Q67.93437 263.675 67.30937 264.1906Q66.7 264.6906 65.74687 264.6906Q64.5125 264.6906 63.79375 263.8Q62.95 262.7375 62.95 260.3156ZM64.02812 260.3156Q64.02812 262.425 64.52812 263.1281Q65.02812 263.83124 65.74687 263.83124Q66.48125 263.83124 66.96562 263.1281Q67.46562 262.425 67.46562 260.3156Q67.46562 258.1906 66.96562 257.5031Q66.48125 256.8 65.73125 256.8Q65.0125 256.8 64.575 257.40936Q64.02812 258.1906 64.02812 260.3156Z" fill-rule="nonzero"/><path fill="#000000" d="M62.95 221.87334L64.05937 221.77959Q64.18437 222.59209 64.62187 222.99834Q65.075 223.40459 65.71562 223.40459Q66.46562 223.40459 66.99687 222.82646Q67.52812 222.24834 67.52812 221.31084Q67.52812 220.40459 67.0125 219.88896Q66.5125 219.35771 65.68437 219.35771Q65.18437 219.35771 64.7625 219.59209Q64.35625 219.82646 64.12187 220.18584L63.1375 220.06084L63.965626 215.65459L68.24687 215.65459L68.24687 216.65459L64.80937 216.65459L64.35625 218.96709Q65.12187 218.42021 65.96562 218.42021Q67.09062 218.42021 67.85625 219.20146Q68.6375 219.98271 68.6375 221.21709Q68.6375 222.37334 67.96562 223.23271Q67.1375 224.26396 65.71562 224.26396Q64.54375 224.26396 63.79375 223.60771Q63.059376 222.95146 62.95 221.87334Z" fill-rule="nonzero"/><path fill="#000000" d="M59.91875 183.69667L58.871876 183.69667L58.871876 176.97792Q58.48125 177.3373 57.85625 177.7123Q57.246876 178.07167 56.7625 178.24355L56.7625 177.22792Q57.6375 176.80605 58.29375 176.22792Q58.965626 175.63417 59.246876 175.07167L59.91875 175.07167L59.91875 183.69667ZM62.95 179.4623Q62.95 177.93105 63.2625 177.00917Q63.575 176.07167 64.18437 175.57167Q64.80937 175.07167 65.74687 175.07167Q66.43437 175.07167 66.95 175.35292Q67.48125 175.63417 67.825 176.16542Q68.16875 176.68105 68.35625 177.43105Q68.54375 178.18105 68.54375 179.4623Q68.54375 180.97792 68.23125 181.8998Q67.93437 182.82167 67.30937 183.3373Q66.7 183.8373 65.74687 183.8373Q64.5125 183.8373 63.79375 182.94667Q62.95 181.88417 62.95 179.4623ZM64.02812 179.4623Q64.02812 181.57167 64.52812 182.2748Q65.02812 182.97792 65.74687 182.97792Q66.48125 182.97792 66.96562 182.2748Q67.46562 181.57167 67.46562 179.4623Q67.46562 177.3373 66.96562 176.6498Q66.48125 175.94667 65.73125 175.94667Q65.0125 175.94667 64.575 176.55605Q64.02812 177.3373 64.02812 179.4623Z" fill-rule="nonzero"/><path fill="#000000" d="M59.91875 143.27L58.871876 143.27L58.871876 136.55125Q58.48125 136.91063 57.85625 137.28563Q57.246876 137.645 56.7625 137.81688L56.7625 136.80125Q57.6375 136.37938 58.29375 135.80125Q58.965626 135.2075 59.246876 134.645L59.91875 134.645L59.91875 143.27ZM62.95 141.02L64.05937 140.92625Q64.18437 141.73875 64.62187 142.145Q65.075 142.55125 65.71562 142.55125Q66.46562 142.55125 66.99687 141.97313Q67.52812 141.395 67.52812 140.4575Q67.52812 139.55125 67.0125 139.03563Q66.5125 138.50438 65.68437 138.50438Q65.18437 138.50438 64.7625 138.73875Q64.35625 138.97313 64.12187 139.3325L63.1375 139.2075L63.965626 134.80125L68.24687 134.80125L68.24687 135.80125L64.80937 135.80125L64.35625 138.11375Q65.12187 137.56688 65.96562 137.56688Q67.09062 137.56688 67.85625 138.34813Q68.6375 139.12938 68.6375 140.36375Q68.6375 141.52 67.96562 142.37938Q67.1375 143.41063 65.71562 143.41063Q64.54375 143.41063 63.79375 142.75438Q63.059376 142.09813 62.95 141.02Z" fill-rule="nonzero"/><path fill="#000000" d="M61.496876 101.827705L61.496876 102.84333L55.809376 102.84333Q55.809376 102.46833 55.934376 102.108955Q56.153126 101.53083 56.621876 100.96833Q57.10625 100.40583 58.0125 99.671455Q59.41875 98.515205 59.903126 97.84333Q60.403126 97.171455 60.403126 96.577705Q60.403126 95.952705 59.95 95.53083Q59.496876 95.09333 58.778126 95.09333Q58.0125 95.09333 57.559376 95.546455Q57.10625 95.99958 57.090626 96.81208L56.0125 96.702705Q56.121876 95.483955 56.840626 94.858955Q57.575 94.21833 58.809376 94.21833Q60.04375 94.21833 60.7625 94.90583Q61.48125 95.59333 61.48125 96.608955Q61.48125 97.12458 61.2625 97.62458Q61.059376 98.108955 60.559376 98.671455Q60.075 99.21833 58.95 100.171455Q57.996876 100.96833 57.715626 101.265205Q57.45 101.546455 57.278126 101.827705L61.496876 101.827705ZM62.95 98.608955Q62.95 97.077705 63.2625 96.15583Q63.575 95.21833 64.18437 94.71833Q64.80937 94.21833 65.74687 94.21833Q66.43437 94.21833 66.95 94.49958Q67.48125 94.78083 67.825 95.31208Q68.16875 95.827705 68.35625 96.577705Q68.54375 97.327705 68.54375 98.608955Q68.54375 100.12458 68.23125 101.046455Q67.93437 101.96833 67.30937 102.483955Q66.7 102.983955 65.74687 102.983955Q64.5125 102.983955 63.79375 102.09333Q62.95 101.03083 62.95 98.608955ZM64.02812 98.608955Q64.02812 100.71833 64.52812 101.421455Q65.02812 102.12458 65.74687 102.12458Q66.48125 102.12458 66.96562 101.421455Q67.46562 100.71833 67.46562 98.608955Q67.46562 96.483955 66.96562 95.796455Q66.48125 95.09333 65.73125 95.09333Q65.0125 95.09333 64.575 95.702705Q64.02812 96.483955 64.02812 98.608955Z" fill-rule="nonzero"/><path fill="#000000" d="M61.496876 61.401043L61.496876 62.416668L55.809376 62.416668Q55.809376 62.041668 55.934376 61.682293Q56.153126 61.104168 56.621876 60.541668Q57.10625 59.979168 58.0125 59.244793Q59.41875 58.088543 59.903126 57.416668Q60.403126 56.744793 60.403126 56.151043Q60.403126 55.526043 59.95 55.104168Q59.496876 54.666668 58.778126 54.666668Q58.0125 54.666668 57.559376 55.119793Q57.10625 55.572918 57.090626 56.385418L56.0125 56.276043Q56.121876 55.057293 56.840626 54.432293Q57.575 53.791668 58.809376 53.791668Q60.04375 53.791668 60.7625 54.479168Q61.48125 55.166668 61.48125 56.182293Q61.48125 56.697918 61.2625 57.197918Q61.059376 57.682293 60.559376 58.244793Q60.075 58.791668 58.95 59.744793Q57.996876 60.541668 57.715626 60.838543Q57.45 61.119793 57.278126 61.401043L61.496876 61.401043ZM62.95 60.166668L64.05937 60.072918Q64.18437 60.885418 64.62187 61.291668Q65.075 61.697918 65.71562 61.697918Q66.46562 61.697918 66.99687 61.119793Q67.52812 60.541668 67.52812 59.604168Q67.52812 58.697918 67.0125 58.182293Q66.5125 57.651043 65.68437 57.651043Q65.18437 57.651043 64.7625 57.885418Q64.35625 58.119793 64.12187 58.479168L63.1375 58.354168L63.965626 53.947918L68.24687 53.947918L68.24687 54.947918L64.80937 54.947918L64.35625 57.260418Q65.12187 56.713543 65.96562 56.713543Q67.09062 56.713543 67.85625 57.494793Q68.6375 58.276043 68.6375 59.510418Q68.6375 60.666668 67.96562 61.526043Q67.1375 62.557293 65.71562 62.557293Q64.54375 62.557293 63.79375 61.901043Q63.059376 61.244793 62.95 60.166668Z" fill-rule="nonzero"/><path fill="#000000" d="M136.46367 275.3L137.57304 275.20624Q137.69804 276.01874 138.13554 276.425Q138.58867 276.83124 139.2293 276.83124Q139.9793 276.83124 140.51054 276.2531Q141.0418 275.675 141.0418 274.7375Q141.0418 273.83124 140.52617 273.3156Q140.02617 272.78436 139.19804 272.78436Q138.69804 272.78436 138.27617 273.01874Q137.86992 273.2531 137.63554 273.6125L136.65117 273.4875L137.4793 269.08124L141.76054 269.08124L141.76054 270.08124L138.32304 270.08124L137.86992 272.39374Q138.63554 271.84686 139.4793 271.84686Q140.6043 271.84686 141.36992 272.6281Q142.15117 273.40936 142.15117 274.64374Q142.15117 275.8 141.4793 276.65936Q140.65117 277.6906 139.2293 277.6906Q138.05742 277.6906 137.30742 277.03436Q136.57304 276.3781 136.46367 275.3Z" fill-rule="nonzero"/><path fill="#000000" d="M204.9917 277.55L203.94482 277.55L203.94482 270.83124Q203.5542 271.1906 202.9292 271.5656Q202.31982 271.925 201.83545 272.09686L201.83545 271.08124Q202.71045 270.65936 203.3667 270.08124Q204.03857 269.4875 204.31982 268.925L204.9917 268.925L204.9917 277.55ZM208.02295 273.3156Q208.02295 271.78436 208.33545 270.8625Q208.64795 269.925 209.25732 269.425Q209.88232 268.925 210.81982 268.925Q211.50732 268.925 212.02295 269.20624Q212.5542 269.4875 212.89795 270.01874Q213.2417 270.53436 213.4292 271.28436Q213.6167 272.03436 213.6167 273.3156Q213.6167 274.83124 213.3042 275.7531Q213.00732 276.675 212.38232 277.1906Q211.77295 277.6906 210.81982 277.6906Q209.58545 277.6906 208.8667 276.8Q208.02295 275.7375 208.02295 273.3156ZM209.10107 273.3156Q209.10107 275.425 209.60107 276.1281Q210.10107 276.83124 210.81982 276.83124Q211.5542 276.83124 212.03857 276.1281Q212.53857 275.425 212.53857 273.3156Q212.53857 271.1906 212.03857 270.5031Q211.5542 269.8 210.8042 269.8Q210.08545 269.8 209.64795 270.40936Q209.10107 271.1906 209.10107 273.3156Z" fill-rule="nonzero"/><path fill="#000000" d="M273.05096 277.55L272.0041 277.55L272.0041 270.83124Q271.61346 271.1906 270.98846 271.5656Q270.3791 271.925 269.8947 272.09686L269.8947 271.08124Q270.7697 270.65936 271.42596 270.08124Q272.09784 269.4875 272.3791 268.925L273.05096 268.925L273.05096 277.55ZM276.0822 275.3L277.1916 275.20624Q277.3166 276.01874 277.7541 276.425Q278.2072 276.83124 278.84784 276.83124Q279.59784 276.83124 280.1291 276.2531Q280.66034 275.675 280.66034 274.7375Q280.66034 273.83124 280.1447 273.3156Q279.6447 272.78436 278.8166 272.78436Q278.3166 272.78436 277.8947 273.01874Q277.48846 273.2531 277.2541 273.6125L276.2697 273.4875L277.09784 269.08124L281.3791 269.08124L281.3791 270.08124L277.9416 270.08124L277.48846 272.39374Q278.2541 271.84686 279.09784 271.84686Q280.22284 271.84686 280.98846 272.6281Q281.7697 273.40936 281.7697 274.64374Q281.7697 275.8 281.09784 276.65936Q280.2697 277.6906 278.84784 277.6906Q277.67596 277.6906 276.92596 277.03436Q276.1916 276.3781 276.0822 275.3Z" fill-rule="nonzero"/><path fill="#000000" d="M342.68835 276.53436L342.68835 277.55L337.00085 277.55Q337.00085 277.175 337.12585 276.8156Q337.3446 276.2375 337.81335 275.675Q338.29773 275.1125 339.20398 274.3781Q340.61023 273.22186 341.0946 272.55Q341.5946 271.8781 341.5946 271.28436Q341.5946 270.65936 341.14148 270.2375Q340.68835 269.8 339.9696 269.8Q339.20398 269.8 338.75085 270.2531Q338.29773 270.70624 338.2821 271.51874L337.20398 271.40936Q337.31335 270.1906 338.0321 269.5656Q338.76648 268.925 340.00085 268.925Q341.23523 268.925 341.95398 269.6125Q342.67273 270.3 342.67273 271.3156Q342.67273 271.83124 342.45398 272.33124Q342.25085 272.8156 341.75085 273.3781Q341.26648 273.925 340.14148 274.8781Q339.18835 275.675 338.9071 275.97186Q338.64148 276.2531 338.4696 276.53436L342.68835 276.53436ZM344.14148 273.3156Q344.14148 271.78436 344.45398 270.8625Q344.76648 269.925 345.37585 269.425Q346.00085 268.925 346.93835 268.925Q347.62585 268.925 348.14148 269.20624Q348.67273 269.4875 349.01648 270.01874Q349.36023 270.53436 349.54773 271.28436Q349.73523 272.03436 349.73523 273.3156Q349.73523 274.83124 349.42273 275.7531Q349.12585 276.675 348.50085 277.1906Q347.89148 277.6906 346.93835 277.6906Q345.70398 277.6906 344.98523 276.8Q344.14148 275.7375 344.14148 273.3156ZM345.2196 273.3156Q345.2196 275.425 345.7196 276.1281Q346.2196 276.83124 346.93835 276.83124Q347.67273 276.83124 348.1571 276.1281Q348.6571 275.425 348.6571 273.3156Q348.6571 271.1906 348.1571 270.5031Q347.67273 269.8 346.92273 269.8Q346.20398 269.8 345.76648 270.40936Q345.2196 271.1906 345.2196 273.3156Z" fill-rule="nonzero"/><path fill="#000000" d="M410.74765 276.53436L410.74765 277.55L405.06015 277.55Q405.06015 277.175 405.18515 276.8156Q405.4039 276.2375 405.87265 275.675Q406.35703 275.1125 407.26328 274.3781Q408.66953 273.22186 409.1539 272.55Q409.6539 271.8781 409.6539 271.28436Q409.6539 270.65936 409.20078 270.2375Q408.74765 269.8 408.0289 269.8Q407.26328 269.8 406.81015 270.2531Q406.35703 270.70624 406.3414 271.51874L405.26328 271.40936Q405.37265 270.1906 406.0914 269.5656Q406.82578 268.925 408.06015 268.925Q409.29453 268.925 410.01328 269.6125Q410.73203 270.3 410.73203 271.3156Q410.73203 271.83124 410.51328 272.33124Q410.31015 272.8156 409.81015 273.3781Q409.32578 273.925 408.20078 274.8781Q407.24765 275.675 406.9664 275.97186Q406.70078 276.2531 406.5289 276.53436L410.74765 276.53436ZM412.20078 275.3L413.31015 275.20624Q413.43515 276.01874 413.87265 276.425Q414.32578 276.83124 414.9664 276.83124Q415.7164 276.83124 416.24765 276.2531Q416.7789 275.675 416.7789 274.7375Q416.7789 273.83124 416.26328 273.3156Q415.76328 272.78436 414.93515 272.78436Q414.43515 272.78436 414.01328 273.01874Q413.60703 273.2531 413.37265 273.6125L412.38828 273.4875L413.2164 269.08124L417.49765 269.08124L417.49765 270.08124L414.06015 270.08124L413.60703 272.39374Q414.37265 271.84686 415.2164 271.84686Q416.3414 271.84686 417.10703 272.6281Q417.88828 273.40936 417.88828 274.64374Q417.88828 275.8 417.2164 276.65936Q416.38828 277.6906 414.9664 277.6906Q413.79453 277.6906 413.04453 277.03436Q412.31015 276.3781 412.20078 275.3Z" fill-rule="nonzero"/><path fill="#000000" d="M473.26004 275.28436L474.32254 275.14374Q474.49442 276.03436 474.93192 276.4406Q475.36942 276.83124 475.99442 276.83124Q476.74442 276.83124 477.26004 276.3156Q477.77567 275.8 477.77567 275.03436Q477.77567 274.3156 477.2913 273.84686Q476.82254 273.3625 476.08817 273.3625Q475.7913 273.3625 475.33817 273.4875L475.46317 272.55Q475.57254 272.5656 475.63504 272.5656Q476.30692 272.5656 476.83817 272.22186Q477.38504 271.8625 477.38504 271.1281Q477.38504 270.55 476.99442 270.175Q476.6038 269.78436 475.9788 269.78436Q475.36942 269.78436 474.94754 270.175Q474.5413 270.5656 474.43192 271.33124L473.36942 271.14374Q473.55692 270.09686 474.24442 269.51874Q474.93192 268.925 475.94754 268.925Q476.65067 268.925 477.24442 269.2375Q477.83817 269.53436 478.15067 270.05Q478.46317 270.5656 478.46317 271.15936Q478.46317 271.70624 478.1663 272.175Q477.86942 272.6281 477.2913 272.89374Q478.0413 273.0656 478.46317 273.6281Q478.88504 274.175 478.88504 275.01874Q478.88504 276.14374 478.05692 276.925Q477.24442 277.70624 475.99442 277.70624Q474.86942 277.70624 474.11942 277.03436Q473.36942 276.34686 473.26004 275.28436ZM480.26004 273.3156Q480.26004 271.78436 480.57254 270.8625Q480.88504 269.925 481.49442 269.425Q482.11942 268.925 483.05692 268.925Q483.74442 268.925 484.26004 269.20624Q484.7913 269.4875 485.13504 270.01874Q485.4788 270.53436 485.6663 271.28436Q485.8538 272.03436 485.8538 273.3156Q485.8538 274.83124 485.5413 275.7531Q485.24442 276.675 484.61942 277.1906Q484.01004 277.6906 483.05692 277.6906Q481.82254 277.6906 481.1038 276.8Q480.26004 275.7375 480.26004 273.3156ZM481.33817 273.3156Q481.33817 275.425 481.83817 276.1281Q482.33817 276.83124 483.05692 276.83124Q483.7913 276.83124 484.27567 276.1281Q484.77567 275.425 484.77567 273.3156Q484.77567 271.1906 484.27567 270.5031Q483.7913 269.8 483.0413 269.8Q482.32254 269.8 481.88504 270.40936Q481.33817 271.1906 481.33817 273.3156Z" fill-rule="nonzero"/><path fill="#757575" d="M17.41875 28.48125Q17.41875 24.91875 19.325 22.903126Q21.246876 20.871876 24.278126 20.871876Q26.2625 20.871876 27.840626 21.825Q29.434376 22.778126 30.2625 24.48125Q31.10625 26.16875 31.10625 28.309376Q31.10625 30.48125 30.23125 32.2Q29.35625 33.91875 27.73125 34.809376Q26.121876 35.7 24.2625 35.7Q22.246876 35.7 20.653126 34.73125Q19.059376 33.746876 18.23125 32.059376Q17.41875 30.35625 17.41875 28.48125ZM19.371876 28.5125Q19.371876 31.090626 20.7625 32.590626Q22.153126 34.075 24.246876 34.075Q26.3875 34.075 27.7625 32.575Q29.153126 31.059376 29.153126 28.29375Q29.153126 26.559376 28.559376 25.2625Q27.98125 23.95 26.840626 23.23125Q25.7 22.5125 24.278126 22.5125Q22.278126 22.5125 20.825 23.903126Q19.371876 25.278126 19.371876 28.5125ZM33.7625 39.41875L33.7625 25.075L35.371876 25.075L35.371876 26.41875Q35.934376 25.6375 36.6375 25.246876Q37.35625 24.840626 38.371876 24.840626Q39.7 24.840626 40.715626 25.528126Q41.73125 26.215626 42.246876 27.465626Q42.778126 28.7 42.778126 30.184376Q42.778126 31.778126 42.2 33.059376Q41.6375 34.325 40.54375 35.0125Q39.45 35.684376 38.246876 35.684376Q37.371876 35.684376 36.66875 35.309376Q35.98125 34.934376 35.528126 34.371876L35.528126 39.41875L33.7625 39.41875ZM35.35625 30.325Q35.35625 32.325 36.16875 33.278126Q36.98125 34.23125 38.1375 34.23125Q39.309376 34.23125 40.1375 33.246876Q40.98125 32.2625 40.98125 30.16875Q40.98125 28.2 40.153126 27.215626Q39.340626 26.215626 38.215626 26.215626Q37.090626 26.215626 36.215626 27.278126Q35.35625 28.325 35.35625 30.325ZM51.871876 32.10625L53.684376 32.340626Q53.2625 33.91875 52.090626 34.809376Q50.934376 35.684376 49.121876 35.684376Q46.85625 35.684376 45.5125 34.29375Q44.184376 32.8875 44.184376 30.35625Q44.184376 27.73125 45.528126 26.29375Q46.871876 24.840626 49.028126 24.840626Q51.10625 24.840626 52.41875 26.2625Q53.746876 27.66875 53.746876 30.246876Q53.746876 30.403126 53.73125 30.715626L45.996876 30.715626Q46.090626 32.41875 46.965626 33.325Q47.840626 34.23125 49.1375 34.23125Q50.10625 34.23125 50.778126 33.73125Q51.465626 33.215626 51.871876 32.10625ZM46.090626 29.2625L51.8875 29.2625Q51.778126 27.965626 51.23125 27.309376Q50.3875 26.29375 49.04375 26.29375Q47.840626 26.29375 47.0125 27.10625Q46.184376 27.903126 46.090626 29.2625ZM55.7625 35.45L55.7625 25.075L57.35625 25.075L57.35625 26.559376Q58.496876 24.840626 60.653126 24.840626Q61.590626 24.840626 62.371876 25.184376Q63.16875 25.5125 63.559376 26.059376Q63.95 26.60625 64.10625 27.35625Q64.2 27.85625 64.2 29.075L64.2 35.45L62.434376 35.45L62.434376 29.1375Q62.434376 28.059376 62.23125 27.528126Q62.028126 26.996876 61.496876 26.684376Q60.98125 26.371876 60.278126 26.371876Q59.153126 26.371876 58.340626 27.090626Q57.528126 27.79375 57.528126 29.778126L57.528126 35.45L55.7625 35.45ZM65.93437 35.45L65.93437 21.1375L68.79375 21.1375L72.16875 31.2625Q72.6375 32.684376 72.85625 33.3875Q73.10625 32.60625 73.62187 31.090626L77.04375 21.1375L79.59062 21.1375L79.59062 35.45L77.77812 35.45L77.77812 23.465626L73.60625 35.45L71.90312 35.45L67.7625 23.2625L67.7625 35.45L65.93437 35.45ZM82.99687 35.45L82.99687 21.1375L88.3875 21.1375Q89.825 21.1375 90.575 21.2625Q91.62187 21.45 92.34062 21.95Q93.05937 22.434376 93.48125 23.325Q93.91875 24.215626 93.91875 25.278126Q93.91875 27.10625 92.74687 28.371876Q91.59062 29.621876 88.55937 29.621876L84.8875 29.621876L84.8875 35.45L82.99687 35.45ZM84.8875 27.934376L88.59062 27.934376Q90.41875 27.934376 91.18437 27.2625Q91.96562 26.575 91.96562 25.325Q91.96562 24.434376 91.5125 23.79375Q91.05937 23.153126 90.325 22.95Q89.84062 22.825 88.54375 22.825L84.8875 22.825L84.8875 27.934376ZM102.30937 35.45L102.30937 21.1375L104.21562 21.1375L104.21562 35.45L102.30937 35.45ZM107.7625 35.45L107.7625 25.075L109.35625 25.075L109.35625 26.559376Q110.49687 24.840626 112.65312 24.840626Q113.59062 24.840626 114.37187 25.184376Q115.16875 25.5125 115.55937 26.059376Q115.95 26.60625 116.10625 27.35625Q116.2 27.85625 116.2 29.075L116.2 35.45L114.43437 35.45L114.43437 29.1375Q114.43437 28.059376 114.23125 27.528126Q114.02812 26.996876 113.49687 26.684376Q112.98125 26.371876 112.27812 26.371876Q111.15312 26.371876 110.34062 27.090626Q109.52812 27.79375 109.52812 29.778126L109.52812 35.45L107.7625 35.45ZM118.18437 35.45L118.18437 26.45L116.6375 26.45L116.6375 25.075L118.18437 25.075L118.18437 23.98125Q118.18437 22.934376 118.37187 22.41875Q118.62187 21.73125 119.2625 21.309376Q119.90312 20.8875 121.05937 20.8875Q121.80937 20.8875 122.7 21.059376L122.43437 22.590626Q121.8875 22.496876 121.40312 22.496876Q120.60625 22.496876 120.2625 22.840626Q119.93437 23.184376 119.93437 24.121876L119.93437 25.075L121.96562 25.075L121.96562 26.45L119.93437 26.45L119.93437 35.45L118.18437 35.45ZM130.87187 32.10625L132.68437 32.340626Q132.2625 33.91875 131.09062 34.809376Q129.93437 35.684376 128.12187 35.684376Q125.85625 35.684376 124.5125 34.29375Q123.18437 32.8875 123.18437 30.35625Q123.18437 27.73125 124.52812 26.29375Q125.87187 24.840626 128.02812 24.840626Q130.10625 24.840626 131.41875 26.2625Q132.74687 27.66875 132.74687 30.246876Q132.74687 30.403126 132.73125 30.715626L124.99687 30.715626Q125.09062 32.41875 125.96562 33.325Q126.84062 34.23125 128.1375 34.23125Q129.10625 34.23125 129.77812 33.73125Q130.46562 33.215626 130.87187 32.10625ZM125.09062 29.2625L130.8875 29.2625Q130.77812 27.965626 130.23125 27.309376Q129.3875 26.29375 128.04375 26.29375Q126.84062 26.29375 126.0125 27.10625Q125.18437 27.903126 125.09062 29.2625ZM134.74687 35.45L134.74687 25.075L136.325 25.075L136.325 26.653126Q136.93437 25.54375 137.45 25.2Q137.96562 24.840626 138.575 24.840626Q139.46562 24.840626 140.3875 25.403126L139.77812 27.04375Q139.1375 26.653126 138.49687 26.653126Q137.91875 26.653126 137.45 27.0125Q136.99687 27.35625 136.79375 27.965626Q136.5125 28.903126 136.5125 30.0125L136.5125 35.45L134.74687 35.45ZM148.87187 32.10625L150.68437 32.340626Q150.2625 33.91875 149.09062 34.809376Q147.93437 35.684376 146.12187 35.684376Q143.85625 35.684376 142.5125 34.29375Q141.18437 32.8875 141.18437 30.35625Q141.18437 27.73125 142.52812 26.29375Q143.87187 24.840626 146.02812 24.840626Q148.10625 24.840626 149.41875 26.2625Q150.74687 27.66875 150.74687 30.246876Q150.74687 30.403126 150.73125 30.715626L142.99687 30.715626Q143.09062 32.41875 143.96562 33.325Q144.84062 34.23125 146.1375 34.23125Q147.10625 34.23125 147.77812 33.73125Q148.46562 33.215626 148.87187 32.10625ZM143.09062 29.2625L148.8875 29.2625Q148.77812 27.965626 148.23125 27.309376Q147.3875 26.29375 146.04375 26.29375Q144.84062 26.29375 144.0125 27.10625Q143.18437 27.903126 143.09062 29.2625ZM152.7625 35.45L152.7625 25.075L154.35625 25.075L154.35625 26.559376Q155.49687 24.840626 157.65312 24.840626Q158.59062 24.840626 159.37187 25.184376Q160.16875 25.5125 160.55937 26.059376Q160.95 26.60625 161.10625 27.35625Q161.2 27.85625 161.2 29.075L161.2 35.45L159.43437 35.45L159.43437 29.1375Q159.43437 28.059376 159.23125 27.528126Q159.02812 26.996876 158.49687 26.684376Q157.98125 26.371876 157.27812 26.371876Q156.15312 26.371876 155.34062 27.090626Q154.52812 27.79375 154.52812 29.778126L154.52812 35.45L152.7625 35.45ZM169.54375 31.653126L171.2625 31.871876Q170.98125 33.66875 169.80937 34.684376Q168.65312 35.684376 166.95 35.684376Q164.825 35.684376 163.52812 34.29375Q162.23125 32.903126 162.23125 30.309376Q162.23125 28.621876 162.77812 27.371876Q163.34062 26.10625 164.48125 25.48125Q165.62187 24.840626 166.96562 24.840626Q168.65312 24.840626 169.71562 25.7Q170.79375 26.559376 171.10625 28.121876L169.3875 28.3875Q169.15312 27.340626 168.52812 26.825Q167.90312 26.29375 167.02812 26.29375Q165.7 26.29375 164.87187 27.246876Q164.04375 28.2 164.04375 30.246876Q164.04375 32.340626 164.84062 33.29375Q165.6375 34.23125 166.93437 34.23125Q167.96562 34.23125 168.65312 33.60625Q169.35625 32.965626 169.54375 31.653126ZM179.87187 32.10625L181.68437 32.340626Q181.2625 33.91875 180.09062 34.809376Q178.93437 35.684376 177.12187 35.684376Q174.85625 35.684376 173.5125 34.29375Q172.18437 32.8875 172.18437 30.35625Q172.18437 27.73125 173.52812 26.29375Q174.87187 24.840626 177.02812 24.840626Q179.10625 24.840626 180.41875 26.2625Q181.74687 27.66875 181.74687 30.246876Q181.74687 30.403126 181.73125 30.715626L173.99687 30.715626Q174.09062 32.41875 174.96562 33.325Q175.84062 34.23125 177.1375 34.23125Q178.10625 34.23125 178.77812 33.73125Q179.46562 33.215626 179.87187 32.10625ZM174.09062 29.2625L179.8875 29.2625Q179.77812 27.965626 179.23125 27.309376Q178.3875 26.29375 177.04375 26.29375Q175.84062 26.29375 175.0125 27.10625Q174.18437 27.903126 174.09062 29.2625ZM189.35625 30.85625L191.1375 30.7Q191.2625 31.7625 191.71562 32.45Q192.18437 33.1375 193.15312 33.575Q194.1375 33.996876 195.37187 33.996876Q196.45 33.996876 197.27812 33.684376Q198.10625 33.35625 198.5125 32.79375Q198.91875 32.23125 198.91875 31.559376Q198.91875 30.8875 198.52812 30.3875Q198.1375 29.8875 197.24687 29.54375Q196.66875 29.309376 194.68437 28.840626Q192.71562 28.371876 191.93437 27.95Q190.90312 27.41875 190.40312 26.621876Q189.90312 25.825 189.90312 24.840626Q189.90312 23.746876 190.5125 22.809376Q191.12187 21.871876 192.30937 21.3875Q193.49687 20.8875 194.93437 20.8875Q196.52812 20.8875 197.74687 21.403126Q198.96562 21.91875 199.60625 22.91875Q200.2625 23.903126 200.30937 25.16875L198.49687 25.309376Q198.35625 23.95 197.5125 23.2625Q196.66875 22.559376 195.0125 22.559376Q193.29375 22.559376 192.49687 23.2Q191.71562 23.825 191.71562 24.7Q191.71562 25.48125 192.27812 25.98125Q192.825 26.48125 195.1375 26.996876Q197.45 27.5125 198.30937 27.903126Q199.55937 28.48125 200.15312 29.371876Q200.74687 30.246876 200.74687 31.403126Q200.74687 32.54375 200.09062 33.559376Q199.43437 34.575 198.2 35.1375Q196.98125 35.7 195.45 35.7Q193.5125 35.7 192.2 35.1375Q190.8875 34.559376 190.1375 33.41875Q189.3875 32.278126 189.35625 30.85625ZM202.7625 39.41875L202.7625 25.075L204.37187 25.075L204.37187 26.41875Q204.93437 25.6375 205.6375 25.246876Q206.35625 24.840626 207.37187 24.840626Q208.7 24.840626 209.71562 25.528126Q210.73125 26.215626 211.24687 27.465626Q211.77812 28.7 211.77812 30.184376Q211.77812 31.778126 211.2 33.059376Q210.6375 34.325 209.54375 35.0125Q208.45 35.684376 207.24687 35.684376Q206.37187 35.684376 205.66875 35.309376Q204.98125 34.934376 204.52812 34.371876L204.52812 39.41875L202.7625 39.41875ZM204.35625 30.325Q204.35625 32.325 205.16875 33.278126Q205.98125 34.23125 207.1375 34.23125Q208.30937 34.23125 209.1375 33.246876Q209.98125 32.2625 209.98125 30.16875Q209.98125 28.2 209.15312 27.215626Q208.34062 26.215626 207.21562 26.215626Q206.09062 26.215626 205.21562 27.278126Q204.35625 28.325 204.35625 30.325ZM220.87187 32.10625L222.68437 32.340626Q222.2625 33.91875 221.09062 34.809376Q219.93437 35.684376 218.12187 35.684376Q215.85625 35.684376 214.5125 34.29375Q213.18437 32.8875 213.18437 30.35625Q213.18437 27.73125 214.52812 26.29375Q215.87187 24.840626 218.02812 24.840626Q220.10625 24.840626 221.41875 26.2625Q222.74687 27.66875 222.74687 30.246876Q222.74687 30.403126 222.73125 30.715626L214.99687 30.715626Q215.09062 32.41875 215.96562 33.325Q216.84062 34.23125 218.1375 34.23125Q219.10625 34.23125 219.77812 33.73125Q220.46562 33.215626 220.87187 32.10625ZM215.09062 29.2625L220.8875 29.2625Q220.77812 27.965626 220.23125 27.309376Q219.3875 26.29375 218.04375 26.29375Q216.84062 26.29375 216.0125 27.10625Q215.18437 27.903126 215.09062 29.2625ZM231.87187 32.10625L233.68437 32.340626Q233.2625 33.91875 232.09062 34.809376Q230.93437 35.684376 229.12187 35.684376Q226.85625 35.684376 225.5125 34.29375Q224.18437 32.8875 224.18437 30.35625Q224.18437 27.73125 225.52812 26.29375Q226.87187 24.840626 229.02812 24.840626Q231.10625 24.840626 232.41875 26.2625Q233.74687 27.66875 233.74687 30.246876Q233.74687 30.403126 233.73125 30.715626L225.99687 30.715626Q226.09062 32.41875 226.96562 33.325Q227.84062 34.23125 229.1375 34.23125Q230.10625 34.23125 230.77812 33.73125Q231.46562 33.215626 231.87187 32.10625ZM226.09062 29.2625L231.8875 29.2625Q231.77812 27.965626 231.23125 27.309376Q230.3875 26.29375 229.04375 26.29375Q227.84062 26.29375 227.0125 27.10625Q226.18437 27.903126 226.09062 29.2625ZM242.49687 35.45L242.49687 34.1375Q241.5125 35.684376 239.59062 35.684376Q238.35625 35.684376 237.30937 34.996876Q236.27812 34.309376 235.7 33.090626Q235.1375 31.871876 235.1375 30.278126Q235.1375 28.715626 235.65312 27.45Q236.16875 26.184376 237.2 25.5125Q238.24687 24.840626 239.5125 24.840626Q240.45 24.840626 241.18437 25.246876Q241.91875 25.6375 242.3875 26.2625L242.3875 21.1375L244.12187 21.1375L244.12187 35.45L242.49687 35.45ZM236.93437 30.278126Q236.93437 32.2625 237.77812 33.246876Q238.62187 34.23125 239.7625 34.23125Q240.91875 34.23125 241.71562 33.29375Q242.52812 32.35625 242.52812 30.41875Q242.52812 28.29375 241.7 27.29375Q240.8875 26.29375 239.68437 26.29375Q238.5125 26.29375 237.71562 27.2625Q236.93437 28.215626 236.93437 30.278126ZM253.55937 35.45L253.55937 33.91875Q252.35625 35.684376 250.27812 35.684376Q249.35625 35.684376 248.55937 35.340626Q247.7625 34.98125 247.37187 34.45Q246.99687 33.91875 246.84062 33.1375Q246.73125 32.621876 246.73125 31.496876L246.73125 25.075L248.48125 25.075L248.48125 30.825Q248.48125 32.2 248.59062 32.684376Q248.7625 33.371876 249.29375 33.778126Q249.84062 34.16875 250.62187 34.16875Q251.41875 34.16875 252.10625 33.7625Q252.80937 33.35625 253.09062 32.66875Q253.3875 31.965626 253.3875 30.6375L253.3875 25.075L255.1375 25.075L255.1375 35.45L253.55937 35.45ZM256.7625 39.41875L256.7625 25.075L258.3719 25.075L258.3719 26.41875Q258.9344 25.6375 259.6375 25.246876Q260.35626 24.840626 261.3719 24.840626Q262.7 24.840626 263.71564 25.528126Q264.73126 26.215626 265.2469 27.465626Q265.77814 28.7 265.77814 30.184376Q265.77814 31.778126 265.2 33.059376Q264.6375 34.325 263.54376 35.0125Q262.45 35.684376 261.2469 35.684376Q260.3719 35.684376 259.66876 35.309376Q258.98126 34.934376 258.52814 34.371876L258.52814 39.41875L256.7625 39.41875ZM258.35626 30.325Q258.35626 32.325 259.16876 33.278126Q259.98126 34.23125 261.1375 34.23125Q262.3094 34.23125 263.1375 33.246876Q263.98126 32.2625 263.98126 30.16875Q263.98126 28.2 263.15314 27.215626Q262.34064 26.215626 261.21564 26.215626Q260.09064 26.215626 259.21564 27.278126Q258.35626 28.325 258.35626 30.325Z" fill-rule="nonzero"/></svg>